<?xml version="1.0" encoding="utf-8"?>
<!-- Generator: Adobe Illustrator 27.5.0, SVG Export Plug-In . SVG Version: 6.00 Build 0)  -->
<svg version="1.1" xmlns="http://www.w3.org/2000/svg" xmlns:xlink="http://www.w3.org/1999/xlink" x="0px" y="0px"
	 viewBox="0 0 750 500" style="enable-background:new 0 0 750 500;" xml:space="preserve">
<g id="BACKGROUND">
	<rect x="0" style="fill:#E9F2FF;" width="750" height="500"/>
</g>
<g id="OBJECTS">
	<g>
		<g>
			<path style="opacity:0.49;fill:#BACDFF;" d="M329.881,91.11c0.643,12.353-4.403,24.31-13.439,32.758
				c-17.68,16.529-59.747,49.463-97.507,30.335c-49.354-25.002,20.976-114.188,75.117-99.747
				C321.686,61.827,329.174,77.515,329.881,91.11z"/>
			<path style="opacity:0.49;fill:#BACDFF;" d="M638.015,189.566c0,0-4.797-92.694-116.626-87.407
				c-43.933,2.077-83.581,15.223-115.531,30.42c-53.58,25.485-111.172,41.951-170.313,49.602
				c-45.429,5.877-93.618,25.434-106.451,79.817c-25.944,109.946,79.234,191.303,236.62,184.748
				C523.099,440.191,645.481,348.094,638.015,189.566z"/>
		</g>
		<g>
			<g>
				<path style="fill:#3E8F7D;" d="M97.012,292.491c0,0-47.977,9.948-43.695-11.84C57.6,258.863,97.012,292.491,97.012,292.491z"/>
				<g>
					<path style="fill:#276B5B;" d="M114.196,298.883c-0.063,0.175-0.188,0.329-0.364,0.425c-0.335,0.184-0.745,0.099-0.982-0.183
						c-0.717-0.575-8.202-4.649-15.959-5.854c-0.096-0.015-0.189-0.048-0.273-0.096c-13.862-8.003-29.485-8.199-29.641-8.2
						c-0.436-0.003-0.787-0.359-0.784-0.794c0.003-0.436,0.358-0.787,0.794-0.784c0.16,0.001,16.09,0.193,30.293,8.338
						c4.41,0.704,8.561,2.246,11.279,3.421c0.051,0.022,5.124,2.235,5.588,3.081C114.259,298.443,114.27,298.678,114.196,298.883z
						 M112.761,298.995c0,0.001,0.001,0.001,0.001,0.002C112.762,298.996,112.762,298.995,112.761,298.995z"/>
				</g>
				<path style="fill:#3E8F7D;" d="M81.727,262.533c0,0-48.804,4.352-42.039-16.797C46.453,224.587,81.727,262.533,81.727,262.533z"
					/>
				<g>
					<path style="fill:#276B5B;" d="M125.034,324.515c-0.081,0.227-0.265,0.413-0.513,0.489c-0.417,0.127-0.858-0.108-0.985-0.525
						c-3.78-12.41-15.464-43.223-42.251-61.292c-0.01-0.007-0.02-0.014-0.03-0.021c-12.847-9.548-28.343-11.542-28.498-11.561
						c-0.433-0.053-0.74-0.447-0.687-0.879c0.053-0.433,0.446-0.74,0.879-0.688c0.159,0.019,16.044,2.055,29.233,11.85
						c27.195,18.353,39.035,49.562,42.863,62.13C125.097,324.188,125.089,324.361,125.034,324.515z"/>
				</g>
				<path style="fill:#3E8F7D;" d="M87.833,254.982c0,0-31.65-24.296-15.936-33.243C87.61,212.793,87.833,254.982,87.833,254.982z"
					/>
				<g>
					<path style="fill:#276B5B;" d="M90.725,269.137c-0.14,0.39-0.561,0.608-0.963,0.49c-0.419-0.122-0.659-0.56-0.537-0.979
						c0.634-2.174-1.34-10.453-2.153-13.46c-0.005-0.019-0.01-0.039-0.013-0.059c-2.433-12.78-10.593-22.476-10.675-22.572
						c-0.282-0.332-0.243-0.83,0.089-1.113c0.332-0.283,0.83-0.243,1.113,0.089c0.346,0.407,8.502,10.099,11.018,23.271
						c0.346,1.282,3.002,11.319,2.137,14.285C90.735,269.106,90.73,269.121,90.725,269.137z"/>
				</g>
				<path style="fill:#3E8F7D;" d="M115.907,283.694c0,0-30.012-41.364-7.458-46.624
					C131.004,231.809,115.907,283.694,115.907,283.694z"/>
				<g>
					<path style="fill:#276B5B;" d="M118.425,307.264c-0.111,0.31-0.412,0.53-0.76,0.522c-0.436-0.009-0.782-0.37-0.773-0.805
						c0.003-0.157,0.303-15.749-1.746-23.074c-0.027-0.095-0.035-0.194-0.025-0.292c1.673-16.62-4.836-31.568-4.902-31.717
						c-0.176-0.399,0.004-0.865,0.402-1.041c0.399-0.177,0.865,0.003,1.041,0.402c0.067,0.152,6.707,15.378,5.044,32.367
						c2.069,7.6,1.778,22.743,1.764,23.388C118.469,307.102,118.453,307.186,118.425,307.264z"/>
				</g>
			</g>
			<g>
				<path style="fill:#276B5B;" d="M117.511,438.144l0.34,0.932h3.131l-0.708-1.94c4.08-0.995,14.725-4.526,23.942-15.645
					c11.679-14.089,8.405-23.4-6.174-12.671c-11.148,8.204-16.64,20.623-18.607,26.015l-7.604-20.845
					c4.281-1.029,15.743-4.764,25.659-16.727c12.469-15.042,8.974-24.983-6.592-13.528c-12.005,8.834-17.865,22.246-19.919,27.921
					l-5.326-14.6c0.12-0.037,0.187-0.06,0.187-0.06s-0.079-0.106-0.23-0.3c4.418-2.504,12.852-8.547,17.925-20.249
					c7.109-16.4,0.5-24.516-10.764-10.619c-6.514,8.037-8.859,17.586-9.679,24.209l-5.603-15.358
					c2.913-2.097,8.519-7.129,10.721-15.976c3.034-12.193-3.025-17.325-9.508-6.527c-3.037,5.059-3.894,10.574-3.948,15.007
					l-4.479-12.279c3.22-4.68,11.433-17.836,5.976-23.086c-4.488-4.318-9.053,4.188-9.65,13.015l-2.71-7.428
					c0.991-2.209,2.36-6.698,0.416-12.027c-1.787-4.897-4.757-6.074-6.643-6.292c-0.154-0.018-0.309-0.023-0.465-0.02
					c-0.032,0.001-0.064,0.005-0.096,0.007c-0.129,0.006-0.258,0.018-0.387,0.037c-0.023,0.004-0.045,0.009-0.068,0.013
					c-0.142,0.024-0.282,0.057-0.421,0.097c-0.009,0.003-0.018,0.005-0.027,0.008c-0.63,0.187-1.217,0.528-1.659,0.997
					c-1.303,1.381-2.818,4.194-1.031,9.091c1.771,4.854,5.196,7.405,7.441,8.616l2.885,7.909
					c-6.141-6.368-15.111-9.938-15.764-3.744c-0.794,7.53,13.96,12.307,19.438,13.815l4.479,12.279
					c-2.895-3.357-7.102-7.024-12.684-8.94c-11.913-4.088-13.245,3.74-3.072,11.116c7.381,5.351,14.91,5.591,18.49,5.32
					l5.603,15.358c-4.892-4.54-12.835-10.335-22.994-12.29c-17.566-3.38-17.397,7.086-1.397,15.056
					c11.417,5.687,21.761,4.88,26.753,3.951c0.009,0.245,0.017,0.377,0.017,0.377s0.066-0.026,0.182-0.075l5.326,14.6
					c-5.225-3.019-18.345-9.507-33.218-8.536c-19.285,1.259-15.558,11.115,3.667,14.595c15.29,2.767,26.464-1.755,30.402-3.724
					l7.604,20.845c-4.977-2.858-17.176-8.824-30.988-7.923c-14.506,0.947-15.109,7.086-5.459,11.156h35.227
					C116.272,438.736,116.964,438.415,117.511,438.144z"/>
				<g>
					<g>
						<g>
							<path style="fill:#3E8F7D;" d="M90.328,444.706c-5.2-0.481-15.973-4.351-16.718-8.792
								c-0.744-4.441,11.732-5.457,21.862-2.383c6.735,2.044,11.143,4.005,10.354,7.086c-0.856,3.34-4.621,4.293-8.597,4.421h43.873
								c3.533-30.907-28.233-42.187-48.041-51.602c-21.137-10.046-53.657-7.254-53.657-7.254
								c9.285,13.769,19.004,39.865,34.745,58.856h21.002C93.42,444.989,91.737,444.836,90.328,444.706z M117.514,414.326
								c5.333-1.384,7.704,7.263,9.581,11.872c1.877,4.609,4.106,14.768,0.534,17.497c-3.572,2.729-9.982-7.301-11.761-17.291
								C114.686,419.762,114.459,415.119,117.514,414.326z M85.019,396.463c2.354-1.675,7.749,2.607,9.909,6.812
								c2.16,4.205,3.908,10.009,2.49,14.319c-1.418,4.309-10.012-5.594-13.073-11.579C81.284,400.03,82.989,397.907,85.019,396.463
								z M62.735,411.084c-4.378-1.607-4.454-3.382-4.044-4.965c0.475-1.836,5.304-2.071,8.385-0.946
								c3.081,1.125,6.681,3.21,7.916,5.931C76.227,413.826,67.114,412.691,62.735,411.084z"/>
							<path style="fill:#276B5B;" d="M91.083,417.625c-13.984-10.401-41.442-28.805-51.501-31.171c0,0,23.9,12.947,38.953,24.237
								c17.234,12.925,31.18,25.068,41.046,34.347h3.93C114.135,436.103,102.359,426.012,91.083,417.625z"/>
						</g>
					</g>
				</g>
			</g>
			<path style="fill:#276B5B;" d="M590.465,283.677c2.284,1.634,8.887,4.985,18.56,3.931c12.092-1.109,15.649-6.635,3.951-9.623
				c-9.114-2.213-18.233,1.762-21.758,3.962c1.592-3.593,3.332-7.106,5.217-10.532c0.066,0.044,0.103,0.067,0.103,0.067
				c0,0,0.026-0.096,0.07-0.274c3.018,1.06,9.345,2.245,17.438-0.239c11.29-3.229,13.946-9.485,2.243-10.184
				c-6.811-0.245-13.126,2.892-17.036,5.75c2.128-3.515,4.413-6.931,6.852-10.241c2.21,0.668,6.971,1.43,12.97-0.827
				c8.25-2.967,9.962-7.968,1.28-7.735c-4.075,0.189-7.826,1.934-10.571,3.792c2.068-2.562,4.233-5.055,6.492-7.474
				c3.968-0.099,14.585-0.024,16.86-4.617c1.966-3.839-4.935-3.985-11.113-1.185c1.459-1.389,2.952-2.75,4.478-4.082
				c1.773-0.161,5.168-0.822,8.592-3.471c3.162-2.425,3.537-4.424,3.374-5.585c-0.013-0.094-0.036-0.185-0.064-0.275
				c-0.006-0.018-0.014-0.035-0.021-0.052c-0.026-0.074-0.057-0.145-0.093-0.215c-0.007-0.012-0.014-0.024-0.021-0.037
				c-0.042-0.076-0.089-0.148-0.142-0.218c-0.004-0.005-0.007-0.009-0.011-0.014c-0.059-0.076-0.125-0.148-0.196-0.216c0,0,0,0,0,0
				h0c-0.225-0.212-0.503-0.381-0.826-0.479c-1.24-0.378-3.644-0.506-6.929,2.012c-3.244,2.509-4.328,5.352-4.683,7.037
				c-1.644,1.427-3.25,2.887-4.817,4.379c2.833-5.748,3.739-12.137-0.937-10.411c-5.77,2.203-5.47,12.633-4.86,16.263
				c-2.279,2.44-4.463,4.955-6.549,7.539c1.196-3.05,2.337-6.91,2.132-10.859c-0.247-8.462-6.188-6.13-8.184,2.979
				c-1.332,6.58,1.041,10.864,2.341,12.691c-2.46,3.339-4.765,6.785-6.912,10.331c0.697-4.875,1.395-11.934-0.473-18.555
				c-2.956-11.585-10.202-6.47-9.684,6.73c0.542,9.322,5.058,14.354,7.399,16.487c-0.127,0.131-0.194,0.205-0.194,0.205
				c0,0,0.039,0.021,0.109,0.057c-1.901,3.456-3.657,6.999-5.263,10.624c-0.802-4.322-2.591-14.666-8.402-22.293
				c-7.489-10.054-12.349-2.005-6.595,10.491c4.674,9.783,11.707,12.643,14.238,13.546c-2.212,5.183-4.121,10.527-5.716,16.016
				h1.888C586.541,293.673,588.364,288.6,590.465,283.677z"/>
			<g>
				<g>
					<g>
						<path style="fill:#3E8F7D;" d="M224.394,233.124c1.451-6.588,3.019-10.964,6.145-10.526c5.457,0.764,4.336,9.66,4.305,14.636
							c-0.02,3.208-0.79,8.599-2.497,12.337h12.201c4.752-22.567-15.827-41.482-28.598-55.635
							c-15.678-17.375-46.789-27.249-46.789-27.249c3.878,19.097,1.804,54.106,14.151,79.474c0.576,1.183,1.158,2.318,1.746,3.41
							h39.524C223.304,245.481,223.103,238.987,224.394,233.124z M179.343,192.49c1.142-1.514,5.693,0.119,8.108,2.338
							c2.416,2.219,4.943,5.524,5.041,8.51c0.098,2.986-7.886-1.552-11.315-4.713C177.749,195.465,178.359,193.796,179.343,192.49z
							 M209.674,242.408c-3.332,4.44-11.263,0.278-15.883-2.158c-4.619-2.436-13.09-10.136-12.077-14.524
							c1.013-4.388,12.927-0.549,21.108,6.17C208.262,236.365,211.583,239.865,209.674,242.408z M210.725,217.92
							c-2.96,3.438-7.107-9.002-7.643-15.702c-0.536-6.701,1.852-8.009,4.28-8.565c2.816-0.645,6.16,5.375,6.545,10.087
							C214.293,208.451,213.685,214.482,210.725,217.92z"/>
						<path style="fill:#276B5B;" d="M204.86,215.524c-8.935-14.963-27.252-42.479-35.638-48.517c0,0,17.12,21.113,26.703,37.306
							c10.335,17.465,18.24,33.172,23.77,45.258h2.962C217.64,238.608,211.327,226.354,204.86,215.524z"/>
					</g>
				</g>
			</g>
			<g>
				<path style="fill:#3E8F7D;" d="M652.988,316.178c0,0,47.977,9.948,43.695-11.84S652.988,316.178,652.988,316.178z"/>
				<g>
					<path style="fill:#276B5B;" d="M635.854,321.923c0.463-0.846,5.536-3.059,5.588-3.081c2.718-1.176,6.869-2.717,11.279-3.421
						c14.202-8.145,30.133-8.337,30.293-8.338c0.436-0.003,0.791,0.348,0.794,0.784c0.003,0.436-0.348,0.791-0.784,0.794
						c-0.156,0.001-15.779,0.198-29.641,8.2c-0.084,0.049-0.177,0.081-0.273,0.096c-7.758,1.205-15.243,5.279-15.959,5.854
						c-0.237,0.281-0.647,0.366-0.982,0.183c-0.176-0.096-0.301-0.25-0.364-0.425C635.73,322.364,635.741,322.13,635.854,321.923z
						 M637.238,322.683c0-0.001,0.001-0.001,0.001-0.002C637.238,322.682,637.238,322.683,637.238,322.683z"/>
				</g>
				<path style="fill:#3E8F7D;" d="M668.273,286.219c0,0,48.804,4.352,42.039-16.797S668.273,286.219,668.273,286.219z"/>
				<g>
					<path style="fill:#276B5B;" d="M624.966,348.202c0.081,0.227,0.265,0.413,0.513,0.489c0.417,0.127,0.858-0.108,0.985-0.525
						c3.78-12.409,15.464-43.223,42.251-61.292c0.01-0.007,0.02-0.014,0.03-0.021c12.847-9.548,28.343-11.542,28.498-11.561
						c0.433-0.053,0.74-0.447,0.687-0.879c-0.053-0.433-0.446-0.74-0.879-0.688c-0.159,0.019-16.044,2.055-29.233,11.85
						c-27.195,18.353-39.035,49.562-42.863,62.13C624.903,347.875,624.911,348.047,624.966,348.202z"/>
				</g>
				<path style="fill:#3E8F7D;" d="M662.167,278.668c0,0,31.65-24.296,15.936-33.243
					C662.39,236.479,662.167,278.668,662.167,278.668z"/>
				<g>
					<path style="fill:#276B5B;" d="M659.275,292.823c0.14,0.39,0.561,0.608,0.963,0.49c0.419-0.122,0.659-0.56,0.537-0.979
						c-0.634-2.174,1.34-10.453,2.153-13.46c0.005-0.019,0.01-0.039,0.013-0.059c2.433-12.78,10.593-22.476,10.675-22.572
						c0.282-0.332,0.242-0.83-0.089-1.113c-0.332-0.283-0.83-0.243-1.113,0.089c-0.346,0.407-8.502,10.099-11.018,23.271
						c-0.346,1.282-3.002,11.319-2.138,14.285C659.265,292.792,659.27,292.808,659.275,292.823z"/>
				</g>
				<path style="fill:#3E8F7D;" d="M634.093,307.38c0,0,30.012-41.364,7.458-46.624C618.996,255.496,634.093,307.38,634.093,307.38z
					"/>
				<g>
					<path style="fill:#276B5B;" d="M631.575,330.951c0.111,0.31,0.411,0.529,0.76,0.522c0.436-0.009,0.782-0.37,0.773-0.805
						c-0.003-0.157-0.303-15.749,1.746-23.074c0.027-0.095,0.035-0.194,0.025-0.292c-1.673-16.62,4.836-31.568,4.902-31.717
						c0.176-0.399-0.004-0.865-0.402-1.041c-0.399-0.177-0.865,0.003-1.041,0.402c-0.068,0.152-6.707,15.378-5.044,32.367
						c-2.069,7.6-1.778,22.743-1.764,23.388C631.531,330.788,631.547,330.872,631.575,330.951z"/>
				</g>
			</g>
			<g>
				<g>
					<g>
						<g>
							<g>
								<path style="fill:#3E8F7D;" d="M610.76,435.883c4.416-4.61,11.908-9.494,13.759-8.999c1.852,0.495-0.248,0.926,2.214,1.759
									c1.296,0.439-2.453,5.595-4.765,11.538h42.027c-2.257-0.514-3.962-1.146-4.379-1.814c-1.266-2.031,1.013-4.488,6.105-2.994
									c5.092,1.494,12.923,0.878,18.188,1.843c5.265,0.965,8.915-4.095,11.213-9.2c2.298-5.105,6.963-14.479,7.143-16.24
									c0,0-5.865,5.785-11.847,6.988c-5.982,1.202-16.729,1.889-19.529,1.666c-2.8-0.223-17.135,1.664-16.351-4.546
									c0.785-6.21,10.002-0.303,18.649-0.559c8.647-0.256,26.549-2.824,28.505-12.106c1.956-9.281,0.886-18.379,0.862-20.253
									c0,0-4.734,8.539-12.046,11.661c-7.312,3.123-18.733,7.423-23.228,5.463c-4.495-1.96-7.569-5.525-1.249-7.337
									c6.32-1.812,18.802-6.588,23.157-8.691c4.356-2.104,11.03-12.225,10.011-15.182c-1.019-2.957-2.13-8.623-2.99-10.428
									c0,0-4.824,8.223-8.795,11.072c-3.971,2.848-15.189,7.261-15.306,2.678c-0.117-4.583,9.295-8.137,12.499-10.081
									c3.204-1.945,7.465-9.151,5.995-11.295c-1.469-2.144-5.379-5.64-7.032-10.808c-1.653-5.169-1.44-10.828-2.95-11.7
									c0,0-6.353,11.46-17.835,9.879c-11.482-1.581-15.238,2.317-15.238,2.317s-2.261,9.112-0.322,18.56
									c1.939,9.447,1.332,12.699-1.478,12.736c-2.811,0.036-10.047-13.52-3.709-32.145c0,0-7.174,6.47-9.314,6.733
									c-2.139,0.263-8.359,2.853-6.882,12.414c1.477,9.561,4.518,19.18,6.834,25.069c2.317,5.889,1.189,10.082-2.464,8.04
									c-3.652-2.042-13.799-24.012-13.772-31.971c0.027-7.959,0.244-11.228,0.244-11.228s-6.921,8.889-8.73,9.995
									c-1.809,1.106-7.308,3.833-5.041,11.97c2.267,8.137,11.991,18.643,14.115,23.442c2.124,4.799,3.82,11.089-2.531,8.881
									c-6.351-2.209-15.988-26.762-14.134-34.668c0,0-4.495,5.704-8.628,7.407c-4.133,1.703-10.017,11.597-9.47,17.083
									s1.807,12.563,7.365,17.638c5.559,5.075,17.111,8.688,15.759,11.128c-1.352,2.44-10.425,6.58-25.1-4.346
									c0,0-1.159,14.746,10.088,22.931h16.498C608.223,438.806,609.454,437.246,610.76,435.883z M652.026,394.822
									c2.306-1.333,4.478-0.574,5.702,0.109c0.882,0.492,1.521,1.368,1.584,2.375c0.187,2.966-4.185,4.71-7.247,3.917
									C648.464,400.29,648.506,396.858,652.026,394.822z M643.531,427.589c0.568,3.77-5.235,3.211-8.738-0.06
									s-0.186-5.419,4.183-4.06C643.345,424.828,643.531,427.589,643.531,427.589z M634.357,395.183
									c1.092,0.008,1.914,0.429,2.514,0.954c0.92,0.804,1.427,1.979,1.481,3.199c0.08,1.84-0.102,5.131-2.531,4.366
									C632.488,402.652,631.445,395.163,634.357,395.183z"/>
							</g>
						</g>
					</g>
					<path style="fill:#276B5B;" d="M629.942,425.907c1.393-1.807,3.048-4.419,4.973-7.566c36.038,17.595,54.1,9.545,54.1,9.545
						c-22.65,4.381-47.054-7.794-53.146-11.111c1.363-2.245,2.85-4.713,4.464-7.324c1.201-1.943,2.412-3.949,3.597-5.942
						c39.237,11.59,52.137-3.807,52.137-3.807c-18.316,12.806-44.803,4.071-50.935,1.774c4.239-7.201,7.955-13.866,9.36-16.233
						c0.327-0.551,0.726-1.218,1.178-1.978c31.078,6.271,41.263-18.875,40.94-18.345c-13.065,21.379-34.745,18.207-40.153,17.023
						c2.871-4.839,7.299-12.442,10.975-19.919c11.411-3.821,19.189-13.606,19.189-13.606c-9.21,8.518-15.686,11.189-18.409,12
						c3.09-6.41,6.611-13.596,7.53-15.838c2.533-6.176,4.824-14.868,4.824-14.868s-2.762,8.175-7.618,18.302
						c-0.586,1.222-1.197,2.459-1.823,3.703c-1.993-3.778-1.277-12.598-1.277-12.598c-1.585,8.016-0.308,12.907,0.276,14.565
						c-2.971,5.772-6.225,11.574-9.084,16.484c-5.493-10.747-3-24.851-3-24.851c-3.006,13.253,0.854,24.141,1.9,26.73
						c-1.551,2.635-2.948,4.947-4.066,6.768c-2.086,3.395-4.757,7.738-7.668,12.38c-15.997-14.992-15.217-43.967-15.247-43.423
						c-1.5,27.148,10.928,42.416,13.863,45.623c-3.451,5.469-7.153,11.203-10.568,16.193
						c-26.104-24.681-26.584-50.009-26.584-50.009c-0.099,25.502,21.191,47.747,25.328,51.828c-2.651,3.805-5.079,7.06-7.016,9.26
						c-28.206-14.056-37.247-37-37.247-37c5.702,20.474,29.791,35.117,35.824,38.51c-0.605,0.58-1.251,1.269-1.921,2.033
						c-1.343-0.232-4.779-0.499-11.741,0.747c-9.515,1.702-13.278,8.13-22.705,3.56c0,0,5.033,4.584,13.853,0.902
						c8.926-3.727,16.494-3.827,19.318-3.701c3.169-0.412,4.071,3.784,5.761,1.362c4.635,5.618,9.267,9.876,13.715,13.099h3.264
						C638.179,434.811,632.315,428.598,629.942,425.907z"/>
				</g>
			</g>
		</g>
		<g>
			<g>
				<rect x="482.961" y="82.192" style="fill:#9EB5E8;" width="0.869" height="25.383"/>
				<rect x="488.517" y="88.67" style="fill:#9EB5E8;" width="0.871" height="18.906"/>
				<path style="fill:#9EB5E8;" d="M496.817,108.011c-1.751,0-3.179-1.427-3.179-3.188c0-1.751,1.427-3.179,3.179-3.179
					c1.75,0,3.178,1.427,3.178,3.179C499.994,106.584,498.567,108.011,496.817,108.011z M496.817,102.515
					c-1.276,0-2.308,1.032-2.308,2.308c0,1.275,1.032,2.317,2.308,2.317c1.275,0,2.307-1.043,2.307-2.317
					C499.124,103.547,498.091,102.515,496.817,102.515z"/>
			</g>
			<g>
				<rect x="651.14" y="178.928" style="fill:#9EB5E8;" width="0.87" height="34.016"/>
				<rect x="656.706" y="185.406" style="fill:#9EB5E8;" width="0.871" height="27.539"/>
				<path style="fill:#9EB5E8;" d="M641.849,213.38c-1.751,0-3.179-1.427-3.179-3.178c0-1.762,1.427-3.189,3.179-3.189
					c1.75,0,3.178,1.427,3.178,3.189C645.026,211.953,643.599,213.38,641.849,213.38z M641.849,207.884
					c-1.276,0-2.308,1.043-2.308,2.318c0,1.275,1.032,2.307,2.308,2.307c1.275,0,2.307-1.032,2.307-2.307
					C644.156,208.927,643.123,207.884,641.849,207.884z"/>
			</g>
			<g>
				<rect x="143.928" y="180.941" style="fill:#9EB5E8;" width="0.86" height="18.901"/>
				<path style="fill:#9EB5E8;" d="M156.58,196.202h-0.648v-2.161h0.648V196.202z M156.58,191.02h-0.648v-2.161h0.648V191.02z
					 M156.58,185.839h-0.648v-2.161h0.648V185.839z"/>
				<rect x="149.89" y="150.941" style="fill:#9EB5E8;" width="0.86" height="60.533"/>
			</g>
			<path style="fill:#9EB5E8;" d="M501.344,60.057c-1.75,0-3.178-1.422-3.178-3.172c0-1.751,1.427-3.179,3.178-3.179
				c1.751,0,3.179,1.427,3.179,3.179C504.523,58.635,503.096,60.057,501.344,60.057z M501.344,54.566
				c-1.275,0-2.307,1.043-2.307,2.318c0,1.275,1.032,2.312,2.307,2.312c1.276,0,2.308-1.037,2.308-2.312
				C503.652,55.609,502.62,54.566,501.344,54.566z"/>
			<g>
				<path style="fill:#9EB5E8;" d="M414.678,189.5c-1.761,0-3.188-1.426-3.188-3.178c0-1.75,1.427-3.178,3.188-3.178
					c1.75,0,3.178,1.427,3.178,3.178C417.856,188.074,416.429,189.5,414.678,189.5z M414.678,184.016
					c-1.275,0-2.317,1.032-2.317,2.307c0,1.276,1.043,2.308,2.317,2.308c1.276,0,2.308-1.032,2.308-2.308
					C416.986,185.048,415.954,184.016,414.678,184.016z"/>
				<g>
					<line style="fill:#9EB5E8;" x1="414.675" y1="82.83" x2="414.675" y2="178.983"/>
					<path style="fill:#9EB5E8;" d="M415.003,178.257h-0.648v-2.156h0.648V178.257z M415.003,173.075h-0.648v-2.156h0.648V173.075z
						 M415.003,167.893h-0.648v-2.156h0.648V167.893z M415.003,162.711h-0.648v-2.156h0.648V162.711z M415.003,157.529h-0.648
						v-2.156h0.648V157.529z M415.003,152.347h-0.648v-2.156h0.648V152.347z M415.003,147.165h-0.648v-2.156h0.648V147.165z
						 M415.003,141.983h-0.648v-2.156h0.648V141.983z M415.003,136.801h-0.648v-2.156h0.648V136.801z M415.003,131.619h-0.648
						v-2.156h0.648V131.619z M415.003,126.437h-0.648v-2.156h0.648V126.437z M415.003,121.255h-0.648V119.1h0.648V121.255z
						 M415.003,116.073h-0.648v-2.156h0.648V116.073z M415.003,110.891h-0.648v-2.156h0.648V110.891z M415.003,105.709h-0.648
						v-2.156h0.648V105.709z M415.003,100.527h-0.648v-2.156h0.648V100.527z M415.003,95.345h-0.648V93.19h0.648V95.345z
						 M415.003,90.164h-0.648v-2.156h0.648V90.164z M415.003,84.982h-0.648v-2.156h0.648V84.982z"/>
				</g>
			</g>
			<g>
				<path style="fill:#9EB5E8;" d="M517.156,134.407c-1.752,0-3.173-1.427-3.173-3.178c0-1.751,1.422-3.179,3.173-3.179
					c1.75,0,3.178,1.427,3.178,3.179C520.333,132.98,518.906,134.407,517.156,134.407z M517.156,128.911
					c-1.276,0-2.313,1.043-2.313,2.318c0,1.275,1.037,2.317,2.313,2.317c1.275,0,2.317-1.043,2.317-2.317
					C519.473,129.953,518.43,128.911,517.156,128.911z"/>
				<g>
					<line style="fill:#9EB5E8;" x1="517.157" y1="79.555" x2="517.157" y2="123.888"/>
					<path style="fill:#9EB5E8;" d="M517.479,123.172h-0.648v-2.161h0.648V123.172z M517.479,117.99h-0.648v-2.161h0.648V117.99z
						 M517.479,112.808h-0.648v-2.161h0.648V112.808z M517.479,107.626h-0.648v-2.161h0.648V107.626z M517.479,102.444h-0.648
						v-2.161h0.648V102.444z M517.479,97.263h-0.648v-2.161h0.648V97.263z M517.479,92.081h-0.648V89.92h0.648V92.081z
						 M517.479,86.899h-0.648v-2.161h0.648V86.899z M517.479,81.717h-0.648v-2.161h0.648V81.717z"/>
				</g>
			</g>
			<g>
				<path style="fill:#9EB5E8;" d="M463.676,147.068c-1.751,0-3.173-1.427-3.173-3.178c0-1.751,1.422-3.179,3.173-3.179
					c1.75,0,3.178,1.427,3.178,3.179C466.854,145.641,465.427,147.068,463.676,147.068z M463.676,141.582
					c-1.276,0-2.312,1.032-2.312,2.308c0,1.275,1.036,2.307,2.312,2.307c1.275,0,2.317-1.032,2.317-2.307
					C465.993,142.614,464.951,141.582,463.676,141.582z"/>
				<path style="fill:#9EB5E8;" d="M463.999,128.202h-0.648v-2.156h0.648V128.202z M463.999,123.02h-0.648v-2.156h0.648V123.02z
					 M463.999,117.838h-0.648v-2.156h0.648V117.838z M463.999,112.657h-0.648v-2.156h0.648V112.657z M463.999,107.475h-0.648v-2.156
					h0.648V107.475z M463.999,102.293h-0.648v-2.156h0.648V102.293z M463.999,97.111h-0.648v-2.156h0.648V97.111z M463.999,91.929
					h-0.648v-2.156h0.648V91.929z M463.999,86.747h-0.648v-2.156h0.648V86.747z M463.999,81.565h-0.648v-2.156h0.648V81.565z
					 M463.999,76.383h-0.648v-2.156h0.648V76.383z M463.999,71.201h-0.648v-2.156h0.648V71.201z M463.999,66.019h-0.648v-2.156
					h0.648V66.019z M463.999,60.837h-0.648v-2.156h0.648V60.837z M463.999,55.655h-0.648v-2.156h0.648V55.655z"/>
			</g>
			<g>
				<path style="fill:#9EB5E8;" d="M440.902,42.513c-1.761,0-3.188-1.427-3.188-3.178c0-1.751,1.427-3.173,3.188-3.173
					c1.751,0,3.179,1.422,3.179,3.173C444.08,41.086,442.653,42.513,440.902,42.513z M440.902,37.022
					c-1.275,0-2.317,1.037-2.317,2.313c0,1.275,1.043,2.317,2.317,2.317c1.276,0,2.308-1.043,2.308-2.317
					C443.21,38.06,442.177,37.022,440.902,37.022z"/>
				<path style="fill:#9EB5E8;" d="M441.226,83.356h-0.648v-2.161h0.648V83.356z M441.226,78.174h-0.648v-2.161h0.648V78.174z
					 M441.226,72.992h-0.648v-2.161h0.648V72.992z M441.226,67.81h-0.648V65.65h0.648V67.81z M441.226,62.628h-0.648v-2.161h0.648
					V62.628z M441.226,57.446h-0.648v-2.161h0.648V57.446z M441.226,52.265h-0.648v-2.161h0.648V52.265z M441.226,47.083h-0.648
					v-2.161h0.648V47.083z"/>
			</g>
		</g>
		<g>
			<g>
				<path style="fill:#9CB6EF;" d="M646.586,280.209H552.09c-0.849,0-1.537,0.688-1.537,1.537v161.788
					c0,0.849,0.688,1.537,1.537,1.537h94.496c0.849,0,1.537-0.688,1.537-1.537V281.746
					C648.124,280.897,647.435,280.209,646.586,280.209z"/>
				<rect x="557.145" y="286.362" style="fill:#7A89DD;" width="84.386" height="152.556"/>
				<g>
					<rect x="562.317" y="315.863" style="fill:#9CB6EF;" width="75.595" height="17.141"/>
					<rect x="561.54" y="315.086" style="fill:#9CB6EF;" width="75.595" height="17.141"/>
					<g>
						<g>
							<path style="fill:#F9CF70;" d="M570.135,321.117c-1.402,0-2.539,1.137-2.539,2.539c0,1.402,1.137,2.539,2.539,2.539
								s2.539-1.137,2.539-2.539C572.675,322.254,571.538,321.117,570.135,321.117z"/>
							<circle style="fill:#F9CF70;" cx="580.244" cy="323.657" r="2.539"/>
						</g>
						<g>
							<g>
								<path style="fill:#7A89DD;" d="M630.494,321.313h-40.337c-0.324,0-0.586,0.262-0.586,0.586s0.262,0.586,0.586,0.586h40.337
									c0.324,0,0.586-0.262,0.586-0.586S630.818,321.313,630.494,321.313z"/>
							</g>
							<g>
								<path style="fill:#7A89DD;" d="M630.494,324.829h-40.337c-0.324,0-0.586,0.262-0.586,0.586c0,0.324,0.262,0.586,0.586,0.586
									h40.337c0.324,0,0.586-0.262,0.586-0.586C631.08,325.091,630.818,324.829,630.494,324.829z"/>
							</g>
						</g>
					</g>
				</g>
				<g>
					<rect x="562.317" y="292.163" style="fill:#9CB6EF;" width="75.595" height="17.141"/>
					<rect x="561.54" y="291.387" style="fill:#9CB6EF;" width="75.595" height="17.141"/>
					<g>
						<g>
							<path style="fill:#F9CF70;" d="M570.135,297.418c-1.402,0-2.539,1.137-2.539,2.539c0,1.402,1.137,2.539,2.539,2.539
								s2.539-1.137,2.539-2.539C572.675,298.555,571.538,297.418,570.135,297.418z"/>
							<path style="fill:#F9CF70;" d="M580.244,297.418c-1.402,0-2.539,1.137-2.539,2.539c0,1.402,1.137,2.539,2.539,2.539
								s2.539-1.137,2.539-2.539C582.783,298.555,581.646,297.418,580.244,297.418z"/>
						</g>
						<g>
							<g>
								<path style="fill:#7A89DD;" d="M630.494,297.614h-40.337c-0.324,0-0.586,0.262-0.586,0.586c0,0.324,0.262,0.586,0.586,0.586
									h40.337c0.324,0,0.586-0.262,0.586-0.586C631.08,297.876,630.818,297.614,630.494,297.614z"/>
							</g>
							<g>
								<path style="fill:#7A89DD;" d="M630.494,301.13h-40.337c-0.324,0-0.586,0.262-0.586,0.586c0,0.324,0.262,0.586,0.586,0.586
									h40.337c0.324,0,0.586-0.262,0.586-0.586C631.08,301.392,630.818,301.13,630.494,301.13z"/>
							</g>
						</g>
					</g>
				</g>
				<g>
					<rect x="562.317" y="339.562" style="fill:#9CB6EF;" width="75.595" height="17.141"/>
					<rect x="561.54" y="338.785" style="fill:#9CB6EF;" width="75.595" height="17.141"/>
					<g>
						<g>
							<g>
								<path style="fill:#F9CF70;" d="M570.135,344.357c-1.402,0-2.539,1.137-2.539,2.539c0,1.402,1.137,2.539,2.539,2.539
									s2.539-1.137,2.539-2.539C572.675,345.494,571.538,344.357,570.135,344.357z"/>
							</g>
							<g>
								<path style="fill:#F9CF70;" d="M580.244,344.357c-1.402,0-2.539,1.137-2.539,2.539c0,1.402,1.137,2.539,2.539,2.539
									s2.539-1.137,2.539-2.539C582.783,345.494,581.646,344.357,580.244,344.357z"/>
							</g>
						</g>
						<g>
							<path style="fill:#7A89DD;" d="M630.494,344.552h-40.337c-0.324,0-0.586,0.262-0.586,0.586c0,0.324,0.262,0.586,0.586,0.586
								h40.337c0.324,0,0.586-0.262,0.586-0.586C631.08,344.814,630.818,344.552,630.494,344.552z"/>
							<path style="fill:#7A89DD;" d="M630.494,348.068h-40.337c-0.324,0-0.586,0.262-0.586,0.586c0,0.324,0.262,0.586,0.586,0.586
								h40.337c0.324,0,0.586-0.262,0.586-0.586C631.08,348.33,630.818,348.068,630.494,348.068z"/>
						</g>
					</g>
				</g>
				<g>
					<rect x="562.317" y="363.261" style="fill:#9CB6EF;" width="75.595" height="17.141"/>
					<rect x="561.54" y="362.485" style="fill:#9CB6EF;" width="75.595" height="17.141"/>
					<g>
						<g>
							<g>
								<path style="fill:#F9CF70;" d="M570.135,368.475c-1.402,0-2.539,1.137-2.539,2.539c0,1.403,1.137,2.539,2.539,2.539
									s2.539-1.137,2.539-2.539C572.675,369.612,571.538,368.475,570.135,368.475z"/>
							</g>
							<g>
								<circle style="fill:#F9CF70;" cx="580.244" cy="371.014" r="2.539"/>
							</g>
						</g>
						<g>
							<path style="fill:#7A89DD;" d="M630.494,368.67h-40.337c-0.324,0-0.586,0.262-0.586,0.586c0,0.324,0.262,0.586,0.586,0.586
								h40.337c0.324,0,0.586-0.262,0.586-0.586C631.08,368.933,630.818,368.67,630.494,368.67z"/>
							<path style="fill:#7A89DD;" d="M630.494,372.186h-40.337c-0.324,0-0.586,0.262-0.586,0.586c0,0.324,0.262,0.586,0.586,0.586
								h40.337c0.324,0,0.586-0.262,0.586-0.586C631.08,372.449,630.818,372.186,630.494,372.186z"/>
						</g>
					</g>
				</g>
				<rect x="561.54" y="385.738" style="fill:#9CB6EF;" width="75.595" height="47.906"/>
				<g>
					<g>
						<rect x="631.584" y="413.269" style="fill:#F9CF70;" width="3.304" height="1.123"/>
						<rect x="631.584" y="410.523" style="fill:#F9CF70;" width="3.304" height="1.123"/>
						<rect x="631.584" y="407.777" style="fill:#F9CF70;" width="3.304" height="1.123"/>
						<rect x="631.584" y="405.031" style="fill:#F9CF70;" width="3.304" height="1.123"/>
						<rect x="631.584" y="399.539" style="fill:#F9CF70;" width="3.304" height="1.123"/>
						<rect x="631.584" y="402.285" style="fill:#F9CF70;" width="3.304" height="1.123"/>
						<rect x="631.584" y="394.047" style="fill:#F9CF70;" width="3.304" height="1.123"/>
						<rect x="631.584" y="396.793" style="fill:#F9CF70;" width="3.304" height="1.123"/>
						<rect x="631.584" y="388.555" style="fill:#9CB6EF;" width="3.304" height="1.123"/>
						<rect x="631.584" y="391.301" style="fill:#9CB6EF;" width="3.304" height="1.123"/>
					</g>
					<rect x="631.584" y="419.811" style="fill:#9CB6EF;" width="3.304" height="10.97"/>
				</g>
				<g>
					<path style="fill:#9CB6EF;" d="M625.5,395.334c-1.402,0-2.539,1.137-2.539,2.539c0,1.402,1.137,2.539,2.539,2.539
						s2.539-1.137,2.539-2.539C628.039,396.471,626.902,395.334,625.5,395.334z"/>
					<path style="fill:#F9CF70;" d="M625.5,407.152c-1.402,0-2.539,1.137-2.539,2.539c0,1.402,1.137,2.539,2.539,2.539
						s2.539-1.137,2.539-2.539C628.039,408.288,626.902,407.152,625.5,407.152z"/>
					<path style="fill:#9CB6EF;" d="M625.5,418.969c-1.402,0-2.539,1.137-2.539,2.539c0,1.402,1.137,2.539,2.539,2.539
						s2.539-1.137,2.539-2.539C628.039,420.106,626.902,418.969,625.5,418.969z"/>
				</g>
				<g>
					<g>
						<rect x="564.201" y="388.244" style="fill:#7A89DD;" width="2.263" height="42.894"/>
					</g>
					<g>
						<rect x="568.619" y="388.244" style="fill:#7A89DD;" width="2.263" height="42.894"/>
					</g>
					<g>
						<rect x="573.036" y="388.244" style="fill:#7A89DD;" width="2.263" height="42.894"/>
					</g>
					<g>
						<rect x="577.453" y="388.244" style="fill:#7A89DD;" width="2.263" height="42.894"/>
					</g>
					<g>
						<rect x="581.871" y="388.244" style="fill:#7A89DD;" width="2.263" height="42.894"/>
					</g>
					<g>
						<rect x="586.288" y="388.244" style="fill:#7A89DD;" width="2.263" height="42.894"/>
					</g>
					<g>
						<rect x="590.706" y="388.244" style="fill:#7A89DD;" width="2.263" height="42.894"/>
					</g>
					<g>
						<rect x="595.123" y="388.244" style="fill:#7A89DD;" width="2.263" height="42.894"/>
					</g>
					<g>
						<rect x="599.541" y="388.244" style="fill:#7A89DD;" width="2.263" height="42.894"/>
					</g>
					<g>
						<rect x="603.958" y="388.244" style="fill:#7A89DD;" width="2.263" height="42.894"/>
					</g>
					<g>
						<rect x="608.375" y="388.244" style="fill:#7A89DD;" width="2.263" height="42.894"/>
					</g>
					<g>
						<rect x="612.793" y="388.244" style="fill:#7A89DD;" width="2.263" height="42.894"/>
					</g>
					<g>
						<rect x="617.21" y="388.244" style="fill:#7A89DD;" width="2.263" height="42.894"/>
					</g>
				</g>
			</g>
			<g>
				<g>
					
						<rect x="109.337" y="390.943" transform="matrix(-1 -4.489843e-11 4.489843e-11 -1 360.0258 832.2477)" style="fill:#7A89DD;" width="141.351" height="50.361"/>
					<g>
						
							<rect x="109.337" y="390.943" transform="matrix(-1 -4.489843e-11 4.489843e-11 -1 360.0258 788.0768)" style="fill:#9CB6EF;" width="141.351" height="6.19"/>
						
							<rect x="158.584" y="411.835" transform="matrix(-1 -4.489754e-11 4.489754e-11 -1 397.8329 834.8892)" style="fill:#9CB6EF;" width="80.664" height="11.219"/>
						
							<ellipse transform="matrix(0.6594 -0.7518 0.7518 0.6594 -264.1453 251.0824)" style="fill:#9CB6EF;" cx="145.027" cy="417.058" rx="5.997" ry="5.997"/>
						
							<ellipse transform="matrix(0.4045 -0.9145 0.9145 0.4045 -304.8409 365.9376)" style="fill:#FFFFFF;" cx="128.585" cy="417.058" rx="5.997" ry="5.997"/>
					</g>
				</g>
				<g>
					
						<rect x="109.337" y="340.582" transform="matrix(-1 -4.489843e-11 4.489843e-11 -1 360.0258 731.5258)" style="fill:#7A89DD;" width="141.351" height="50.361"/>
					<g>
						
							<rect x="109.337" y="340.582" transform="matrix(-1 -4.489843e-11 4.489843e-11 -1 360.0258 687.355)" style="fill:#9CB6EF;" width="141.351" height="6.19"/>
						
							<rect x="158.584" y="361.474" transform="matrix(-1 -4.489754e-11 4.489754e-11 -1 397.8329 734.1674)" style="fill:#9CB6EF;" width="80.664" height="11.22"/>
						
							<ellipse transform="matrix(0.976 -0.2176 0.2176 0.976 -76.3104 40.3395)" style="fill:#9CB6EF;" cx="145.027" cy="366.697" rx="5.997" ry="5.997"/>
						
							<ellipse transform="matrix(0.9863 -0.1648 0.1648 0.9863 -58.6695 26.2025)" style="fill:#FFFFFF;" cx="128.585" cy="366.697" rx="5.997" ry="5.997"/>
					</g>
				</g>
				<g>
					
						<rect x="109.337" y="290.222" transform="matrix(-1 -4.489843e-11 4.489843e-11 -1 360.0258 630.804)" style="fill:#7A89DD;" width="141.351" height="50.361"/>
					<g>
						
							<rect x="109.337" y="290.222" transform="matrix(-1 -4.489843e-11 4.489843e-11 -1 360.0258 586.6332)" style="fill:#9CB6EF;" width="141.351" height="6.19"/>
						
							<rect x="158.584" y="311.113" transform="matrix(-1 -4.489754e-11 4.489754e-11 -1 397.8329 633.4456)" style="fill:#9CB6EF;" width="80.664" height="11.219"/>
						<path style="fill:#9CB6EF;" d="M139.031,316.336c0,3.312,2.685,5.997,5.997,5.997c3.312,0,5.997-2.685,5.997-5.997
							c0-3.312-2.685-5.997-5.997-5.997C141.716,310.339,139.031,313.024,139.031,316.336z"/>
						<path style="fill:#FFFFFF;" d="M122.588,316.336c0,3.312,2.685,5.997,5.997,5.997c3.312,0,5.997-2.685,5.997-5.997
							c0-3.312-2.685-5.997-5.997-5.997C125.273,310.339,122.588,313.024,122.588,316.336z"/>
					</g>
				</g>
				<g>
					
						<rect x="109.337" y="239.861" transform="matrix(-1 -4.489221e-11 4.489221e-11 -1 360.0258 530.0822)" style="fill:#7A89DD;" width="141.351" height="50.361"/>
					<g>
						
							<rect x="109.337" y="239.861" transform="matrix(-1 -4.489221e-11 4.489221e-11 -1 360.0258 485.9113)" style="fill:#9CB6EF;" width="141.351" height="6.19"/>
						
							<rect x="158.584" y="260.752" transform="matrix(-1 -4.489754e-11 4.489754e-11 -1 397.8329 532.7237)" style="fill:#9CB6EF;" width="80.664" height="11.219"/>
						<circle style="fill:#9CB6EF;" cx="145.027" cy="265.975" r="5.997"/>
						<circle style="fill:#FFFFFF;" cx="128.585" cy="265.975" r="5.997"/>
					</g>
				</g>
				<rect x="206.041" y="266.035" style="fill:#FFFFFF;" width="27.607" height="0.655"/>
				<rect x="206.041" y="316.396" style="fill:#FFFFFF;" width="27.607" height="0.655"/>
				<rect x="206.041" y="366.756" style="fill:#FFFFFF;" width="27.607" height="0.655"/>
				<rect x="206.041" y="417.117" style="fill:#FFFFFF;" width="27.607" height="0.655"/>
			</g>
			<g>
				<path style="fill:#1C2684;" d="M558.12,205.334H255.552c-9.511,0-17.221,7.71-17.221,17.221V414.32
					c0,9.511,7.71,17.221,17.221,17.221H558.12c9.511,0,17.221-7.71,17.221-17.221V222.555
					C575.341,213.044,567.63,205.334,558.12,205.334z M560.741,411.105h-307.81V219.254h307.81V411.105z"/>
				<path style="fill:#20B8C4;" d="M422.099,317.203c0,4.89-2.906,8.855-6.491,8.855c-3.585,0-6.492-3.965-6.492-8.855
					s2.906-8.855,6.492-8.855C419.193,308.348,422.099,312.312,422.099,317.203z"/>
				<path style="fill:none;" d="M420.576,320.353c0-3.153-2.556-5.709-5.709-5.709c-3.153,0-5.71,2.556-5.71,5.709
					c0,2.449,1.545,4.532,3.711,5.343l-2.701,13.197c-0.147,0.716,0.315,1.404,0.94,1.404h3.759h0.001h3.774
					c0.628,0,1.092-0.689,0.944-1.404l-2.713-13.201C419.035,324.879,420.576,322.798,420.576,320.353z"/>
				<path style="fill:#BACDFF;" d="M616.312,422.46H407.039h-0.203H197.563c-0.87,0-1.583,0.712-1.583,1.583v8.151
					c1.391,6.388,16.648,9.221,26.123,10.139h184.733h0.203h184.733c9.475-0.918,24.732-3.751,26.123-10.139v-8.151
					C617.894,423.172,617.182,422.46,616.312,422.46z"/>
				<path style="fill:#9EB5E8;" d="M222.103,442.332h184.733h0.203h184.733c9.475-0.918,24.732-3.751,26.123-10.139v-0.652H195.98
					v0.652C197.371,438.581,212.628,441.414,222.103,442.332z"/>
				<path style="fill:#9EB5E8;" d="M455.867,422.46h-48.095h-0.047H359.63c-0.2,0-0.364,0.166-0.364,0.368v1.893
					c0.32,1.484,3.826,2.142,6.003,2.355h42.455h0.047h42.455c2.177-0.213,5.684-0.871,6.003-2.355v-1.893
					C456.231,422.626,456.067,422.46,455.867,422.46z"/>
				<g>
					<rect x="252.82" y="219.254" style="fill:#9EB5E8;" width="307.921" height="191.645"/>
				</g>
			</g>
			<g>
				<g>
					<g>
						<polygon style="fill:#7A89DD;" points="363.281,316.533 363.281,361.527 401.948,361.527 401.948,327.239 391.243,316.533 
													"/>
						<polygon style="fill:#E9F2FF;" points="364.865,314.95 364.865,359.944 403.532,359.944 403.532,325.655 392.826,314.95 
													"/>
						<polygon style="fill:#7A89DD;" points="392.826,325.655 403.532,325.655 392.826,314.95 						"/>
						<g>
							<rect x="370.706" y="327.273" style="fill:#7A89DD;" width="26.984" height="2.116"/>
							<rect x="370.706" y="332.561" style="fill:#7A89DD;" width="26.984" height="2.116"/>
							<rect x="370.706" y="337.85" style="fill:#7A89DD;" width="26.984" height="2.116"/>
							<rect x="370.706" y="343.139" style="fill:#7A89DD;" width="26.984" height="2.116"/>
							<rect x="376.575" y="348.428" style="fill:#7A89DD;" width="15.246" height="2.116"/>
						</g>
					</g>
				</g>
				<g>
					<g>
						<polygon style="fill:#7A89DD;" points="381.279,297.145 381.279,357.598 433.232,357.598 433.232,311.528 418.848,297.145 
													"/>
						<polygon style="fill:#E9F2FF;" points="383.407,295.017 383.407,355.471 435.359,355.471 435.359,309.401 420.976,295.017 
													"/>
						<polygon style="fill:#7A89DD;" points="420.976,309.401 435.359,309.401 420.976,295.017 						"/>
						<g>
							<rect x="391.255" y="311.574" style="fill:#7A89DD;" width="36.256" height="2.842"/>
							<rect x="391.255" y="318.68" style="fill:#7A89DD;" width="36.256" height="2.842"/>
							<rect x="391.255" y="325.786" style="fill:#7A89DD;" width="36.256" height="2.842"/>
							<rect x="391.255" y="332.892" style="fill:#7A89DD;" width="36.256" height="2.842"/>
							<rect x="399.141" y="339.998" style="fill:#7A89DD;" width="20.485" height="2.842"/>
						</g>
					</g>
				</g>
				<g>
					<g>
						<polygon style="fill:#7A89DD;" points="411.951,278.544 411.951,351.752 474.864,351.752 474.864,295.963 457.446,278.544 
													"/>
						<polygon style="fill:#E9F2FF;" points="414.527,275.968 414.527,349.176 477.441,349.176 477.441,293.386 460.022,275.968 
													"/>
						<polygon style="fill:#7A89DD;" points="460.022,293.386 477.441,293.386 460.022,275.968 						"/>
						<g>
							<rect x="424.032" y="296.018" style="fill:#7A89DD;" width="43.905" height="3.442"/>
							<rect x="424.032" y="304.623" style="fill:#7A89DD;" width="43.905" height="3.442"/>
							<rect x="424.032" y="313.229" style="fill:#7A89DD;" width="43.905" height="3.442"/>
							<rect x="424.032" y="321.834" style="fill:#7A89DD;" width="43.905" height="3.442"/>
							<rect x="433.581" y="330.439" style="fill:#7A89DD;" width="24.806" height="3.442"/>
						</g>
					</g>
				</g>
			</g>
		</g>
		<g>
			<g>
				<g>
					<path style="fill:#854E4B;" d="M290.028,141.043c2.289,0.898,5.415,1.902,7.828,1.338c0.221-0.052,0.439-0.109,0.657-0.17
						c-0.481,2.414-0.645,4.886-0.474,7.338c-1.663,1.495-3.835,2.248-6.037,2.835c-2.401-0.642-4.936-2.374-6.812-3.939
						c0.13-3.301,0.53-6.654,0.924-9.97C287.201,139.554,288.498,140.442,290.028,141.043z"/>
					<path style="fill:#542D36;" d="M297.856,142.38c-2.413,0.564-5.539-0.439-7.828-1.338c-1.53-0.6-2.827-1.489-3.915-2.568
						c-0.142,1.2-0.285,2.406-0.416,3.612c0.516,0.658,1.068,1.287,1.687,1.858c1.43,1.318,3.265,2.329,5.251,2.445
						c1.98,0.115,3.914-0.67,5.512-1.802c0.089-0.796,0.208-1.59,0.365-2.376C298.295,142.271,298.077,142.329,297.856,142.38z"/>
					<path style="fill:#854E4B;" d="M281.015,128.055c-0.683-0.749-1.62-1.227-2.741-0.808c-0.672,0.251-1.107,0.959-1.199,1.678
						c-0.092,0.718,0.109,1.443,0.392,2.105c0.345,0.804,0.847,1.583,1.607,2.001c0.761,0.418,1.772,0.936,2.346,0.272
						c0.79,4.191,3.07,8.506,7.447,10.224c2.072,0.813,4.901,1.721,7.084,1.211c2.408-0.563,4.639-1.69,5.981-3.737
						c1.221-1.862,2.42-4.986,2.885-6.92c1.086,0.454,1.894-0.267,2.811-0.86c0.873-0.564,1.436-1.537,1.687-2.553
						c0.256-1.032,0.077-2.362-0.886-2.778c-1.018-0.44-2.103,0.424-2.891,1.221c0.308-2.786-0.094-5.603-0.791-8.324
						c-2.788,0.454-5.744-0.667-7.674-2.635c-0.378,0.5-1.421,0.433-2.065,0.481c-1.964,0.146-3.974-0.348-5.619-1.381
						c-0.138,2.063-1.514,4.145-3.587,4.754c-0.293,1.398-0.984,2.93-1.631,4.216c-0.577,1.151-1.428,2.247-2.261,3.243
						C281.702,128.981,281.398,128.475,281.015,128.055z"/>
					<path style="fill:#302639;" d="M291.193,125.045c-0.691,0.122-1.382,0.245-2.072,0.367c-0.386,0.068-0.853,0.111-1.106-0.176
						c-1.001-1.138,1.317-1.92,2.117-2.135c0.663-0.178,1.342-0.396,1.787,0.227C292.382,123.978,292.033,124.896,291.193,125.045z"
						/>
					<path style="fill:#302639;" d="M289.327,129.498c0,0.657,0.559,1.19,1.249,1.19c0.69,0,1.249-0.533,1.249-1.19
						c0-0.657-0.559-1.19-1.249-1.19C289.886,128.308,289.327,128.841,289.327,129.498z"/>
					<ellipse style="fill:#302639;" cx="300.585" cy="130.688" rx="1.249" ry="1.19"/>
					<path style="fill:#302639;" d="M300.588,126.453c0.691,0.122,1.382,0.245,2.072,0.367c0.386,0.068,0.853,0.111,1.106-0.176
						c1.001-1.138-1.317-1.92-2.117-2.135c-0.663-0.178-1.342-0.396-1.787,0.226C299.399,125.387,299.748,126.305,300.588,126.453z"
						/>
					<path style="fill:#563038;" d="M295.638,134.446c-0.077,0-0.152-0.04-0.192-0.112c-0.06-0.106-0.023-0.241,0.083-0.301
						c0.264-0.149,0.666-0.195,1.091-0.243c0.414-0.047,0.98-0.111,1.075-0.292c0.11-0.209-0.074-0.469-0.347-0.812
						c-0.044-0.056-0.088-0.11-0.128-0.164c-0.931-1.233-0.281-3.287,0.193-4.787c0.074-0.233,0.143-0.451,0.199-0.647
						c0.034-0.117,0.156-0.184,0.273-0.151c0.117,0.034,0.184,0.156,0.151,0.273c-0.058,0.199-0.128,0.421-0.203,0.657
						c-0.445,1.408-1.056,3.337-0.262,4.388c0.038,0.051,0.08,0.103,0.122,0.155c0.287,0.362,0.644,0.811,0.392,1.292
						c-0.204,0.387-0.793,0.454-1.416,0.525c-0.363,0.041-0.738,0.083-0.923,0.189C295.712,134.437,295.675,134.446,295.638,134.446
						z"/>
					<path style="fill:#563038;" d="M280.627,131.246c-0.005,0-0.009,0-0.014,0c-0.122-0.008-0.214-0.112-0.206-0.234
						c0.061-0.961-0.651-1.939-1.621-2.226c-0.117-0.035-0.183-0.157-0.149-0.274c0.035-0.117,0.157-0.183,0.274-0.149
						c1.178,0.348,2.01,1.499,1.936,2.676C280.839,131.156,280.742,131.246,280.627,131.246z M305.913,131.646
						c0.246-0.823,0.92-1.53,1.757-1.846c0.114-0.043,0.171-0.17,0.128-0.284c-0.043-0.114-0.17-0.171-0.284-0.128
						c-0.963,0.364-1.739,1.181-2.024,2.132c-0.035,0.117,0.031,0.24,0.148,0.274c0.021,0.006,0.042,0.009,0.063,0.009
						C305.797,131.803,305.884,131.741,305.913,131.646z"/>
					<g>
						<path style="fill:#FEFDFF;" d="M290.576,134.795c2.095,1.162,4.609,1.623,7.007,1.284c-0.358,0.329-0.624,0.831-0.845,1.255
							c-0.276,0.528-0.454,1.138-0.934,1.511c-0.465,0.362-1.137,0.416-1.711,0.246c-0.574-0.169-1.064-0.533-1.489-0.938
							C291.673,137.267,290.929,136.002,290.576,134.795z"/>
						<path style="fill:#E7E6E8;" d="M290.576,134.795c0.07,0.237,0.158,0.477,0.256,0.715c1.318,0.893,2.859,1.486,4.462,1.696
							c0.487,0.064,0.985,0.091,1.477,0.064c0.215-0.41,0.472-0.879,0.812-1.191C295.185,136.418,292.67,135.957,290.576,134.795z"
							/>
					</g>
					<path style="fill:#302639;" d="M308.432,127.889c-1.018-0.44-2.103,0.424-2.891,1.221c0.308-2.786-0.095-5.603-0.791-8.325
						c-2.788,0.454-5.744-0.667-7.674-2.635c-0.378,0.5-1.421,0.433-2.065,0.481c-1.964,0.146-3.974-0.348-5.619-1.381
						c-0.138,2.063-1.514,4.145-3.587,4.754c-0.293,1.398-0.984,2.93-1.631,4.216c-0.577,1.151-1.428,2.247-2.261,3.243
						c-0.211-0.481-0.514-0.987-0.898-1.407c-0.683-0.749-1.62-1.227-2.741-0.808c-0.276,0.103-0.51,0.286-0.698,0.513
						c-0.562-1.761-0.475-3.728,0.287-5.412c-0.931-1.263-0.494-2.904,0.882-3.719c-0.478-1.18-0.852-2.458-0.603-3.701
						c0.249-1.243,1.464-2.499,2.79-2.575c0.163-1.334,0.955-2.587,2.117-3.348c1.162-0.761,2.818-0.708,4.184-0.376
						c0.415-1.43,2.278-2.008,3.768-1.576c0.886-1.787,2.966-2.971,5.039-2.868c2.072,0.103,4.261,2.044,4.947,3.91
						c1.435-0.52,3.099-0.436,4.469,0.224c1.37,0.661,2.734,2.401,3.144,3.81c1.796,0.281,3.158,1.457,3.48,3.151
						c0.181,0.953,0.104,1.895-0.22,2.813c-0.075,0.213-1.218,2.163-1.252,2.12c1.274,1.627,0.854,4.166-0.478,5.751
						c0.695,0.557,0.892,1.548,0.633,2.377c-0.225,0.718-0.741,1.323-1.356,1.797C309.492,129.221,309.236,128.236,308.432,127.889z
						"/>
				</g>
				<g>
					<g>
						<polygon style="fill:#854E4B;" points="301.069,409.392 302.698,429.218 312.564,431.276 317.828,423.026 316.66,407.967 
													"/>
						<path style="fill:#542D36;" d="M316.966,411.927c0,0-10.611,6.8-15.311,4.609l-0.586-7.144l15.591-1.425L316.966,411.927z"/>
					</g>
					<g>
						<g id="XMLID_32_">
							<g>
								<path style="fill:#EFEFEF;" d="M354.475,443.741l-46.214-0.071c-1.235,0.046-4.196,0.273-5.237-0.57
									c-1.013-0.822-1.45-2.685-1.587-4.931l51.19,0.737C353.642,440.251,354.287,441.93,354.475,443.741z"/>
								<path style="fill:#1C2684;" d="M352.628,438.906l-51.19-0.737c-0.273-4.47,0.645-10.457,0.556-12.798
									c1.034,1.021,2.31,1.49,3.672,2.013c6.972,2.685,9.64-2.838,11.69-8.259l0.247-0.147
									c7.186,12.259,22.738,10.944,33.171,18.135C351.483,437.603,352.104,438.21,352.628,438.906z"/>
							</g>
						</g>
					</g>
					<g>
						<path style="fill:#FFFFFF;" d="M318.664,429.487c-0.103-0.002-0.189-0.082-0.195-0.187c-0.11-1.971,1.13-4.962,3.405-5.355
							c0.109-0.016,0.211,0.055,0.229,0.162c0.019,0.108-0.055,0.209-0.162,0.229c-2.03,0.349-3.178,3.161-3.077,4.942
							c0.007,0.109-0.078,0.203-0.186,0.208C318.673,429.487,318.669,429.488,318.664,429.487z"/>
					</g>
					<g>
						<path style="fill:#FFFFFF;" d="M321.822,430.841c-0.102-0.002-0.186-0.081-0.194-0.184c-0.118-1.696,1.118-4.263,3.398-4.594
							c0.11-0.015,0.209,0.058,0.225,0.168c0.015,0.108-0.06,0.208-0.168,0.224c-2.024,0.293-3.165,2.668-3.061,4.173
							c0.007,0.11-0.075,0.204-0.183,0.211C321.833,430.84,321.828,430.841,321.822,430.841z"/>
					</g>
					<g>
						<path style="fill:#FFFFFF;" d="M325.242,432.62c-0.102-0.001-0.187-0.08-0.194-0.184c-0.118-1.695,1.119-4.263,3.398-4.593
							c0.11-0.014,0.208,0.061,0.224,0.168c0.016,0.108-0.058,0.208-0.167,0.225c-2.024,0.293-3.164,2.668-3.06,4.173
							c0.008,0.109-0.075,0.204-0.184,0.211C325.254,432.619,325.248,432.619,325.242,432.62z"/>
					</g>
				</g>
				<g>
					<g>
						<polygon style="fill:#854E4B;" points="264.351,378.86 252.137,394.561 258.009,402.752 267.466,400.239 276.796,388.359 
													"/>
						<path style="fill:#542D36;" d="M274.342,391.483c0,0-12.414-2.173-14.393-6.966l4.402-5.657l12.445,9.499L274.342,391.483z"/>
					</g>
					<g>
						<g id="XMLID_31_">
							<g>
								<path style="fill:#EFEFEF;" d="M280.435,440.288l-33.98-31.321c-0.941-0.802-3.274-2.639-3.471-3.963
									c-0.19-1.291,0.748-2.958,2.168-4.705l37.195,35.179C282.184,437.154,281.522,438.827,280.435,440.288z"/>
								<path style="fill:#1C2684;" d="M282.347,435.398l-37.195-35.179c2.823-3.476,7.55-7.264,9.068-9.048
									c0.07,1.452,0.693,2.66,1.342,3.967c3.317,6.695,9.019,4.432,14.195,1.828l0.282,0.059
									c-3.004,13.889,9.338,23.444,12.155,35.797C282.385,433.663,282.432,434.53,282.347,435.398z"/>
							</g>
						</g>
					</g>
					<g>
						<path style="fill:#FFFFFF;" d="M263.71,405.562c-0.074-0.071-0.083-0.188-0.017-0.27c1.252-1.527,4.189-2.889,6.13-1.639
							c0.092,0.062,0.119,0.182,0.059,0.275c-0.059,0.092-0.182,0.117-0.273,0.058c-1.731-1.116-4.479,0.177-5.609,1.558
							c-0.07,0.085-0.195,0.097-0.278,0.027C263.717,405.568,263.714,405.566,263.71,405.562z"/>
					</g>
					<g>
						<path style="fill:#FFFFFF;" d="M265.12,408.696c-0.074-0.07-0.083-0.186-0.019-0.267c1.061-1.328,3.708-2.382,5.61-1.083
							c0.091,0.063,0.115,0.185,0.052,0.276c-0.062,0.091-0.185,0.113-0.274,0.052c-1.69-1.154-4.136-0.178-5.078,1.002
							c-0.069,0.085-0.194,0.099-0.278,0.031C265.128,408.703,265.124,408.7,265.12,408.696z"/>
					</g>
					<g>
						<path style="fill:#FFFFFF;" d="M266.435,412.32c-0.074-0.07-0.083-0.186-0.018-0.267c1.06-1.328,3.708-2.382,5.61-1.084
							c0.091,0.064,0.113,0.186,0.051,0.276c-0.061,0.091-0.184,0.113-0.274,0.052c-1.689-1.154-4.136-0.177-5.078,1.002
							c-0.068,0.085-0.193,0.099-0.279,0.03C266.444,412.327,266.439,412.324,266.435,412.32z"/>
					</g>
				</g>
				<path style="fill:#1C2684;" d="M256.03,212.898c0,0-7.543,2.438-24.102-18.977l8.103-10.356l13.713,18.491L256.03,212.898z"/>
				<g>
					<path style="fill:#854E4B;" d="M254.032,203.424c0,0-13.996,36.017-37.821,57.522l-9.42-7.514c0,0,17.455-35.054,30.405-56.666
						c0,0,0.209-1.235,4.255-11.286L254.032,203.424z"/>
					<path style="fill:#542D36;" d="M238.446,223.839c0,0-0.036,0.009-0.104,0.025c-0.068,0.017-0.169,0.035-0.296,0.062
						c-0.255,0.05-0.62,0.112-1.058,0.158c-0.219,0.022-0.457,0.038-0.707,0.048c-0.251,0.009-0.514,0.006-0.786-0.008
						c-0.272-0.009-0.549-0.052-0.829-0.09c-0.278-0.052-0.561-0.109-0.831-0.202c-0.275-0.08-0.538-0.192-0.792-0.312
						c-0.062-0.033-0.123-0.067-0.184-0.1c-0.062-0.032-0.124-0.063-0.182-0.101c-0.116-0.075-0.236-0.139-0.342-0.223
						c-0.108-0.08-0.216-0.156-0.313-0.241c-0.099-0.084-0.201-0.161-0.286-0.251c-0.182-0.169-0.337-0.346-0.483-0.509
						c-0.068-0.086-0.132-0.169-0.194-0.247c-0.064-0.078-0.122-0.153-0.17-0.228c-0.097-0.15-0.198-0.273-0.259-0.387
						c-0.135-0.222-0.216-0.348-0.216-0.348s0.049,0.141,0.142,0.386c0.043,0.125,0.118,0.265,0.197,0.432
						c0.077,0.168,0.191,0.342,0.309,0.536c0.066,0.093,0.135,0.189,0.207,0.29c0.071,0.102,0.161,0.191,0.246,0.293
						c0.083,0.103,0.183,0.193,0.282,0.291c0.095,0.102,0.21,0.186,0.321,0.278c0.226,0.18,0.477,0.346,0.745,0.489
						c0.271,0.135,0.555,0.261,0.85,0.352c0.293,0.095,0.596,0.151,0.894,0.202c0.299,0.04,0.595,0.061,0.881,0.058
						c0.285,0.004,0.561-0.019,0.819-0.048c0.258-0.029,0.5-0.074,0.722-0.122c0.441-0.096,0.798-0.219,1.043-0.313
						C238.313,223.909,238.446,223.839,238.446,223.839z"/>
					<path style="fill:#542D36;" d="M235.946,198.868c0,0,9.39,11.229,14.888,11.943l5.195-10.872l-15.532-9.512L235.946,198.868z"
						/>
				</g>
				<g>
					<g>
						<g>
							<g id="XMLID_24_">
								<g>
									<path style="fill:#454DD8;" d="M259.582,377.556c18.446,19.784,20.641,15.148,20.641,15.148l42.866-46.36
										c11.851-20.105,7.522-31.461,7.522-31.461l-12.885-81.346c0,0-23.538,9.543-34.336,15.255
										c-2.531,18.392,4.462,29.71,17.237,60.755C300.626,309.546,278.24,341.981,259.582,377.556z"/>
								</g>
							</g>
						</g>
						<path style="fill:#1C2684;" d="M300.359,259.169c0,0,23.143,58.104,20.556,87.598
							C318.915,369.576,300.359,259.169,300.359,259.169z"/>
						<polygon style="fill:#1C2684;" points="287.382,329.766 291.219,380.811 306.19,367.045 						"/>
						<g>
							<path style="fill:#454DD8;" d="M261.124,242.532c-4.321,23.624,25.9,84.648,25.9,84.648l11.19,80.671
								c14.205,11.167,26.833,0,26.833,0c2.62-24.229-2.758-54.863-7.419-78.991c-4.863-25.169-12.951-62.154-23.439-85.781
								L261.124,242.532z"/>
						</g>
						<g>
							<polygon style="fill:#1C2684;" points="305.923,411.86 306.432,412.035 296.845,325.872 296.834,325.843 265.339,243.994 
								264.884,244.169 296.368,325.989 							"/>
						</g>
					</g>
					<path style="fill:#1C2684;" d="M261.808,243.327c0,0,31.337,9.53,58.224,4.767l-1.137-7.615L261.808,243.327z"/>
				</g>
				<g>
					<path style="fill:#1C2684;" d="M344.03,184.067c0,0-2.558,20.757-13.999,22.573l-4.12-24.127l15.072-0.761L344.03,184.067z"/>
					<g>
						<path style="fill:#854E4B;" d="M323.645,174.081c0,0,4.375,4.397,23.209,14.793c0,0,11.334-0.299,25.157-6.289
							c8.594,1.546,9.377,2.404,8.529,8.194c-12.433,6.63-28.954,19.175-38.31,18.981c0,0-12.394-2.23-28.218-24.739
							L323.645,174.081z"/>
						<path style="fill:#542D36;" d="M343.109,186.778c0,0-7.789,16.851-11.726,17.146l-4.095-3.024l13.08-15.91L343.109,186.778z"
							/>
						<path style="fill:#542D36;" d="M345.958,190.428c0,0,0.013,0.143,0.027,0.391c0.005,0.124,0.013,0.274,0.021,0.446
							c0.007,0.172,0.009,0.366,0.012,0.577c0.001,0.21-0.003,0.438-0.011,0.678c-0.008,0.24-0.027,0.492-0.048,0.751
							c-0.01,0.13-0.028,0.26-0.043,0.393c-0.022,0.132-0.037,0.266-0.06,0.399c-0.043,0.268-0.101,0.536-0.174,0.8
							c-0.032,0.133-0.077,0.262-0.114,0.393c-0.048,0.126-0.089,0.256-0.141,0.379c-0.107,0.244-0.209,0.488-0.343,0.705
							c-0.032,0.055-0.061,0.111-0.096,0.163c-0.036,0.051-0.07,0.103-0.103,0.154c-0.064,0.105-0.14,0.198-0.211,0.291
							c-0.068,0.096-0.149,0.176-0.222,0.259c-0.07,0.086-0.148,0.16-0.223,0.231c-0.145,0.148-0.298,0.26-0.427,0.374
							c-0.139,0.095-0.258,0.188-0.361,0.256c-0.21,0.129-0.331,0.208-0.331,0.208s0.136-0.04,0.375-0.121
							c0.118-0.045,0.257-0.11,0.417-0.185c0.151-0.09,0.334-0.179,0.506-0.316c0.09-0.064,0.183-0.131,0.271-0.211
							c0.089-0.079,0.184-0.159,0.268-0.254c0.086-0.092,0.179-0.185,0.26-0.292c0.086-0.103,0.167-0.213,0.241-0.33
							c0.038-0.058,0.078-0.116,0.115-0.176c0.035-0.062,0.07-0.123,0.104-0.185c0.075-0.123,0.132-0.255,0.192-0.388
							c0.06-0.132,0.107-0.271,0.161-0.407c0.043-0.14,0.094-0.278,0.13-0.42c0.074-0.285,0.131-0.572,0.17-0.856
							c0.043-0.284,0.057-0.566,0.066-0.837c0.01-0.272-0.001-0.534-0.017-0.781c-0.014-0.248-0.042-0.481-0.074-0.694
							c-0.062-0.427-0.146-0.776-0.215-1.018C346.011,190.561,345.958,190.428,345.958,190.428z"/>
					</g>
					<path style="fill:#F9CF70;" d="M318.606,151.703c6.23,2.223,8.065,8.786,11.747,14.366c4.562,6.913,9.679,10.675,13.677,17.997
						c-0.043,0.025-0.086,0.053-0.125,0.097c-6,7.171-15.135,16.395-13.874,22.475c-4.007-3.426-12.769-7.153-16.019-11.309
						l-3.782-46.055C312.337,150.312,316.406,150.917,318.606,151.703z"/>
				</g>
				<g>
					<g id="XMLID_22_">
						<g>
							<g>
								<path style="fill:#854E4B;" d="M185.905,277.138c-1.706,1.761-1.801-0.682,0.291-3.299c1.277-1.597,2.914-3.342,4.55-4.533
									c7.446-5.418,12.905-9.064,17.239-18.256l9.445,8.14c-1.329,2.151-2.54,3.033-4.134,5.056
									c-1.032,1.31-2.15,2.625-3.002,4.056c-0.841,1.418-1.078,3.133-1.992,4.5c-1.116,1.668-3.15,3.106-4.676,4.394
									c-0.673,0.568-3.035,2.725-3.878,1.937c-1.024-0.956,2.035-4.665,2.315-5.763c-2.349-0.515-3.82,1.147-5.647,2.486
									c-1.22,0.895-6.174,5.235-7.956,3.318c-0.677,0.558-1.616,0.774-1.663-0.26
									C186.216,279.392,184.678,278.834,185.905,277.138z"/>
							</g>
						</g>
					</g>
					<g>
						<g>
							<path style="fill:#542D36;" d="M186.242,276.719c-0.037-0.003-0.071-0.025-0.089-0.062c-0.026-0.057-0.005-0.125,0.049-0.154
								c2.425-1.31,4.011-2.727,5.69-4.23c0.733-0.654,1.49-1.33,2.35-2.03c0.048-0.04,0.116-0.031,0.151,0.019
								c0.037,0.051,0.027,0.122-0.02,0.161c-0.857,0.697-1.611,1.371-2.342,2.024c-1.69,1.51-3.286,2.937-5.733,4.259
								C186.28,276.718,186.261,276.721,186.242,276.719z"/>
						</g>
					</g>
					<g>
						<g>
							<path style="fill:#542D36;" d="M187.326,277.833c-0.037-0.003-0.073-0.025-0.091-0.061c-0.028-0.055-0.007-0.121,0.048-0.15
								c3.765-1.925,5.946-3.967,8.845-6.863c0.044-0.045,0.113-0.044,0.157,0c0.043,0.043,0.043,0.114,0,0.158
								c-2.913,2.911-5.107,4.964-8.9,6.903C187.366,277.83,187.346,277.833,187.326,277.833z"/>
						</g>
					</g>
					<g>
						<g>
							<path style="fill:#542D36;" d="M188.727,278.853c-0.041-0.003-0.079-0.029-0.095-0.069c-0.023-0.057,0.005-0.123,0.062-0.145
								c4.933-1.988,8.885-6.476,9.321-6.982c0.039-0.046,0.115-0.06,0.162-0.019c0.044,0.038,0.045,0.11,0.012,0.159l0,0
								c-0.001,0-0.001,0-0.001,0.002c-0.001,0-0.003,0.002-0.004,0.003c-0.018,0.023-0.076,0.091-0.173,0.212
								c-0.012,0.016-0.027,0.027-0.044,0.035c-0.991,1.104-4.683,4.981-9.19,6.797C188.76,278.852,188.743,278.855,188.727,278.853
								z"/>
						</g>
					</g>
				</g>
				<path style="fill:#F9CF70;" d="M283.692,144.207c-2.526,8.922-16.629,8.842-22.692,13.068c-5.082,3.542-2.34,8.6-2.813,15.02
					c-0.684,9.291,0.357,18.651,0.898,27.936c0.584,10.014,0.201,18.201,0.497,28.224c0.059,2.004-0.082,12.597,0,14.608
					c0,0,60.459,7.494,61.628,0.939c0.001-0.003,0,0.002,0,0c-0.056-13.216-1.439-37.517,0.065-60.929
					c0-0.003-0.001-0.004-0.001-0.007c-1.302-7.271-0.831-14.76-2.475-22.059c-0.775-3.438-2.033-6.501-4.482-9.193
					c-4.189-4.603-11.837-2.468-14.717-6.19C295.437,152.249,287.949,149.226,283.692,144.207L283.692,144.207z"/>
				<g>
					<g id="XMLID_21_">
						<g>
							<path style="fill:#F9CF70;" d="M231.928,193.921c3.839-10.658,13.508-19.428,18.498-27.412
								c8.31-13.298,22.578-10.713,31.254-18.207l-13.437,31.57l-0.225-0.065c-3.51,9.112-7.444,24.322-11.989,33.091
								C250.46,206.282,239.633,197.299,231.928,193.921z"/>
						</g>
					</g>
				</g>
				<g>
					<path style="fill:#1C2684;" d="M320.662,198.436c0.017,0,0.034-0.003,0.051-0.009c0.085-0.028,0.131-0.12,0.103-0.205
						l-9.924-30.227c-0.028-0.085-0.119-0.132-0.204-0.104c-0.085,0.028-0.132,0.12-0.104,0.205l9.925,30.227
						C320.531,198.392,320.594,198.436,320.662,198.436z"/>
				</g>
				<g>
					<path style="fill:#1C2684;" d="M260.136,203.282c0.066,0,0.129-0.041,0.152-0.106l11.741-31.783
						c0.031-0.084-0.012-0.177-0.096-0.209c-0.084-0.031-0.178,0.012-0.208,0.096l-11.74,31.783
						c-0.031,0.084,0.012,0.177,0.096,0.208C260.099,203.278,260.118,203.282,260.136,203.282z"/>
				</g>
			</g>
			<g>
				<g>
					<polygon style="fill:#7A89DD;" points="360.514,164.181 387.149,210.867 427.27,187.978 406.973,152.399 389.527,147.629 					
						"/>
					<polygon style="fill:#E9F2FF;" points="361.22,161.6 387.855,208.287 427.976,185.397 407.678,149.819 390.233,145.048 					
						"/>
					<polygon style="fill:#7A89DD;" points="396.57,156.156 407.678,149.819 390.233,145.048 					"/>
					<g>
						
							<rect x="373.084" y="162.776" transform="matrix(0.8686 -0.4955 0.4955 0.8686 -30.1415 214.4211)" style="fill:#7A89DD;" width="32.235" height="2.527"/>
						
							<rect x="376.215" y="168.264" transform="matrix(0.8686 -0.4955 0.4955 0.8686 -32.4494 216.6937)" style="fill:#7A89DD;" width="32.235" height="2.527"/>
						
							<rect x="379.345" y="173.752" transform="matrix(0.8686 -0.4955 0.4955 0.8686 -34.7574 218.9664)" style="fill:#7A89DD;" width="32.235" height="2.527"/>
						
							<rect x="382.476" y="179.239" transform="matrix(0.8686 -0.4955 0.4955 0.8686 -37.0653 221.239)" style="fill:#7A89DD;" width="32.235" height="2.527"/>
						
							<rect x="392.618" y="184.727" transform="matrix(0.8686 -0.4955 0.4955 0.8686 -39.3733 223.5116)" style="fill:#7A89DD;" width="18.213" height="2.527"/>
					</g>
				</g>
			</g>
		</g>
		<path style="fill:#1C2684;" d="M680.366,439.32H77.095c-2.926,0-5.297,1.088-5.297,2.43v1.164c0,1.342,2.372,2.43,5.297,2.43
			h603.271c2.926,0,5.297-1.088,5.297-2.43v-1.164C685.664,440.408,683.292,439.32,680.366,439.32z"/>
		<g>
			<g id="XMLID_1170_">
				<path id="XMLID_1173_" style="fill:#454DD8;" d="M626.254,149.32c-3.016-19.371-18.654-34.827-38.493-37.239
					c-1.859-0.226-3.493,1.238-3.493,3.111l0,0.003c0,1.57,1.162,2.913,2.721,3.102c17.05,2.067,30.492,15.348,33.081,31.994
					c0.235,1.511,1.558,2.613,3.087,2.613l0,0C625.066,152.904,626.548,151.207,626.254,149.32z"/>
				<path id="XMLID_1172_" style="fill:#454DD8;" d="M615.133,149.11c-2.857-13.252-13.605-23.728-27.236-25.997
					c-1.901-0.316-3.628,1.164-3.628,3.092v0.002c0,1.537,1.119,2.834,2.635,3.089c11.063,1.858,19.783,10.366,22.106,21.126
					c0.312,1.446,1.581,2.484,3.06,2.484h0.002C614.068,152.904,615.553,151.061,615.133,149.11z"/>
				<path id="XMLID_1171_" style="fill:#454DD8;" d="M603.237,148.754c-2.402-6.734-7.984-12.016-14.996-13.943
					c-1.998-0.549-3.973,0.944-3.973,3.016v0.005c0,1.395,0.919,2.642,2.265,3.007c5.03,1.366,9.042,5.135,10.783,9.95
					c0.455,1.258,1.623,2.115,2.96,2.115l0.001,0C602.427,152.904,603.959,150.779,603.237,148.754z"/>
			</g>
			<g>
				<path id="XMLID_729_" style="fill:#454DD8;" d="M544.938,211.443c3.128-1.16,6.635-1.191,9.889,0.181
					c1.165,0.492,2.223,1.132,3.164,1.892c0.059-0.16,0.121-0.319,0.188-0.477c2.254-5.343,8.238-7.92,13.365-5.757
					c1.808,0.763,3.266,2.015,4.3,3.549c4.507-3.319,10.463-4.284,15.835-2.018c0.966,0.408,1.868,0.905,2.706,1.473v-37.294h12.877
					l-37.6-36.718l-37.6,36.718h12.876V211.443z"/>
				<path id="XMLID_580_" style="fill:#FFFFFF;" d="M594.385,178.767v31.519c-0.838-0.569-1.74-1.066-2.706-1.473
					c-5.372-2.267-11.328-1.301-15.835,2.018c-1.034-1.534-2.492-2.786-4.3-3.549c-5.127-2.163-11.111,0.414-13.365,5.757
					c-0.067,0.159-0.129,0.318-0.188,0.477c-0.941-0.759-2-1.4-3.164-1.892c-3.254-1.373-6.761-1.342-9.889-0.181v-38.451h-12.876
					l30.133-29.426c-3.585-1.161-7.414-1.791-11.391-1.791c-13.144,0-24.668,6.858-31.12,17.155
					c-3.491-2.165-7.617-3.421-12.041-3.421c-12.544,0-22.713,10.062-22.713,22.474c0,0.368,0.01,0.734,0.028,1.098
					c-2.621-0.714-5.38-1.098-8.23-1.098c-17.074,0-30.915,13.695-30.915,30.589s13.841,30.589,30.915,30.589h110.671
					c17.074,0,30.915-13.695,30.915-30.589C618.312,194.056,608.093,181.901,594.385,178.767z"/>
			</g>
		</g>
		<g>
			<polygon style="fill-rule:evenodd;clip-rule:evenodd;fill:#1C2684;" points="200.039,105.032 203.886,95.639 166.781,81.551 			
				"/>
			<polygon style="fill-rule:evenodd;clip-rule:evenodd;fill:#454DD8;" points="198.171,99.243 166.781,81.551 188.631,103.744 			
				"/>
			<polygon style="fill-rule:evenodd;clip-rule:evenodd;fill:#454DD8;" points="212.378,91.814 166.781,81.551 203.886,95.639 			
				"/>
			<polygon style="fill-rule:evenodd;clip-rule:evenodd;fill:#F6F5F4;" points="198.171,99.243 200.039,105.032 194.376,101.034 			
				"/>
			<g>
				<path style="fill:#9EB5E8;" d="M243.333,132.811c-0.024-0.206,0.123-0.393,0.328-0.417c1.185-0.141,2.383-0.589,3.561-1.332
					c0.176-0.11,0.407-0.058,0.518,0.117c0.11,0.175,0.058,0.407-0.117,0.518c-1.273,0.803-2.576,1.288-3.872,1.442
					c-0.015,0.001-0.03,0.002-0.045,0.002C243.517,133.141,243.355,133.001,243.333,132.811z M239.663,132.281
					c-1.219-0.808-1.918-2.066-1.918-3.452c0-0.091,0.003-0.182,0.009-0.274c0.013-0.207,0.191-0.36,0.398-0.35
					c0.207,0.013,0.364,0.191,0.35,0.398c-0.005,0.076-0.007,0.151-0.007,0.226c0,1.129,0.577,2.16,1.583,2.827
					c0.173,0.114,0.22,0.347,0.105,0.52c-0.072,0.109-0.191,0.168-0.313,0.168C239.798,132.344,239.726,132.324,239.663,132.281z
					 M278.431,130.039c-0.692-1.13-1.475-2.196-2.326-3.17c-0.136-0.156-0.121-0.393,0.036-0.529
					c0.155-0.137,0.392-0.121,0.529,0.036c0.879,1.005,1.687,2.106,2.401,3.272c0.108,0.176,0.053,0.407-0.124,0.516
					c-0.061,0.038-0.128,0.055-0.195,0.055C278.625,130.219,278.502,130.155,278.431,130.039z M250.176,129.04
					c-0.159-0.133-0.18-0.369-0.048-0.528c0.842-1.009,1.488-2.131,1.918-3.335c0.07-0.195,0.284-0.297,0.479-0.227
					c0.195,0.07,0.296,0.285,0.227,0.479c-0.46,1.287-1.15,2.485-2.048,3.563c-0.074,0.089-0.181,0.135-0.288,0.135
					C250.331,129.127,250.246,129.098,250.176,129.04z M239.641,125.36c-0.148-0.145-0.15-0.382-0.005-0.53
					c0.852-0.868,1.974-1.67,3.333-2.385c0.184-0.096,0.409-0.025,0.506,0.158c0.096,0.183,0.026,0.41-0.158,0.506
					c-1.291,0.679-2.35,1.435-3.147,2.247c-0.073,0.075-0.17,0.112-0.268,0.112C239.809,125.467,239.714,125.431,239.641,125.36z
					 M273.269,124.155c-1.025-0.816-2.13-1.539-3.284-2.147c-0.183-0.097-0.253-0.323-0.157-0.506
					c0.096-0.183,0.323-0.255,0.506-0.157c1.195,0.63,2.34,1.378,3.401,2.224c0.162,0.129,0.189,0.365,0.06,0.527
					c-0.074,0.093-0.184,0.142-0.294,0.142C273.42,124.236,273.337,124.209,273.269,124.155z M253.078,121.757
					c-0.207-0.002-0.373-0.172-0.371-0.379l0-0.128c0-1.203-0.168-2.456-0.501-3.725c-0.052-0.201,0.067-0.405,0.268-0.458
					c0.199-0.05,0.405,0.067,0.458,0.268c0.349,1.332,0.526,2.648,0.526,3.916l0,0.137c-0.002,0.206-0.17,0.371-0.375,0.371
					C253.081,121.757,253.08,121.757,253.078,121.757z M246.477,121.363c-0.066-0.196,0.04-0.409,0.235-0.476
					c1.308-0.441,2.61-0.821,3.87-1.129c0.195-0.046,0.404,0.074,0.453,0.275s-0.074,0.404-0.275,0.453
					c-1.238,0.303-2.52,0.677-3.807,1.112c-0.04,0.013-0.081,0.02-0.12,0.02C246.675,121.617,246.529,121.519,246.477,121.363z
					 M266.36,120.505c-1.225-0.381-2.517-0.665-3.84-0.843c-0.206-0.027-0.35-0.216-0.322-0.421s0.223-0.353,0.421-0.322
					c1.365,0.183,2.699,0.476,3.963,0.87c0.198,0.062,0.308,0.271,0.247,0.469c-0.05,0.161-0.198,0.264-0.358,0.264
					C266.435,120.522,266.397,120.516,266.36,120.505z M254.225,119.417c-0.028-0.206,0.115-0.395,0.32-0.423
					c1.374-0.189,2.73-0.293,4.032-0.311c0.001,0,0.003,0,0.005,0c0.205,0,0.372,0.165,0.375,0.37
					c0.003,0.207-0.163,0.377-0.37,0.38c-1.271,0.017-2.596,0.119-3.939,0.304c-0.018,0.002-0.035,0.003-0.052,0.003
					C254.411,119.741,254.251,119.604,254.225,119.417z M250.816,113.863c-0.565-1.138-1.254-2.269-2.045-3.36
					c-0.122-0.168-0.084-0.402,0.083-0.524c0.167-0.121,0.402-0.083,0.524,0.083c0.815,1.125,1.525,2.292,2.11,3.467
					c0.092,0.186,0.017,0.411-0.169,0.503c-0.054,0.026-0.111,0.039-0.167,0.039C251.015,114.071,250.882,113.994,250.816,113.863z
					 M246.228,107.487c-0.907-0.933-1.896-1.821-2.937-2.638c-0.163-0.128-0.191-0.364-0.063-0.526
					c0.127-0.163,0.364-0.193,0.526-0.063c1.068,0.838,2.081,1.748,3.012,2.706c0.144,0.148,0.141,0.386-0.008,0.53
					c-0.073,0.071-0.167,0.106-0.261,0.106C246.399,107.601,246.302,107.563,246.228,107.487z M209.126,104.083
					c-0.121-0.167-0.083-0.402,0.085-0.523c0.206-0.148,0.412-0.294,0.618-0.436c0.17-0.118,0.405-0.074,0.521,0.096
					c0.118,0.171,0.075,0.404-0.096,0.521c-0.202,0.139-0.404,0.282-0.605,0.427c-0.066,0.048-0.143,0.071-0.219,0.071
					C209.314,104.239,209.199,104.184,209.126,104.083z M240.032,102.62c-1.134-0.671-2.32-1.271-3.523-1.78
					c-0.19-0.081-0.28-0.301-0.199-0.492c0.081-0.19,0.301-0.281,0.492-0.199c1.234,0.523,2.449,1.137,3.612,1.825
					c0.178,0.105,0.237,0.335,0.132,0.514c-0.07,0.118-0.195,0.184-0.323,0.184C240.157,102.673,240.092,102.656,240.032,102.62z
					 M213.133,101.543c-0.095-0.184-0.023-0.41,0.161-0.505c1.212-0.627,2.462-1.169,3.714-1.61c0.194-0.071,0.41,0.033,0.478,0.229
					c0.069,0.195-0.034,0.41-0.229,0.478c-1.22,0.429-2.438,0.957-3.619,1.569c-0.055,0.028-0.114,0.042-0.172,0.042
					C213.331,101.746,213.2,101.672,213.133,101.543z M232.779,99.556c-1.276-0.341-2.579-0.59-3.871-0.74
					c-0.206-0.024-0.354-0.21-0.33-0.416c0.024-0.206,0.214-0.346,0.416-0.33c1.329,0.154,2.667,0.41,3.978,0.76
					c0.2,0.054,0.319,0.259,0.266,0.459c-0.045,0.168-0.196,0.278-0.362,0.278C232.844,99.569,232.812,99.565,232.779,99.556z
					 M220.621,98.807c-0.039-0.204,0.094-0.4,0.297-0.439c1.327-0.254,2.682-0.408,4.027-0.457c0.192-0.011,0.38,0.155,0.388,0.361
					c0.008,0.207-0.154,0.381-0.361,0.388c-1.308,0.048-2.624,0.197-3.913,0.444c-0.024,0.005-0.048,0.007-0.071,0.007
					C220.813,99.111,220.655,98.986,220.621,98.807z"/>
			</g>
		</g>
	</g>
</g>
</svg>
