<?xml version="1.0" encoding="utf-8"?>
<!-- Generator: Adobe Illustrator 27.5.0, SVG Export Plug-In . SVG Version: 6.00 Build 0)  -->
<svg version="1.1" id="Capa_1" xmlns="http://www.w3.org/2000/svg" xmlns:xlink="http://www.w3.org/1999/xlink" x="0px" y="0px"
	 viewBox="0 0 2437 1848" style="enable-background:new 0 0 2437 1848;" xml:space="preserve">
<rect y="-0.004" style="fill:#E9F2FE;" width="2436.324" height="1847.047"/>
<path style="fill:#FFFFFF;" d="M1795.766,1486.203c118.996-135.375,191.188-312.895,191.188-507.301
	c0-424.598-344.199-768.793-768.789-768.793S449.375,554.305,449.375,978.902c0,194.406,72.195,371.926,191.188,507.301H1795.766z"
	/>
<g>
	
		<line style="fill:none;stroke:#31343C;stroke-width:5.7299;stroke-linecap:round;stroke-linejoin:round;stroke-miterlimit:10;" x1="209.707" y1="1492.949" x2="2226.625" y2="1492.949"/>
	<g>
		
			<line style="fill:none;stroke:#31343C;stroke-width:5.7299;stroke-linecap:round;stroke-linejoin:round;stroke-miterlimit:10;" x1="1797.461" y1="477.98" x2="1830.895" y2="477.98"/>
		
			<line style="fill:none;stroke:#31343C;stroke-width:5.7299;stroke-linecap:round;stroke-linejoin:round;stroke-miterlimit:10;" x1="1549.75" y1="477.98" x2="1779.797" y2="477.98"/>
		
			<line style="fill:none;stroke:#31343C;stroke-width:5.7299;stroke-linecap:round;stroke-linejoin:round;stroke-miterlimit:10;" x1="681.566" y1="705.434" x2="715" y2="705.434"/>
		
			<line style="fill:none;stroke:#31343C;stroke-width:5.7299;stroke-linecap:round;stroke-linejoin:round;stroke-miterlimit:10;" x1="433.859" y1="705.434" x2="663.906" y2="705.434"/>
		
			<line style="fill:none;stroke:#31343C;stroke-width:5.7299;stroke-linecap:round;stroke-linejoin:round;stroke-miterlimit:10;" x1="1275.965" y1="372.184" x2="1309.391" y2="372.184"/>
		
			<line style="fill:none;stroke:#31343C;stroke-width:5.7299;stroke-linecap:round;stroke-linejoin:round;stroke-miterlimit:10;" x1="1326.156" y1="372.184" x2="1359.59" y2="372.184"/>
		
			<line style="fill:none;stroke:#31343C;stroke-width:5.7299;stroke-linecap:round;stroke-linejoin:round;stroke-miterlimit:10;" x1="1376.348" y1="372.184" x2="1409.777" y2="372.184"/>
		
			<line style="fill:none;stroke:#31343C;stroke-width:5.7299;stroke-linecap:round;stroke-linejoin:round;stroke-miterlimit:10;" x1="1426.535" y1="372.184" x2="1636.223" y2="372.184"/>
		
			<line style="fill:none;stroke:#31343C;stroke-width:5.7299;stroke-linecap:round;stroke-linejoin:round;stroke-miterlimit:10;" x1="418.941" y1="1221.414" x2="452.375" y2="1221.414"/>
		
			<line style="fill:none;stroke:#31343C;stroke-width:5.7299;stroke-linecap:round;stroke-linejoin:round;stroke-miterlimit:10;" x1="469.133" y1="1221.414" x2="678.816" y2="1221.414"/>
		
			<line style="fill:none;stroke:#31343C;stroke-width:5.7299;stroke-linecap:round;stroke-linejoin:round;stroke-miterlimit:10;" x1="1162.219" y1="372.184" x2="1258.297" y2="372.184"/>
		
			<line style="fill:none;stroke:#31343C;stroke-width:5.7299;stroke-linecap:round;stroke-linejoin:round;stroke-miterlimit:10;" x1="1482.301" y1="569.109" x2="1515.734" y2="569.109"/>
		
			<line style="fill:none;stroke:#31343C;stroke-width:5.7299;stroke-linecap:round;stroke-linejoin:round;stroke-miterlimit:10;" x1="1532.492" y1="569.109" x2="1565.926" y2="569.109"/>
		
			<line style="fill:none;stroke:#31343C;stroke-width:5.7299;stroke-linecap:round;stroke-linejoin:round;stroke-miterlimit:10;" x1="1368.566" y1="569.109" x2="1464.641" y2="569.109"/>
		
			<line style="fill:none;stroke:#31343C;stroke-width:5.7299;stroke-linecap:round;stroke-linejoin:round;stroke-miterlimit:10;" x1="797.644" y1="440.785" x2="952.598" y2="440.785"/>
		
			<line style="fill:none;stroke:#31343C;stroke-width:5.7299;stroke-linecap:round;stroke-linejoin:round;stroke-miterlimit:10;" x1="1664.867" y1="638.316" x2="1819.82" y2="638.316"/>
		
			<line style="fill:none;stroke:#31343C;stroke-width:5.7299;stroke-linecap:round;stroke-linejoin:round;stroke-miterlimit:10;" x1="1858.633" y1="776.051" x2="2013.586" y2="776.051"/>
		
			<line style="fill:none;stroke:#31343C;stroke-width:5.7299;stroke-linecap:round;stroke-linejoin:round;stroke-miterlimit:10;" x1="409.781" y1="990.09" x2="564.734" y2="990.09"/>
		
			<path style="fill:none;stroke:#31343C;stroke-width:5.7299;stroke-linecap:round;stroke-linejoin:round;stroke-miterlimit:10;" d="
			M1118.313,372.184c0,9.992-8.098,18.09-18.094,18.09s-18.09-8.098-18.09-18.09c0-9.992,8.094-18.098,18.09-18.098
			S1118.313,362.191,1118.313,372.184z"/>
		
			<path style="fill:none;stroke:#31343C;stroke-width:5.7299;stroke-linecap:round;stroke-linejoin:round;stroke-miterlimit:10;" d="
			M505.348,830.563c0,10-8.094,18.094-18.09,18.094s-18.094-8.094-18.094-18.094c0-9.988,8.098-18.09,18.094-18.09
			S505.348,820.574,505.348,830.563z"/>
		
			<path style="fill:none;stroke:#31343C;stroke-width:5.7299;stroke-linecap:round;stroke-linejoin:round;stroke-miterlimit:10;" d="
			M1602.645,687.336c0,9.996-8.098,18.098-18.09,18.098s-18.09-8.102-18.09-18.098c0-9.988,8.098-18.09,18.09-18.09
			S1602.645,677.348,1602.645,687.336z"/>
		
			<path style="fill:none;stroke:#31343C;stroke-width:5.7299;stroke-linecap:round;stroke-linejoin:round;stroke-miterlimit:10;" d="
			M2031.676,885.773c0,9.992-8.098,18.09-18.09,18.09c-9.996,0-18.094-8.098-18.094-18.09s8.098-18.098,18.094-18.098
			C2023.578,867.676,2031.676,875.781,2031.676,885.773z"/>
		
			<path style="fill:none;stroke:#31343C;stroke-width:5.7299;stroke-linecap:round;stroke-linejoin:round;stroke-miterlimit:10;" d="
			M1837.91,1025.07c0,9.992-8.09,18.09-18.09,18.09c-9.992,0-18.09-8.098-18.09-18.09c0-9.996,8.098-18.098,18.09-18.098
			C1829.82,1006.973,1837.91,1015.074,1837.91,1025.07z"/>
		
			<path style="fill:none;stroke:#31343C;stroke-width:5.7299;stroke-linecap:round;stroke-linejoin:round;stroke-miterlimit:10;" d="
			M610.16,1091.211c0,9.992-8.098,18.09-18.09,18.09c-9.996,0-18.094-8.098-18.094-18.09c0-9.996,8.098-18.098,18.094-18.098
			C602.063,1073.113,610.16,1081.215,610.16,1091.211z"/>
		<g>
			
				<line style="fill:none;stroke:#31343C;stroke-width:5.7299;stroke-linecap:round;stroke-linejoin:round;stroke-miterlimit:10;" x1="1962.133" y1="484.246" x2="1962.75" y2="516.926"/>
			
				<line style="fill:none;stroke:#31343C;stroke-width:5.7299;stroke-linecap:round;stroke-linejoin:round;stroke-miterlimit:10;" x1="1963.301" y1="547.008" x2="1963.902" y2="579.684"/>
			
				<line style="fill:none;stroke:#31343C;stroke-width:5.7299;stroke-linecap:round;stroke-linejoin:round;stroke-miterlimit:10;" x1="2010.734" y1="531.074" x2="1978.063" y2="531.691"/>
			
				<line style="fill:none;stroke:#31343C;stroke-width:5.7299;stroke-linecap:round;stroke-linejoin:round;stroke-miterlimit:10;" x1="1947.969" y1="532.246" x2="1915.297" y2="532.848"/>
			
				<line style="fill:none;stroke:#31343C;stroke-width:5.7299;stroke-linecap:round;stroke-linejoin:round;stroke-miterlimit:10;" x1="1996.137" y1="497.598" x2="1973.457" y2="521.125"/>
			
				<line style="fill:none;stroke:#31343C;stroke-width:5.7299;stroke-linecap:round;stroke-linejoin:round;stroke-miterlimit:10;" x1="1952.586" y1="542.797" x2="1929.906" y2="566.332"/>
			
				<line style="fill:none;stroke:#31343C;stroke-width:5.7299;stroke-linecap:round;stroke-linejoin:round;stroke-miterlimit:10;" x1="1997.387" y1="565.086" x2="1973.859" y2="542.406"/>
			
				<line style="fill:none;stroke:#31343C;stroke-width:5.7299;stroke-linecap:round;stroke-linejoin:round;stroke-miterlimit:10;" x1="1952.184" y1="521.523" x2="1928.648" y2="498.844"/>
		</g>
		<g>
			
				<line style="fill:none;stroke:#31343C;stroke-width:5.7299;stroke-linecap:round;stroke-linejoin:round;stroke-miterlimit:10;" x1="504.465" y1="452.867" x2="505.078" y2="485.539"/>
			
				<line style="fill:none;stroke:#31343C;stroke-width:5.7299;stroke-linecap:round;stroke-linejoin:round;stroke-miterlimit:10;" x1="505.633" y1="515.625" x2="506.234" y2="548.305"/>
			
				<line style="fill:none;stroke:#31343C;stroke-width:5.7299;stroke-linecap:round;stroke-linejoin:round;stroke-miterlimit:10;" x1="553.07" y1="499.699" x2="520.394" y2="500.305"/>
			
				<line style="fill:none;stroke:#31343C;stroke-width:5.7299;stroke-linecap:round;stroke-linejoin:round;stroke-miterlimit:10;" x1="490.305" y1="500.863" x2="457.629" y2="501.477"/>
			
				<line style="fill:none;stroke:#31343C;stroke-width:5.7299;stroke-linecap:round;stroke-linejoin:round;stroke-miterlimit:10;" x1="538.473" y1="466.219" x2="515.789" y2="489.754"/>
			
				<line style="fill:none;stroke:#31343C;stroke-width:5.7299;stroke-linecap:round;stroke-linejoin:round;stroke-miterlimit:10;" x1="494.918" y1="511.418" x2="472.238" y2="534.953"/>
			
				<line style="fill:none;stroke:#31343C;stroke-width:5.7299;stroke-linecap:round;stroke-linejoin:round;stroke-miterlimit:10;" x1="539.719" y1="533.707" x2="516.195" y2="511.027"/>
			
				<line style="fill:none;stroke:#31343C;stroke-width:5.7299;stroke-linecap:round;stroke-linejoin:round;stroke-miterlimit:10;" x1="494.516" y1="490.145" x2="470.98" y2="467.465"/>
		</g>
		<g>
			
				<line style="fill:none;stroke:#31343C;stroke-width:5.7299;stroke-linecap:round;stroke-linejoin:round;stroke-miterlimit:10;" x1="451.488" y1="1279.566" x2="452.098" y2="1312.242"/>
			
				<line style="fill:none;stroke:#31343C;stroke-width:5.7299;stroke-linecap:round;stroke-linejoin:round;stroke-miterlimit:10;" x1="452.656" y1="1342.328" x2="453.258" y2="1375.008"/>
			
				<line style="fill:none;stroke:#31343C;stroke-width:5.7299;stroke-linecap:round;stroke-linejoin:round;stroke-miterlimit:10;" x1="500.094" y1="1326.398" x2="467.422" y2="1327.008"/>
			
				<line style="fill:none;stroke:#31343C;stroke-width:5.7299;stroke-linecap:round;stroke-linejoin:round;stroke-miterlimit:10;" x1="437.328" y1="1327.566" x2="404.652" y2="1328.172"/>
			
				<line style="fill:none;stroke:#31343C;stroke-width:5.7299;stroke-linecap:round;stroke-linejoin:round;stroke-miterlimit:10;" x1="485.492" y1="1292.918" x2="462.816" y2="1316.449"/>
			
				<line style="fill:none;stroke:#31343C;stroke-width:5.7299;stroke-linecap:round;stroke-linejoin:round;stroke-miterlimit:10;" x1="441.941" y1="1338.121" x2="419.262" y2="1361.656"/>
			
				<line style="fill:none;stroke:#31343C;stroke-width:5.7299;stroke-linecap:round;stroke-linejoin:round;stroke-miterlimit:10;" x1="486.742" y1="1360.406" x2="463.215" y2="1337.723"/>
			
				<line style="fill:none;stroke:#31343C;stroke-width:5.7299;stroke-linecap:round;stroke-linejoin:round;stroke-miterlimit:10;" x1="441.539" y1="1316.84" x2="418.004" y2="1294.168"/>
		</g>
		<g>
			
				<line style="fill:none;stroke:#31343C;stroke-width:5.7299;stroke-linecap:round;stroke-linejoin:round;stroke-miterlimit:10;" x1="2171.375" y1="813.293" x2="2171.988" y2="845.973"/>
			
				<line style="fill:none;stroke:#31343C;stroke-width:5.7299;stroke-linecap:round;stroke-linejoin:round;stroke-miterlimit:10;" x1="2172.543" y1="876.059" x2="2173.141" y2="908.731"/>
			
				<line style="fill:none;stroke:#31343C;stroke-width:5.7299;stroke-linecap:round;stroke-linejoin:round;stroke-miterlimit:10;" x1="2219.984" y1="860.129" x2="2187.309" y2="860.738"/>
			
				<line style="fill:none;stroke:#31343C;stroke-width:5.7299;stroke-linecap:round;stroke-linejoin:round;stroke-miterlimit:10;" x1="2157.219" y1="861.293" x2="2124.539" y2="861.902"/>
			
				<line style="fill:none;stroke:#31343C;stroke-width:5.7299;stroke-linecap:round;stroke-linejoin:round;stroke-miterlimit:10;" x1="2205.383" y1="826.644" x2="2182.699" y2="850.18"/>
			
				<line style="fill:none;stroke:#31343C;stroke-width:5.7299;stroke-linecap:round;stroke-linejoin:round;stroke-miterlimit:10;" x1="2161.828" y1="871.852" x2="2139.148" y2="895.383"/>
			
				<line style="fill:none;stroke:#31343C;stroke-width:5.7299;stroke-linecap:round;stroke-linejoin:round;stroke-miterlimit:10;" x1="2206.633" y1="894.133" x2="2183.102" y2="871.461"/>
			
				<line style="fill:none;stroke:#31343C;stroke-width:5.7299;stroke-linecap:round;stroke-linejoin:round;stroke-miterlimit:10;" x1="2161.426" y1="850.578" x2="2137.891" y2="827.898"/>
		</g>
	</g>
</g>
<g>
	<g>
		<path style="fill:#C0D1DA;" d="M1088.633,1557.574c-1.598,0-2.891-1.293-2.891-2.895v-176.883c0-1.594,1.293-2.887,2.891-2.887
			h259.063c1.598,0,2.891,1.293,2.891,2.887v176.883c0,1.602-1.293,2.895-2.891,2.895H1088.633z"/>
		<path style="fill:#31343C;" d="M1347.695,1377.797v176.883h-259.063v-176.883H1347.695 M1347.695,1372.02h-259.063
			c-3.191,0-5.785,2.59-5.785,5.777v176.883c0,3.195,2.594,5.781,5.785,5.781h259.063c3.195,0,5.785-2.586,5.785-5.781v-176.883
			C1353.48,1374.609,1350.891,1372.02,1347.695,1372.02L1347.695,1372.02z"/>
	</g>
	<g>
		<path style="fill:#C0D1DA;" d="M1057.477,1557.574c-1.598,0-2.891-1.293-2.891-2.895v-37.52c0-1.598,1.293-2.891,2.891-2.891
			h321.375c1.594,0,2.887,1.293,2.887,2.891v37.52c0,1.602-1.293,2.895-2.887,2.895H1057.477z"/>
		<path style="fill:#31343C;" d="M1378.852,1517.16v37.52h-321.375v-37.52H1378.852 M1378.852,1511.375h-321.375
			c-3.191,0-5.785,2.598-5.785,5.785v37.52c0,3.195,2.594,5.781,5.785,5.781h321.375c3.188,0,5.785-2.586,5.785-5.781v-37.52
			C1384.637,1513.973,1382.039,1511.375,1378.852,1511.375L1378.852,1511.375z"/>
	</g>
	<g>
		<rect x="1088.633" y="1377.797" style="fill:#9DA9B2;" width="259.063" height="88.445"/>
	</g>
	<g>
		<path style="fill:#C0D1DA;" d="M712.547,1436.074c-1.598,0-2.891-1.289-2.891-2.887v-64.32c0-1.602,1.293-2.887,2.891-2.887
			h1011.238c1.594,0,2.887,1.285,2.887,2.887v64.32c0,1.598-1.293,2.887-2.887,2.887H712.547z"/>
		<path style="fill:#31343C;" d="M1723.785,1368.867v64.32H712.547v-64.32H1723.785 M1723.785,1363.086H712.547
			c-3.195,0-5.785,2.586-5.785,5.781v64.32c0,3.195,2.59,5.781,5.785,5.781h1011.238c3.188,0,5.777-2.586,5.777-5.781v-64.32
			C1729.563,1365.672,1726.973,1363.086,1723.785,1363.086L1723.785,1363.086z"/>
	</g>
	<g>
		<rect x="712.547" y="1368.867" style="fill:#E2E9EE;" width="1011.238" height="15.574"/>
	</g>
	<g>
		<path style="fill:#3D4447;" d="M712.547,1371.754c-1.598,0-2.891-1.285-2.891-2.887V761.41c0-1.598,1.293-2.887,2.891-2.887
			h1011.238c1.594,0,2.887,1.289,2.887,2.887v607.457c0,1.602-1.293,2.887-2.887,2.887H712.547z"/>
		<path style="fill:#31343C;" d="M1723.785,761.41v607.457H712.547V761.41H1723.785 M1723.785,755.629H712.547
			c-3.195,0-5.785,2.59-5.785,5.781v607.457c0,3.195,2.59,5.781,5.785,5.781h1011.238c3.188,0,5.777-2.586,5.777-5.781V761.41
			C1729.563,758.219,1726.973,755.629,1723.785,755.629L1723.785,755.629z"/>
	</g>
	<g>
		<rect x="731.207" y="777.078" style="fill:#475054;" width="973.914" height="590.957"/>
	</g>
	<g>
		<path style="fill:#FFFFFF;" d="M785.644,1314.59c-1.598,0-2.891-1.293-2.891-2.887V825.734c0-1.598,1.293-2.891,2.891-2.891
			h865.039c1.602,0,2.891,1.293,2.891,2.891v485.969c0,1.594-1.289,2.887-2.891,2.887H785.644z"/>
		<path style="fill:#31343C;" d="M1650.684,825.734v485.969H785.644V825.734H1650.684 M1650.684,819.949H785.644
			c-3.195,0-5.785,2.59-5.785,5.785v485.969c0,3.191,2.59,5.781,5.785,5.781h865.039c3.195,0,5.785-2.59,5.785-5.781V825.734
			C1656.469,822.539,1653.879,819.949,1650.684,819.949L1650.684,819.949z"/>
	</g>
</g>
<g>
	<g>
		<path style="fill:#FFFFFF;" d="M937.34,1274.996c-1.039,0-1.879-0.84-1.879-1.875V957.594c0-1.043,0.84-1.875,1.879-1.875h561.652
			c1.035,0,1.875,0.832,1.875,1.875v315.527c0,1.035-0.84,1.875-1.875,1.875H937.34z"/>
		<path style="fill:#31343C;" d="M1498.992,957.594v315.527H937.34V957.594H1498.992 M1498.992,953.84H937.34
			c-2.074,0-3.754,1.684-3.754,3.754v315.527c0,2.07,1.68,3.754,3.754,3.754h561.652c2.07,0,3.754-1.684,3.754-3.754V957.594
			C1502.746,955.523,1501.063,953.84,1498.992,953.84L1498.992,953.84z"/>
	</g>
	<g>
		<path style="fill:#F4AA2A;" d="M937.34,1187.832c-1.039,0-1.879-0.836-1.879-1.871v-162.082c0-1.043,0.84-1.883,1.879-1.883
			h561.652c1.035,0,1.875,0.84,1.875,1.883v162.082c0,1.035-0.84,1.871-1.875,1.871H937.34z"/>
		<path style="fill:#31343C;" d="M1498.992,1023.879v162.082H937.34v-162.082H1498.992 M1498.992,1020.125H937.34
			c-2.074,0-3.754,1.676-3.754,3.754v162.082c0,2.07,1.68,3.754,3.754,3.754h561.652c2.07,0,3.754-1.684,3.754-3.754v-162.082
			C1502.746,1021.801,1501.063,1020.125,1498.992,1020.125L1498.992,1020.125z"/>
	</g>
	<g>
		<path style="fill:#C0D1DA;" d="M937.34,986.113c-1.039,0-1.879-0.84-1.879-1.879v-26.641c0-1.043,0.84-1.875,1.879-1.875h561.652
			c1.035,0,1.875,0.832,1.875,1.875v26.641c0,1.039-0.84,1.879-1.875,1.879H937.34z"/>
		<path style="fill:#31343C;" d="M1498.992,957.594v26.641H937.34v-26.641H1498.992 M1498.992,953.84H937.34
			c-2.074,0-3.754,1.684-3.754,3.754v26.641c0,2.07,1.68,3.754,3.754,3.754h561.652c2.07,0,3.754-1.684,3.754-3.754v-26.641
			C1502.746,955.523,1501.063,953.84,1498.992,953.84L1498.992,953.84z"/>
	</g>
	<g>
		<path style="fill:#7B858D;" d="M1200.227,1007.203c-1.035,0-1.875-0.84-1.875-1.875v-5.98c0-1.035,0.84-1.875,1.875-1.875h35.875
			c1.035,0,1.875,0.84,1.875,1.875v5.98c0,1.035-0.84,1.875-1.875,1.875H1200.227z"/>
		<path style="fill:#31343C;" d="M1236.102,999.348v5.98h-35.875v-5.98H1236.102 M1236.102,995.594h-35.875
			c-2.07,0-3.754,1.684-3.754,3.754v5.98c0,2.078,1.684,3.754,3.754,3.754h35.875c2.07,0,3.754-1.676,3.754-3.754v-5.98
			C1239.855,997.277,1238.172,995.594,1236.102,995.594L1236.102,995.594z"/>
	</g>
	<g>
		<path style="fill:#7B858D;" d="M948.059,975.777c-1.035,0-1.875-0.84-1.875-1.879v-5.977c0-1.035,0.84-1.879,1.875-1.879h17.938
			c1.035,0,1.875,0.844,1.875,1.879v5.977c0,1.039-0.84,1.879-1.875,1.879H948.059z"/>
		<path style="fill:#31343C;" d="M965.996,967.922v5.977h-17.938v-5.977H965.996 M965.996,964.168h-17.938
			c-2.07,0-3.754,1.68-3.754,3.754v5.977c0,2.074,1.684,3.762,3.754,3.762h17.938c2.07,0,3.754-1.688,3.754-3.762v-5.977
			C969.75,965.848,968.066,964.168,965.996,964.168L965.996,964.168z"/>
	</g>
	<g>
		<path style="fill:#7B858D;" d="M975.594,975.777c-1.039,0-1.879-0.84-1.879-1.879v-5.977c0-1.035,0.84-1.879,1.879-1.879h17.934
			c1.039,0,1.879,0.844,1.879,1.879v5.977c0,1.039-0.84,1.879-1.879,1.879H975.594z"/>
		<path style="fill:#31343C;" d="M993.527,967.922v5.977h-17.934v-5.977H993.527 M993.527,964.168h-17.934
			c-2.074,0-3.754,1.68-3.754,3.754v5.977c0,2.074,1.68,3.762,3.754,3.762h17.934c2.074,0,3.754-1.688,3.754-3.762v-5.977
			C997.281,965.848,995.602,964.168,993.527,964.168L993.527,964.168z"/>
	</g>
	<g>
		<path style="fill:#7B858D;" d="M1003.125,975.777c-1.039,0-1.879-0.84-1.879-1.879v-5.977c0-1.035,0.84-1.879,1.879-1.879h17.934
			c1.039,0,1.879,0.844,1.879,1.879v5.977c0,1.039-0.84,1.879-1.879,1.879H1003.125z"/>
		<path style="fill:#31343C;" d="M1021.059,967.922v5.977h-17.934v-5.977H1021.059 M1021.059,964.168h-17.934
			c-2.074,0-3.758,1.68-3.758,3.754v5.977c0,2.074,1.684,3.762,3.758,3.762h17.934c2.074,0,3.758-1.688,3.758-3.762v-5.977
			C1024.816,965.848,1023.133,964.168,1021.059,964.168L1021.059,964.168z"/>
	</g>
	<g>
		<path style="fill:#7B858D;" d="M1483.727,979.723c-0.48,0-0.957-0.184-1.324-0.555l-4.422-4.418l-4.426,4.418
			c-0.363,0.371-0.844,0.555-1.324,0.555c-0.484,0-0.957-0.184-1.328-0.555l-1.18-1.18c-0.734-0.734-0.734-1.918,0-2.652
			l4.422-4.426l-4.422-4.422c-0.734-0.727-0.734-1.918,0-2.652l1.18-1.184c0.352-0.355,0.836-0.555,1.328-0.555
			c0.504,0,0.977,0.199,1.332,0.555l4.418,4.426l4.422-4.426c0.352-0.355,0.832-0.555,1.324-0.555l0,0c0.5,0,0.98,0.199,1.332,0.555
			l1.184,1.184c0.73,0.734,0.73,1.926,0,2.652l-4.422,4.422l4.422,4.426c0.73,0.734,0.73,1.918,0,2.652l-1.188,1.18
			C1484.691,979.539,1484.215,979.723,1483.727,979.723z"/>
		<path style="fill:#31343C;" d="M1483.727,963.977l1.188,1.188l-5.746,5.746l5.746,5.754l-1.188,1.184l-5.746-5.75l-5.75,5.75
			l-1.184-1.184l5.746-5.754l-5.746-5.746l1.184-1.188l5.75,5.754L1483.727,963.977 M1483.727,960.223
			c-0.988,0-1.945,0.398-2.652,1.102l-3.094,3.094l-3.094-3.094c-0.703-0.703-1.66-1.102-2.656-1.102l0,0
			c-0.996,0-1.949,0.398-2.66,1.102l-1.18,1.188c-1.465,1.465-1.461,3.84,0,5.309l3.102,3.09l-3.102,3.094
			c-1.465,1.465-1.465,3.844,0,5.313l1.188,1.184c0.703,0.707,1.656,1.098,2.652,1.098s1.953-0.391,2.656-1.098l3.094-3.094
			l3.094,3.094c0.707,0.707,1.664,1.098,2.652,1.098l0,0c0.996,0,1.953-0.391,2.66-1.098l1.18-1.184
			c1.473-1.469,1.473-3.848,0-5.313l-3.094-3.094l3.094-3.09c1.465-1.469,1.473-3.844,0.004-5.309l-1.184-1.188
			c-0.707-0.703-1.656-1.102-2.652-1.102H1483.727L1483.727,960.223z"/>
	</g>
	<g>
		<path style="fill:#7B858D;" d="M971.387,1215.223c-1.035,0-1.875-0.836-1.875-1.871v-5.984c0-1.035,0.84-1.875,1.875-1.875h35.875
			c1.039,0,1.879,0.84,1.879,1.875v5.984c0,1.035-0.84,1.871-1.879,1.871H971.387z"/>
		<path style="fill:#31343C;" d="M1007.262,1207.367v5.984h-35.875v-5.984H1007.262 M1007.262,1203.613h-35.875
			c-2.07,0-3.754,1.684-3.754,3.754v5.984c0,2.07,1.684,3.746,3.754,3.746h35.875c2.074,0,3.754-1.676,3.754-3.746v-5.984
			C1011.016,1205.297,1009.336,1203.613,1007.262,1203.613L1007.262,1203.613z"/>
	</g>
	<g>
		<path style="fill:#7B858D;" d="M971.387,1231.277c-1.035,0-1.875-0.84-1.875-1.879v-5.977c0-1.035,0.84-1.875,1.875-1.875h197.137
			c1.039,0,1.879,0.84,1.879,1.875v5.977c0,1.039-0.84,1.879-1.879,1.879H971.387z"/>
		<path style="fill:#31343C;" d="M1168.523,1223.422v5.977H971.387v-5.977H1168.523 M1168.523,1219.672H971.387
			c-2.07,0-3.754,1.68-3.754,3.75v5.977c0,2.074,1.684,3.754,3.754,3.754h197.137c2.074,0,3.754-1.68,3.754-3.754v-5.977
			C1172.277,1221.352,1170.598,1219.672,1168.523,1219.672L1168.523,1219.672z"/>
	</g>
	<g>
		<path style="fill:#7B858D;" d="M971.387,1240.996c-1.035,0-1.875-0.84-1.875-1.879v-5.977c0-1.035,0.84-1.875,1.875-1.875h197.137
			c1.039,0,1.879,0.84,1.879,1.875v5.977c0,1.039-0.84,1.879-1.879,1.879H971.387z"/>
		<path style="fill:#31343C;" d="M1168.523,1233.141v5.977H971.387v-5.977H1168.523 M1168.523,1229.391H971.387
			c-2.07,0-3.754,1.68-3.754,3.75v5.977c0,2.074,1.684,3.762,3.754,3.762h197.137c2.074,0,3.754-1.688,3.754-3.762v-5.977
			C1172.277,1231.07,1170.598,1229.391,1168.523,1229.391L1168.523,1229.391z"/>
	</g>
	<g>
		<path style="fill:#7B858D;" d="M971.387,1250.719c-1.035,0-1.875-0.84-1.875-1.875v-5.984c0-1.035,0.84-1.875,1.875-1.875h197.137
			c1.039,0,1.879,0.84,1.879,1.875v5.984c0,1.035-0.84,1.875-1.879,1.875H971.387z"/>
		<path style="fill:#31343C;" d="M1168.523,1242.859v5.984H971.387v-5.984H1168.523 M1168.523,1239.105H971.387
			c-2.07,0-3.754,1.684-3.754,3.754v5.984c0,2.07,1.684,3.754,3.754,3.754h197.137c2.074,0,3.754-1.684,3.754-3.754v-5.984
			C1172.277,1240.789,1170.598,1239.105,1168.523,1239.105L1168.523,1239.105z"/>
	</g>
	<g>
		<path style="fill:#7B858D;" d="M971.387,1260.438c-1.035,0-1.875-0.84-1.875-1.883v-5.973c0-1.035,0.84-1.875,1.875-1.875h197.137
			c1.039,0,1.879,0.84,1.879,1.875v5.973c0,1.043-0.84,1.883-1.879,1.883H971.387z"/>
		<path style="fill:#31343C;" d="M1168.523,1252.582v5.973H971.387v-5.973H1168.523 M1168.523,1248.824H971.387
			c-2.07,0-3.754,1.688-3.754,3.758v5.973c0,2.078,1.684,3.762,3.754,3.762h197.137c2.074,0,3.754-1.684,3.754-3.762v-5.973
			C1172.277,1250.512,1170.598,1248.824,1168.523,1248.824L1168.523,1248.824z"/>
	</g>
	<g>
		<path style="fill:#7B858D;" d="M1331.406,1231.277c-1.035,0-1.875-0.84-1.875-1.879v-5.977c0-1.035,0.84-1.875,1.875-1.875
			h146.574c1.035,0,1.875,0.84,1.875,1.875v5.977c0,1.039-0.84,1.879-1.875,1.879H1331.406z"/>
		<path style="fill:#31343C;" d="M1477.98,1223.422v5.977h-146.574v-5.977H1477.98 M1477.98,1219.672h-146.574
			c-2.078,0-3.754,1.68-3.754,3.75v5.977c0,2.074,1.676,3.754,3.754,3.754h146.574c2.07,0,3.754-1.68,3.754-3.754v-5.977
			C1481.734,1221.352,1480.051,1219.672,1477.98,1219.672L1477.98,1219.672z"/>
	</g>
	<g>
		<path style="fill:#7B858D;" d="M1331.406,1240.996c-1.035,0-1.875-0.84-1.875-1.879v-5.977c0-1.035,0.84-1.875,1.875-1.875
			h146.574c1.035,0,1.875,0.84,1.875,1.875v5.977c0,1.039-0.84,1.879-1.875,1.879H1331.406z"/>
		<path style="fill:#31343C;" d="M1477.98,1233.141v5.977h-146.574v-5.977H1477.98 M1477.98,1229.391h-146.574
			c-2.078,0-3.754,1.68-3.754,3.75v5.977c0,2.074,1.676,3.762,3.754,3.762h146.574c2.07,0,3.754-1.688,3.754-3.762v-5.977
			C1481.734,1231.07,1480.051,1229.391,1477.98,1229.391L1477.98,1229.391z"/>
	</g>
	<g>
		<path style="fill:#7B858D;" d="M1331.406,1250.719c-1.035,0-1.875-0.84-1.875-1.875v-5.984c0-1.035,0.84-1.875,1.875-1.875
			h146.574c1.035,0,1.875,0.84,1.875,1.875v5.984c0,1.035-0.84,1.875-1.875,1.875H1331.406z"/>
		<path style="fill:#31343C;" d="M1477.98,1242.859v5.984h-146.574v-5.984H1477.98 M1477.98,1239.105h-146.574
			c-2.078,0-3.754,1.684-3.754,3.754v5.984c0,2.07,1.676,3.754,3.754,3.754h146.574c2.07,0,3.754-1.684,3.754-3.754v-5.984
			C1481.734,1240.789,1480.051,1239.105,1477.98,1239.105L1477.98,1239.105z"/>
	</g>
	<g>
		<path style="fill:#7B858D;" d="M1331.406,1260.438c-1.035,0-1.875-0.84-1.875-1.883v-5.973c0-1.035,0.84-1.875,1.875-1.875
			h146.574c1.035,0,1.875,0.84,1.875,1.875v5.973c0,1.043-0.84,1.883-1.875,1.883H1331.406z"/>
		<path style="fill:#31343C;" d="M1477.98,1252.582v5.973h-146.574v-5.973H1477.98 M1477.98,1248.824h-146.574
			c-2.078,0-3.754,1.688-3.754,3.758v5.973c0,2.078,1.676,3.762,3.754,3.762h146.574c2.07,0,3.754-1.684,3.754-3.762v-5.973
			C1481.734,1250.512,1480.051,1248.824,1477.98,1248.824L1477.98,1248.824z"/>
	</g>
	<g>
		<path style="fill:#7B858D;" d="M1255.707,1007.203c-1.039,0-1.875-0.84-1.875-1.875v-5.98c0-1.035,0.836-1.875,1.875-1.875h35.875
			c1.039,0,1.879,0.84,1.879,1.875v5.98c0,1.035-0.84,1.875-1.879,1.875H1255.707z"/>
		<path style="fill:#31343C;" d="M1291.582,999.348v5.98h-35.875v-5.98H1291.582 M1291.582,995.594h-35.875
			c-2.074,0-3.754,1.684-3.754,3.754v5.98c0,2.078,1.68,3.754,3.754,3.754h35.875c2.07,0,3.754-1.676,3.754-3.754v-5.98
			C1295.336,997.277,1293.652,995.594,1291.582,995.594L1291.582,995.594z"/>
	</g>
	<g>
		<path style="fill:#7B858D;" d="M1311.188,1007.203c-1.035,0-1.875-0.84-1.875-1.875v-5.98c0-1.035,0.84-1.875,1.875-1.875h35.875
			c1.039,0,1.879,0.84,1.879,1.875v5.98c0,1.035-0.84,1.875-1.879,1.875H1311.188z"/>
		<path style="fill:#31343C;" d="M1347.063,999.348v5.98h-35.875v-5.98H1347.063 M1347.063,995.594h-35.875
			c-2.07,0-3.754,1.684-3.754,3.754v5.98c0,2.078,1.684,3.754,3.754,3.754h35.875c2.074,0,3.754-1.676,3.754-3.754v-5.98
			C1350.816,997.277,1349.137,995.594,1347.063,995.594L1347.063,995.594z"/>
	</g>
	<g>
		<path style="fill:#7B858D;" d="M1366.668,1007.203c-1.035,0-1.875-0.84-1.875-1.875v-5.98c0-1.035,0.84-1.875,1.875-1.875h35.879
			c1.035,0,1.875,0.84,1.875,1.875v5.98c0,1.035-0.84,1.875-1.875,1.875H1366.668z"/>
		<path style="fill:#31343C;" d="M1402.547,999.348v5.98h-35.879v-5.98H1402.547 M1402.547,995.594h-35.879
			c-2.07,0-3.754,1.684-3.754,3.754v5.98c0,2.078,1.684,3.754,3.754,3.754h35.879c2.07,0,3.75-1.676,3.75-3.754v-5.98
			C1406.297,997.277,1404.617,995.594,1402.547,995.594L1402.547,995.594z"/>
	</g>
	<g>
		<path style="fill:#7B858D;" d="M1422.148,1007.203c-1.035,0-1.875-0.84-1.875-1.875v-5.98c0-1.035,0.84-1.875,1.875-1.875h35.879
			c1.035,0,1.875,0.84,1.875,1.875v5.98c0,1.035-0.84,1.875-1.875,1.875H1422.148z"/>
		<path style="fill:#31343C;" d="M1458.027,999.348v5.98h-35.879v-5.98H1458.027 M1458.027,995.594h-35.879
			c-2.07,0-3.75,1.684-3.75,3.754v5.98c0,2.078,1.68,3.754,3.75,3.754h35.879c2.07,0,3.75-1.676,3.75-3.754v-5.98
			C1461.777,997.277,1460.098,995.594,1458.027,995.594L1458.027,995.594z"/>
	</g>
	<g>
		<path style="fill:#FFFFFF;" d="M1184.832,1167.594c-1.039,0-1.879-0.84-1.879-1.875v-123.891c0-1.039,0.84-1.879,1.879-1.879
			h293.148c1.035,0,1.875,0.84,1.875,1.879v123.891c0,1.035-0.84,1.875-1.875,1.875H1184.832z"/>
		<path style="fill:#31343C;" d="M1477.98,1041.828v123.891h-293.148v-123.891H1477.98 M1477.98,1038.066h-293.148
			c-2.074,0-3.754,1.688-3.754,3.762v123.891c0,2.07,1.68,3.75,3.754,3.75h293.148c2.07,0,3.754-1.68,3.754-3.75v-123.891
			C1481.734,1039.754,1480.051,1038.066,1477.98,1038.066L1477.98,1038.066z"/>
	</g>
	<g>
		<g>
			<path style="fill:#E86C52;" d="M1209.703,1258.613c-3.82,0-6.934-3.113-6.934-6.941v-40.941c0-3.828,3.113-6.934,6.934-6.934
				h40.945c3.824,0,6.934,3.105,6.934,6.934v40.941c0,3.828-3.109,6.941-6.934,6.941H1209.703z"/>
			<path style="fill:#31343C;" d="M1250.648,1205.672c2.793,0,5.059,2.266,5.059,5.059v40.941c0,2.793-2.266,5.059-5.059,5.059
				h-40.945c-2.789,0-5.055-2.266-5.055-5.059v-40.941c0-2.793,2.266-5.059,5.055-5.059H1250.648 M1250.648,1201.918h-40.945
				c-4.855,0-8.809,3.957-8.809,8.813v40.941c0,4.863,3.953,8.816,8.809,8.816h40.945c4.859,0,8.813-3.953,8.813-8.816v-40.941
				C1259.461,1205.875,1255.508,1201.918,1250.648,1201.918L1250.648,1201.918z"/>
		</g>
		<g>
			<path style="fill:#FFFFFF;" d="M1217.238,1247.605c-1.039,0-1.879-0.832-1.879-1.875v-15.645
				c-2.359-1.504-3.828-4.129-3.828-6.984c0-4.582,3.723-8.309,8.305-8.309c2.586,0,4.898,1.188,6.422,3.051
				c1.527-1.863,3.84-3.051,6.426-3.051c4.574,0,8.301,3.727,8.301,8.309c0,2.988-1.637,5.738-4.184,7.195v0.891l9.617-2.82
				c0.176-0.051,0.355-0.07,0.531-0.07c0.398,0,0.797,0.129,1.121,0.375c0.477,0.352,0.754,0.91,0.754,1.504v13.43
				c0,0.594-0.277,1.152-0.754,1.504c-0.324,0.246-0.723,0.375-1.121,0.375c-0.176,0-0.355-0.027-0.531-0.07l-9.617-2.82v3.137
				c0,1.043-0.84,1.875-1.879,1.875H1217.238z M1232.684,1221.793c-0.723,0-1.313,0.582-1.313,1.309c0,0.719,0.59,1.301,1.313,1.301
				c0.719,0,1.309-0.582,1.309-1.301C1233.992,1222.375,1233.402,1221.793,1232.684,1221.793z M1219.836,1221.793
				c-0.723,0-1.309,0.582-1.309,1.309c0,0.719,0.586,1.301,1.309,1.301s1.305-0.582,1.305-1.301
				C1221.141,1222.375,1220.559,1221.793,1219.836,1221.793z"/>
			<path style="fill:#31343C;" d="M1232.684,1216.668c3.547,0,6.422,2.883,6.422,6.434c0,2.754-1.738,5.098-4.184,6.012v4.582
				l12.027-3.52v13.43l-12.027-3.52v5.645h-17.684v-16.758c-2.254-0.996-3.828-3.25-3.828-5.871c0-3.551,2.879-6.434,6.426-6.434
				s6.422,2.883,6.422,6.434c0,1.988-0.906,3.773-2.328,4.949h4.664c-1.43-1.176-2.336-2.961-2.336-4.949
				C1226.258,1219.551,1229.133,1216.668,1232.684,1216.668 M1232.684,1226.281c1.754,0,3.188-1.426,3.188-3.18
				c0-1.762-1.434-3.188-3.188-3.188c-1.758,0-3.184,1.426-3.184,3.188C1229.5,1224.855,1230.926,1226.281,1232.684,1226.281
				 M1219.836,1226.281c1.758,0,3.184-1.426,3.184-3.18c0-1.762-1.426-3.188-3.184-3.188c-1.762,0-3.184,1.426-3.184,3.188
				C1216.652,1224.855,1218.074,1226.281,1219.836,1226.281 M1232.684,1212.918c-2.434,0-4.668,0.855-6.426,2.289
				c-1.754-1.434-3.988-2.289-6.422-2.289c-5.613,0-10.184,4.566-10.184,10.184c0,3.133,1.449,6.051,3.832,7.945v14.684
				c0,2.07,1.68,3.754,3.754,3.754h17.684c2.074,0,3.754-1.684,3.754-3.754v-0.633l7.219,2.109c0.348,0.102,0.699,0.156,1.055,0.156
				c0.801,0,1.59-0.254,2.25-0.746c0.945-0.711,1.508-1.824,1.508-3.012v-13.43c0-1.188-0.563-2.301-1.508-3.004
				c-0.66-0.5-1.449-0.758-2.25-0.758c-0.355,0-0.707,0.059-1.055,0.156l-4.191,1.227c0.742-1.422,1.156-3.031,1.156-4.695
				C1242.859,1217.484,1238.293,1212.918,1232.684,1212.918L1232.684,1212.918z"/>
		</g>
	</g>
	<g>
		<path style="fill:#F4AA2A;" d="M1271.113,1258.613c-3.828,0-6.938-3.113-6.938-6.941v-40.941c0-3.828,3.109-6.934,6.938-6.934
			h40.941c3.824,0,6.934,3.105,6.934,6.934v40.941c0,3.828-3.109,6.941-6.934,6.941H1271.113z"/>
		<path style="fill:#31343C;" d="M1312.055,1205.672c2.793,0,5.059,2.266,5.059,5.059v40.941c0,2.793-2.266,5.059-5.059,5.059
			h-40.941c-2.797,0-5.059-2.266-5.059-5.059v-40.941c0-2.793,2.262-5.059,5.059-5.059H1312.055 M1312.055,1201.918h-40.941
			c-4.863,0-8.82,3.957-8.82,8.813v40.941c0,4.863,3.957,8.816,8.82,8.816h40.941c4.859,0,8.813-3.953,8.813-8.816v-40.941
			C1320.867,1205.875,1316.914,1201.918,1312.055,1201.918L1312.055,1201.918z"/>
	</g>
</g>
<g>
	<g>
		<g>
			<g>
				<polygon style="fill:#31343C;" points="305.305,523.512 303.066,520.25 520.801,284.289 523.047,287.555 				"/>
			</g>
		</g>
		<g>
			<g>
				<polygon style="fill:#31343C;" points="1153.863,525.957 1156.105,522.691 523.18,284.289 520.941,287.555 				"/>
			</g>
		</g>
		<g>
			<g>
				<g>
					<g>
						<path style="fill:#F4AA2A;" d="M362.859,596.996c-1.258,0-2.277-1.016-2.277-2.277v-10.543l-29.801-48.629v52.574
							c0,1.258-1.02,2.277-2.277,2.277h-13.188c-1.262,0-2.277-1.019-2.277-2.277v-63.797c0-1.258,1.016-2.277,2.277-2.277h24.457
							c0.793,0,1.527,0.41,1.941,1.09l18.867,30.789v-36.203c0-1.258,1.02-2.277,2.277-2.277h13.203
							c1.258,0,2.277,1.019,2.277,2.277v4.324h4.316c0.793,0,1.531,0.41,1.945,1.086l21.688,35.387v-34.195
							c0-1.258,1.02-2.277,2.277-2.277h13.188c1.258,0,2.277,1.02,2.277,2.277v63.797c0,1.258-1.02,2.277-2.277,2.277h-13.188
							c-0.793,0-1.527-0.414-1.941-1.086L378.34,543.16v39.73l2.473,4.039c0.43,0.703,0.449,1.586,0.043,2.305
							c-0.402,0.719-1.16,1.164-1.984,1.164h-0.531v4.32c0,1.262-1.02,2.277-2.277,2.277H362.859z"/>
						<path style="fill:#31343C;" d="M376.063,517.723v6.602h6.594l25.91,42.273v-42.273h13.188v63.797h-13.188l-32.504-53.039
							v48.449l2.809,4.59h-2.809v6.598h-13.203v-11.188l-34.355-56.063v60.652h-13.188v-63.797h11.262h1.926h11.269l23.086,37.68
							v-44.281H376.063 M376.063,513.168h-13.203c-2.516,0-4.555,2.039-4.555,4.555v28.121l-14.645-23.898
							c-0.828-1.352-2.301-2.18-3.887-2.18h-11.269h-1.926h-11.262c-2.52,0-4.559,2.039-4.559,4.559v63.797
							c0,2.516,2.039,4.555,4.559,4.555h13.188c2.519,0,4.559-2.039,4.559-4.555v-44.496l25.242,41.191v9.902
							c0,2.52,2.039,4.559,4.555,4.559h13.203c2.516,0,4.555-2.039,4.555-4.559v-2.391c0.93-0.387,1.719-1.074,2.227-1.98
							c0.809-1.438,0.773-3.203-0.086-4.606l-2.141-3.496v-31.008L404.68,590.5c0.828,1.352,2.301,2.176,3.887,2.176h13.188
							c2.52,0,4.559-2.039,4.559-4.555v-63.797c0-2.52-2.039-4.559-4.559-4.559h-13.188c-2.52,0-4.559,2.039-4.559,4.559v26.113
							l-17.465-28.492c-0.828-1.352-2.297-2.18-3.887-2.18h-2.039v-2.043C380.617,515.207,378.578,513.168,376.063,513.168
							L376.063,513.168z"/>
					</g>
					<g>
						<path style="fill:#F4AA2A;" d="M460.855,590.398c-0.789,0-1.527-0.414-1.941-1.086l-39.102-63.797
							c-0.43-0.703-0.449-1.586-0.047-2.305c0.402-0.719,1.164-1.164,1.988-1.164h13.195c0.793,0,1.527,0.41,1.941,1.086
							l21.688,35.387v-34.195c0-1.258,1.02-2.277,2.277-2.277h13.195c1.258,0,2.277,1.02,2.277,2.277v63.797
							c0,1.258-1.02,2.277-2.277,2.277H460.855z"/>
						<path style="fill:#31343C;" d="M474.051,524.324v63.797h-13.195l-39.102-63.797h13.195l25.906,42.273v-42.273H474.051
							 M474.051,519.766h-13.195c-2.516,0-4.559,2.039-4.559,4.559v26.113l-17.461-28.492c-0.828-1.352-2.301-2.18-3.887-2.18
							h-13.195c-1.648,0-3.168,0.895-3.977,2.332c-0.805,1.441-0.77,3.203,0.09,4.609l39.102,63.793
							c0.828,1.352,2.301,2.176,3.887,2.176h13.195c2.52,0,4.559-2.039,4.559-4.555v-63.797
							C478.609,521.805,476.57,519.766,474.051,519.766L474.051,519.766z"/>
					</g>
					<g>
						<path style="fill:#F4AA2A;" d="M513.148,590.398c-0.793,0-1.527-0.414-1.941-1.086l-39.098-63.797
							c-0.43-0.703-0.449-1.586-0.047-2.305c0.402-0.719,1.164-1.164,1.988-1.164h13.195c0.789,0,1.527,0.41,1.941,1.086
							l21.684,35.379v-34.188c0-1.258,1.016-2.277,2.277-2.277h13.191c1.262,0,2.277,1.02,2.277,2.277v63.797
							c0,1.258-1.016,2.277-2.277,2.277H513.148z"/>
						<path style="fill:#31343C;" d="M526.34,524.324v63.797h-13.191l-39.098-63.797h13.195l25.902,42.262v-42.262H526.34
							 M526.34,519.766h-13.191c-2.52,0-4.559,2.039-4.559,4.559v26.105l-17.457-28.484c-0.828-1.352-2.301-2.18-3.887-2.18h-13.195
							c-1.652,0-3.172,0.895-3.977,2.332c-0.805,1.441-0.77,3.199,0.09,4.609l39.098,63.793c0.828,1.352,2.301,2.176,3.887,2.176
							h13.191c2.52,0,4.559-2.039,4.559-4.555v-63.797C530.898,521.805,528.859,519.766,526.34,519.766L526.34,519.766z"/>
					</g>
					<g>
						<path style="fill:#F4AA2A;" d="M565.441,590.398c-0.789,0-1.527-0.414-1.941-1.086l-39.102-63.797
							c-0.43-0.703-0.449-1.586-0.047-2.305c0.402-0.719,1.164-1.164,1.988-1.164h13.195c0.793,0,1.527,0.41,1.941,1.086
							l21.688,35.383v-34.191c0-1.258,1.02-2.277,2.277-2.277h13.195c1.262,0,2.277,1.02,2.277,2.277v63.797
							c0,1.258-1.016,2.277-2.277,2.277H565.441z"/>
						<path style="fill:#31343C;" d="M578.637,524.324v63.797h-13.195l-39.102-63.797h13.195l25.906,42.269v-42.269H578.637
							 M578.637,519.766h-13.195c-2.516,0-4.555,2.039-4.555,4.559v26.113l-17.465-28.492c-0.828-1.352-2.301-2.18-3.887-2.18
							H526.34c-1.648,0-3.168,0.895-3.973,2.332c-0.809,1.441-0.773,3.203,0.09,4.609l39.102,63.793
							c0.828,1.352,2.297,2.176,3.883,2.176h13.195c2.52,0,4.559-2.039,4.559-4.555v-63.797
							C583.195,521.805,581.156,519.766,578.637,519.766L578.637,519.766z"/>
					</g>
					<g>
						<path style="fill:#F4AA2A;" d="M617.734,590.398c-0.793,0-1.527-0.414-1.941-1.086l-39.098-63.797
							c-0.43-0.703-0.449-1.586-0.047-2.305c0.402-0.719,1.164-1.164,1.988-1.164h13.191c0.789,0,1.527,0.41,1.941,1.086
							l21.688,35.387v-34.195c0-1.258,1.02-2.277,2.277-2.277h13.195c1.258,0,2.277,1.02,2.277,2.277v63.797
							c0,1.258-1.019,2.277-2.277,2.277H617.734z"/>
						<path style="fill:#31343C;" d="M630.93,524.324v63.797h-13.195l-39.098-63.797h13.191l25.906,42.273v-42.273H630.93
							 M630.93,519.766h-13.195c-2.52,0-4.559,2.039-4.559,4.559v26.113l-17.465-28.492c-0.828-1.352-2.297-2.18-3.883-2.18h-13.191
							c-1.648,0-3.168,0.895-3.977,2.332c-0.805,1.441-0.77,3.199,0.09,4.609l39.098,63.793c0.828,1.352,2.301,2.176,3.887,2.176
							h13.195c2.516,0,4.555-2.039,4.555-4.555v-63.797C635.484,521.805,633.445,519.766,630.93,519.766L630.93,519.766z"/>
					</g>
					<g>
						<path style="fill:#F4AA2A;" d="M670.031,590.398c-0.793,0-1.527-0.414-1.942-1.086l-39.102-63.797
							c-0.434-0.703-0.453-1.586-0.051-2.305c0.406-0.719,1.164-1.164,1.992-1.164h13.191c0.793,0,1.527,0.41,1.941,1.086
							l21.691,35.387v-34.195c0-1.258,1.016-2.277,2.277-2.277h13.191c1.262,0,2.281,1.02,2.281,2.277v63.797
							c0,1.258-1.02,2.277-2.281,2.277H670.031z"/>
						<path style="fill:#31343C;" d="M683.223,524.324v63.797h-13.191l-39.102-63.797h13.191l25.91,42.273v-42.273H683.223
							 M683.223,519.766h-13.191c-2.52,0-4.559,2.039-4.559,4.559v26.113l-17.465-28.492c-0.828-1.352-2.297-2.18-3.887-2.18H630.93
							c-1.652,0-3.172,0.895-3.977,2.332c-0.805,1.441-0.773,3.203,0.09,4.609l39.101,63.793c0.828,1.352,2.301,2.176,3.887,2.176
							h13.191c2.52,0,4.559-2.039,4.559-4.555v-63.797C687.781,521.805,685.742,519.766,683.223,519.766L683.223,519.766z"/>
					</g>
					<g>
						<path style="fill:#F4AA2A;" d="M722.32,590.398c-0.793,0-1.527-0.414-1.941-1.086l-39.098-63.797
							c-0.43-0.703-0.449-1.586-0.047-2.305c0.402-0.719,1.164-1.164,1.988-1.164h13.191c0.793,0,1.527,0.41,1.941,1.086
							l21.688,35.379v-34.188c0-1.258,1.019-2.277,2.277-2.277h13.195c1.258,0,2.277,1.02,2.277,2.277v63.797
							c0,1.258-1.02,2.277-2.277,2.277H722.32z"/>
						<path style="fill:#31343C;" d="M735.516,524.324v63.797H722.32l-39.098-63.797h13.191l25.906,42.262v-42.262H735.516
							 M735.516,519.766H722.32c-2.516,0-4.559,2.039-4.559,4.559v26.109l-17.461-28.488c-0.832-1.352-2.301-2.18-3.887-2.18
							h-13.191c-1.648,0-3.168,0.895-3.973,2.332c-0.809,1.441-0.773,3.199,0.09,4.609l39.094,63.793
							c0.828,1.352,2.301,2.176,3.887,2.176h13.195c2.52,0,4.559-2.039,4.559-4.555v-63.797
							C740.074,521.805,738.035,519.766,735.516,519.766L735.516,519.766z"/>
					</g>
					<g>
						<path style="fill:#F4AA2A;" d="M774.617,590.398c-0.793,0-1.527-0.414-1.941-1.086l-39.102-63.797
							c-0.43-0.703-0.449-1.586-0.047-2.305c0.402-0.719,1.164-1.164,1.988-1.164h13.199c0.793,0,1.527,0.41,1.942,1.086
							l21.683,35.379v-34.188c0-1.258,1.02-2.277,2.277-2.277h13.195c1.258,0,2.277,1.02,2.277,2.277v63.797
							c0,1.258-1.02,2.277-2.277,2.277H774.617z"/>
						<path style="fill:#31343C;" d="M787.813,524.324v63.797h-13.195l-39.102-63.797h13.199l25.902,42.262v-42.262H787.813
							 M787.813,519.766h-13.195c-2.52,0-4.559,2.039-4.559,4.559v26.105l-17.457-28.484c-0.828-1.352-2.301-2.18-3.887-2.18
							h-13.199c-1.652,0-3.172,0.895-3.977,2.332c-0.805,1.441-0.773,3.203,0.09,4.609L770.73,590.5
							c0.828,1.352,2.301,2.176,3.887,2.176h13.195c2.516,0,4.555-2.039,4.555-4.555v-63.797
							C792.367,521.805,790.328,519.766,787.813,519.766L787.813,519.766z"/>
					</g>
					<g>
						<path style="fill:#F4AA2A;" d="M826.906,590.398c-0.789,0-1.527-0.414-1.941-1.086l-39.094-63.797
							c-0.434-0.703-0.453-1.586-0.047-2.305c0.402-0.719,1.16-1.164,1.988-1.164H801c0.793,0,1.527,0.41,1.941,1.086l21.688,35.379
							v-34.188c0-1.258,1.019-2.277,2.277-2.277h13.195c1.258,0,2.277,1.02,2.277,2.277v63.797c0,1.258-1.02,2.277-2.277,2.277
							H826.906z"/>
						<path style="fill:#31343C;" d="M840.102,524.324v63.797h-13.195l-39.094-63.797H801l25.906,42.262v-42.262H840.102
							 M840.102,519.766h-13.195c-2.516,0-4.555,2.039-4.555,4.559v26.109l-17.465-28.488c-0.832-1.352-2.301-2.18-3.887-2.18
							h-13.188c-1.652,0-3.172,0.895-3.977,2.332c-0.805,1.441-0.773,3.199,0.09,4.609l39.098,63.793
							c0.828,1.352,2.297,2.176,3.883,2.176h13.195c2.52,0,4.559-2.039,4.559-4.555v-63.797
							C844.66,521.805,842.621,519.766,840.102,519.766L840.102,519.766z"/>
					</g>
					<g>
						<path style="fill:#F4AA2A;" d="M879.203,590.398c-0.789,0-1.527-0.414-1.941-1.086l-39.102-63.797
							c-0.43-0.703-0.449-1.586-0.047-2.305c0.402-0.719,1.164-1.164,1.988-1.164h13.199c0.793,0,1.527,0.41,1.941,1.086
							l21.684,35.379v-34.188c0-1.258,1.019-2.277,2.277-2.277h13.195c1.258,0,2.277,1.02,2.277,2.277v63.797
							c0,1.258-1.02,2.277-2.277,2.277H879.203z"/>
						<path style="fill:#31343C;" d="M892.398,524.324v63.797h-13.195l-39.102-63.797h13.199l25.902,42.262v-42.262H892.398
							 M892.398,519.766h-13.195c-2.516,0-4.555,2.039-4.555,4.559v26.105l-17.461-28.484c-0.828-1.352-2.301-2.18-3.887-2.18
							h-13.199c-1.648,0-3.168,0.895-3.977,2.332c-0.805,1.441-0.77,3.203,0.09,4.609l39.102,63.793
							c0.828,1.352,2.301,2.176,3.887,2.176h13.195c2.52,0,4.559-2.039,4.559-4.555v-63.797
							C896.957,521.805,894.918,519.766,892.398,519.766L892.398,519.766z"/>
					</g>
					<g>
						<path style="fill:#F4AA2A;" d="M931.496,590.398c-0.793,0-1.527-0.414-1.941-1.086l-39.098-63.797
							c-0.43-0.703-0.449-1.586-0.047-2.305c0.402-0.719,1.164-1.164,1.988-1.164h13.195c0.789,0,1.527,0.41,1.941,1.086
							l21.684,35.379v-34.188c0-1.258,1.016-2.277,2.277-2.277h13.191c1.262,0,2.277,1.02,2.277,2.277v63.797
							c0,1.258-1.016,2.277-2.277,2.277H931.496z"/>
						<path style="fill:#31343C;" d="M944.688,524.324v63.797h-13.191l-39.098-63.797h13.195l25.902,42.262v-42.262H944.688
							 M944.688,519.766h-13.191c-2.52,0-4.559,2.039-4.559,4.559v26.105l-17.457-28.484c-0.828-1.352-2.301-2.18-3.887-2.18
							h-13.195c-1.652,0-3.168,0.895-3.977,2.332c-0.805,1.441-0.77,3.199,0.09,4.609l39.098,63.793
							c0.828,1.352,2.301,2.176,3.887,2.176h13.191c2.519,0,4.559-2.039,4.559-4.555v-63.797
							C949.246,521.805,947.207,519.766,944.688,519.766L944.688,519.766z"/>
					</g>
					<g>
						<path style="fill:#F4AA2A;" d="M983.789,590.398c-0.789,0-1.527-0.414-1.941-1.086l-39.102-63.797
							c-0.43-0.703-0.449-1.586-0.047-2.305c0.402-0.719,1.164-1.164,1.988-1.164h13.195c0.793,0,1.527,0.41,1.941,1.086
							l21.688,35.383v-34.191c0-1.258,1.02-2.277,2.277-2.277h13.195c1.262,0,2.277,1.02,2.277,2.277v63.797
							c0,1.258-1.016,2.277-2.277,2.277H983.789z"/>
						<path style="fill:#31343C;" d="M996.984,524.324v63.797h-13.195l-39.102-63.797h13.195l25.906,42.269v-42.269H996.984
							 M996.984,519.766h-13.195c-2.516,0-4.555,2.039-4.555,4.559v26.113l-17.465-28.492c-0.828-1.352-2.301-2.18-3.887-2.18
							h-13.195c-1.648,0-3.168,0.895-3.973,2.332c-0.809,1.441-0.773,3.203,0.09,4.609l39.102,63.793
							c0.828,1.352,2.297,2.176,3.883,2.176h13.195c2.519,0,4.559-2.039,4.559-4.555v-63.797
							C1001.543,521.805,999.504,519.766,996.984,519.766L996.984,519.766z"/>
					</g>
					<g>
						<path style="fill:#F4AA2A;" d="M1036.082,590.398c-0.793,0-1.527-0.414-1.941-1.086l-39.098-63.797
							c-0.43-0.703-0.449-1.586-0.047-2.305c0.402-0.719,1.164-1.164,1.988-1.164h13.191c0.789,0,1.527,0.41,1.941,1.086
							l21.688,35.387v-34.195c0-1.258,1.02-2.277,2.277-2.277h13.195c1.258,0,2.277,1.02,2.277,2.277v63.797
							c0,1.258-1.02,2.277-2.277,2.277H1036.082z"/>
						<path style="fill:#31343C;" d="M1049.277,524.324v63.797h-13.195l-39.098-63.797h13.191l25.906,42.273v-42.273H1049.277
							 M1049.277,519.766h-13.195c-2.52,0-4.559,2.039-4.559,4.559v26.113l-17.465-28.492c-0.828-1.352-2.297-2.18-3.883-2.18
							h-13.191c-1.648,0-3.168,0.895-3.977,2.332c-0.805,1.441-0.769,3.199,0.09,4.609l39.098,63.793
							c0.828,1.352,2.301,2.176,3.887,2.176h13.195c2.516,0,4.555-2.039,4.555-4.555v-63.797
							C1053.832,521.805,1051.793,519.766,1049.277,519.766L1049.277,519.766z"/>
					</g>
					<g>
						<path style="fill:#F4AA2A;" d="M1088.379,590.398c-0.793,0-1.527-0.414-1.941-1.086l-39.102-63.797
							c-0.434-0.703-0.453-1.586-0.051-2.305c0.406-0.719,1.164-1.164,1.992-1.164h13.191c0.793,0,1.527,0.41,1.941,1.086
							l21.691,35.383v-34.191c0-1.258,1.016-2.277,2.277-2.277h13.195c1.258,0,2.277,1.02,2.277,2.277v63.797
							c0,1.258-1.02,2.277-2.277,2.277H1088.379z"/>
						<path style="fill:#31343C;" d="M1101.574,524.324v63.797h-13.195l-39.102-63.797h13.191l25.91,42.269v-42.269H1101.574
							 M1101.574,519.766h-13.195c-2.52,0-4.559,2.039-4.559,4.559v26.113l-17.465-28.492c-0.828-1.352-2.297-2.18-3.887-2.18
							h-13.191c-1.652,0-3.172,0.895-3.977,2.332c-0.805,1.441-0.773,3.203,0.09,4.609l39.102,63.793
							c0.828,1.352,2.301,2.176,3.887,2.176h13.195c2.516,0,4.555-2.039,4.555-4.555v-63.797
							C1106.129,521.805,1104.09,519.766,1101.574,519.766L1101.574,519.766z"/>
					</g>
					<g>
						<path style="fill:#F4AA2A;" d="M1230.336,590.398c-0.496,0-0.988-0.168-1.387-0.473l-72.809-55.914v54.109
							c0,1.258-1.02,2.277-2.277,2.277h-13.195c-0.793,0-1.527-0.414-1.941-1.086l-39.098-63.797
							c-0.43-0.703-0.449-1.586-0.047-2.305c0.402-0.719,1.164-1.164,1.992-1.164h13.191c0.793,0,1.527,0.41,1.941,1.09
							l21.684,35.379v-34.191c0-1.258,1.02-2.277,2.277-2.277h26.391c0.516,0,1.02,0.176,1.426,0.5l79.531,63.797
							c0.75,0.602,1.039,1.617,0.719,2.531c-0.316,0.91-1.18,1.523-2.148,1.523H1230.336z"/>
						<path style="fill:#31343C;" d="M1167.059,524.324l79.527,63.797h-16.25l-76.473-58.73v58.73h-13.195l-39.094-63.797h13.191
							l25.902,42.273v-42.273h6.598h6.598H1167.059 M1167.059,519.766h-13.195h-6.598h-6.598c-2.516,0-4.559,2.039-4.559,4.559
							v26.113l-17.457-28.492c-0.828-1.352-2.301-2.18-3.887-2.18h-13.191c-1.652,0-3.172,0.895-3.977,2.332
							c-0.809,1.441-0.773,3.199,0.09,4.609l39.094,63.793c0.828,1.352,2.301,2.176,3.887,2.176h13.195
							c2.52,0,4.559-2.039,4.559-4.555v-49.484l69.141,53.098c0.793,0.609,1.773,0.941,2.773,0.941h16.25
							c1.934,0,3.656-1.223,4.305-3.047c0.637-1.824,0.055-3.856-1.457-5.066l-79.523-63.793
							C1169.102,520.121,1168.094,519.766,1167.059,519.766L1167.059,519.766z"/>
					</g>
				</g>
				<g>
					<g>
						<path style="fill:#F4AA2A;" d="M217.895,596.996c-1.258,0-2.277-1.016-2.277-2.277v-13.195c0-1.258,1.02-2.277,2.277-2.277
							h7.422l69.832-56.016v-5.508c0-1.258,1.02-2.277,2.277-2.277h865.668c0.566,0,1.113,0.211,1.531,0.594l14.555,13.195
							c0.695,0.633,0.934,1.629,0.598,2.508c-0.34,0.879-1.184,1.457-2.129,1.457H309.402l-59.957,46.047h997.141
							c1.262,0,2.277,1.02,2.277,2.277v13.195c0,1.262-1.016,2.277-2.277,2.277H217.895z"/>
						<path style="fill:#31343C;" d="M1163.094,517.723l14.555,13.199h-869.02l-65.895,50.602h1003.852v13.195H217.895v-13.195
							h8.223l71.309-57.199v-6.602H1163.094 M1163.094,513.168H297.426c-2.516,0-4.559,2.039-4.559,4.555v4.414l-68.352,54.832
							h-6.621c-2.516,0-4.555,2.039-4.555,4.555v13.195c0,2.52,2.039,4.559,4.555,4.559h1028.691c2.52,0,4.555-2.039,4.555-4.559
							v-13.195c0-2.516-2.035-4.555-4.555-4.555H256.152l54.023-41.488h867.473c1.883,0,3.574-1.16,4.254-2.918
							c0.676-1.758,0.203-3.75-1.191-5.019l-14.555-13.195C1165.316,513.59,1164.227,513.168,1163.094,513.168L1163.094,513.168z"/>
					</g>
					<g>
						<g>
							<path style="fill:#C46D1F;" d="M217.895,601.371c-1.258,0-2.277-1.019-2.277-2.277v-4.375c0-1.258,1.02-2.277,2.277-2.277
								h1028.691c1.262,0,2.277,1.019,2.277,2.277v4.375c0,1.258-1.016,2.277-2.277,2.277H217.895z"/>
							<path style="fill:#31343C;" d="M1246.586,594.719v4.375H217.895v-4.375H1246.586 M1246.586,590.16H217.895
								c-2.516,0-4.555,2.043-4.555,4.558v4.375c0,2.516,2.039,4.555,4.555,4.555h1028.691c2.52,0,4.555-2.039,4.555-4.555v-4.375
								C1251.141,592.203,1249.105,590.16,1246.586,590.16L1246.586,590.16z"/>
						</g>
					</g>
				</g>
			</g>
			<g>
				<g>
					<g>
						<path style="fill:#F4AA2A;" d="M593.434,1445.695c-0.414,0-0.828-0.113-1.191-0.336l-63.801-39.102
							c-0.676-0.41-1.086-1.148-1.086-1.938v-13.199c0-1.258,1.016-2.277,2.277-2.277h63.801c1.258,0,2.277,1.02,2.277,2.277v13.199
							c0,1.254-1.019,2.273-2.277,2.273h-34.191l35.383,21.688c0.672,0.414,1.086,1.152,1.086,1.941v13.195
							c0,0.82-0.445,1.582-1.164,1.992C594.199,1445.602,593.816,1445.695,593.434,1445.695z"/>
						<path style="fill:#31343C;" d="M593.434,1391.121v13.199h-42.27l42.27,25.902v13.195l-63.801-39.098v-13.199H593.434
							 M593.434,1386.563h-63.801c-2.52,0-4.559,2.039-4.559,4.559v13.199c0,1.586,0.824,3.055,2.176,3.883l63.801,39.098
							c0.731,0.449,1.555,0.676,2.383,0.676c0.766,0,1.531-0.195,2.227-0.586c1.438-0.805,2.328-2.324,2.328-3.973v-13.195
							c0-1.582-0.824-3.055-2.176-3.887l-28.492-17.461h26.113c2.516,0,4.555-2.043,4.555-4.555v-13.199
							C597.988,1388.602,595.949,1386.563,593.434,1386.563L593.434,1386.563z"/>
					</g>
					<g>
						<path style="fill:#F4AA2A;" d="M593.434,1393.398c-0.414,0-0.828-0.113-1.191-0.336l-63.801-39.102
							c-0.676-0.414-1.086-1.152-1.086-1.941v-13.188c0-1.262,1.016-2.277,2.277-2.277h63.801c1.258,0,2.277,1.016,2.277,2.277
							v13.188c0,1.258-1.019,2.277-2.277,2.277h-34.199l35.391,21.688c0.672,0.414,1.086,1.148,1.086,1.941v13.195
							c0,0.828-0.445,1.582-1.164,1.988C594.199,1393.305,593.816,1393.398,593.434,1393.398z"/>
						<path style="fill:#31343C;" d="M593.434,1338.832v13.188h-42.277l42.277,25.906v13.195l-63.801-39.102v-13.188H593.434
							 M593.434,1334.27h-63.801c-2.52,0-4.559,2.043-4.559,4.563v13.188c0,1.59,0.824,3.063,2.176,3.883l63.801,39.109
							c0.731,0.445,1.555,0.664,2.383,0.664c0.766,0,1.531-0.191,2.227-0.574c1.438-0.809,2.328-2.328,2.328-3.98v-13.195
							c0-1.59-0.824-3.059-2.176-3.883l-28.496-17.469h26.117c2.516,0,4.555-2.035,4.555-4.555v-13.188
							C597.988,1336.313,595.949,1334.27,593.434,1334.27L593.434,1334.27z"/>
					</g>
					<g>
						<path style="fill:#F4AA2A;" d="M593.434,1341.109c-0.414,0-0.828-0.113-1.191-0.336l-63.801-39.098
							c-0.676-0.418-1.086-1.152-1.086-1.945v-13.195c0-1.254,1.016-2.277,2.277-2.277h63.801c1.258,0,2.277,1.023,2.277,2.277
							v13.195c0,1.262-1.019,2.281-2.277,2.281h-34.195l35.383,21.684c0.676,0.406,1.09,1.145,1.09,1.934v13.203
							c0,0.828-0.445,1.582-1.164,1.984C594.199,1341.012,593.816,1341.109,593.434,1341.109z"/>
						<path style="fill:#31343C;" d="M593.434,1286.535v13.195h-42.277l42.277,25.898v13.203l-63.801-39.102v-13.195H593.434
							 M593.434,1281.98h-63.801c-2.52,0-4.559,2.035-4.559,4.555v13.195c0,1.586,0.824,3.059,2.176,3.887l63.801,39.098
							c0.731,0.445,1.555,0.676,2.383,0.676c0.766,0,1.531-0.195,2.227-0.586c1.438-0.809,2.328-2.324,2.328-3.973v-13.203
							c0-1.582-0.824-3.055-2.176-3.883l-28.496-17.457h26.117c2.516,0,4.555-2.035,4.555-4.559v-13.195
							C597.988,1284.016,595.949,1281.98,593.434,1281.98L593.434,1281.98z"/>
					</g>
					<g>
						<path style="fill:#F4AA2A;" d="M593.434,1288.816c-0.414,0-0.828-0.117-1.191-0.336l-63.801-39.102
							c-0.676-0.414-1.086-1.152-1.086-1.941v-13.195c0-1.258,1.016-2.277,2.277-2.277h63.801c1.258,0,2.277,1.02,2.277,2.277
							v13.195c0,1.258-1.019,2.277-2.277,2.277h-34.191l35.383,21.684c0.672,0.414,1.086,1.148,1.086,1.941v13.195
							c0,0.828-0.445,1.59-1.164,1.992C594.199,1288.723,593.816,1288.816,593.434,1288.816z"/>
						<path style="fill:#31343C;" d="M593.434,1234.242v13.195h-42.27l42.27,25.902v13.195l-63.801-39.098v-13.195H593.434
							 M593.434,1229.684h-63.801c-2.52,0-4.559,2.043-4.559,4.559v13.195c0,1.586,0.824,3.063,2.176,3.891l63.801,39.094
							c0.731,0.449,1.555,0.672,2.383,0.672c0.766,0,1.531-0.195,2.227-0.582c1.438-0.805,2.328-2.32,2.328-3.977v-13.195
							c0-1.59-0.824-3.055-2.176-3.891L567.32,1252h26.113c2.516,0,4.555-2.043,4.555-4.563v-13.195
							C597.988,1231.727,595.949,1229.684,593.434,1229.684L593.434,1229.684z"/>
					</g>
					<g>
						<path style="fill:#F4AA2A;" d="M593.434,1236.52c-0.414,0-0.828-0.109-1.191-0.336l-63.801-39.102
							c-0.676-0.418-1.086-1.152-1.086-1.945v-13.188c0-1.262,1.016-2.277,2.277-2.277h63.801c1.258,0,2.277,1.016,2.277,2.277
							v13.188c0,1.258-1.019,2.281-2.277,2.281h-34.199l35.391,21.684c0.672,0.422,1.086,1.152,1.086,1.941v13.199
							c0,0.828-0.445,1.586-1.164,1.988C594.199,1236.426,593.816,1236.52,593.434,1236.52z"/>
						<path style="fill:#31343C;" d="M593.434,1181.949v13.188h-42.277l42.277,25.906v13.199l-63.801-39.105v-13.188H593.434
							 M593.434,1177.391h-63.801c-2.52,0-4.559,2.039-4.559,4.559v13.188c0,1.59,0.824,3.059,2.176,3.887l63.801,39.109
							c0.731,0.449,1.555,0.664,2.383,0.664c0.766,0,1.531-0.188,2.227-0.574c1.438-0.805,2.328-2.328,2.328-3.98v-13.199
							c0-1.582-0.824-3.055-2.176-3.883l-28.496-17.465h26.117c2.516,0,4.555-2.035,4.555-4.559v-13.188
							C597.988,1179.43,595.949,1177.391,593.434,1177.391L593.434,1177.391z"/>
					</g>
					<g>
						<path style="fill:#F4AA2A;" d="M593.434,1184.227c-0.414,0-0.828-0.113-1.191-0.336l-63.801-39.098
							c-0.676-0.414-1.086-1.152-1.086-1.941v-13.195c0-1.258,1.016-2.277,2.277-2.277h63.801c1.258,0,2.277,1.02,2.277,2.277
							v13.195c0,1.258-1.019,2.277-2.277,2.277h-34.191l35.383,21.684c0.672,0.414,1.086,1.152,1.086,1.941v13.195
							c0,0.82-0.445,1.582-1.164,1.984C594.199,1184.129,593.816,1184.227,593.434,1184.227z"/>
						<path style="fill:#31343C;" d="M593.434,1129.656v13.195h-42.27l42.27,25.902v13.195l-63.801-39.098v-13.195H593.434
							 M593.434,1125.102h-63.801c-2.52,0-4.559,2.035-4.559,4.555v13.195c0,1.59,0.824,3.055,2.176,3.887l63.801,39.098
							c0.731,0.441,1.555,0.672,2.383,0.672c0.766,0,1.531-0.195,2.227-0.586c1.438-0.801,2.328-2.324,2.328-3.973v-13.195
							c0-1.586-0.824-3.063-2.176-3.891l-28.492-17.457h26.113c2.516,0,4.555-2.039,4.555-4.555v-13.195
							C597.988,1127.137,595.949,1125.102,593.434,1125.102L593.434,1125.102z"/>
					</g>
					<g>
						<path style="fill:#F4AA2A;" d="M593.434,1131.934c-0.414,0-0.828-0.113-1.191-0.336l-63.801-39.102
							c-0.676-0.406-1.086-1.148-1.086-1.938v-13.199c0-1.258,1.016-2.277,2.277-2.277h63.801c1.258,0,2.277,1.02,2.277,2.277
							v13.199c0,1.262-1.019,2.273-2.277,2.273h-34.191l35.383,21.684c0.672,0.418,1.086,1.152,1.086,1.945v13.195
							c0,0.824-0.445,1.59-1.164,1.992C594.199,1131.84,593.816,1131.934,593.434,1131.934z"/>
						<path style="fill:#31343C;" d="M593.434,1077.359v13.199h-42.27l42.27,25.902v13.195l-63.801-39.098v-13.199H593.434
							 M593.434,1072.801h-63.801c-2.52,0-4.559,2.043-4.559,4.559v13.199c0,1.586,0.824,3.059,2.176,3.887l63.801,39.094
							c0.731,0.449,1.555,0.672,2.383,0.672c0.766,0,1.531-0.191,2.227-0.582c1.438-0.805,2.328-2.32,2.328-3.973v-13.195
							c0-1.586-0.824-3.059-2.176-3.887l-28.492-17.461h26.113c2.516,0,4.555-2.039,4.555-4.555v-13.199
							C597.988,1074.844,595.949,1072.801,593.434,1072.801L593.434,1072.801z"/>
					</g>
					<g>
						<path style="fill:#F4AA2A;" d="M593.434,1079.637c-0.414,0-0.828-0.109-1.191-0.336l-63.801-39.094
							c-0.676-0.414-1.086-1.152-1.086-1.941v-13.195c0-1.258,1.016-2.285,2.277-2.285h63.801c1.258,0,2.277,1.027,2.277,2.285
							v13.195c0,1.258-1.019,2.277-2.277,2.277h-34.191l35.383,21.68c0.672,0.414,1.086,1.148,1.086,1.945v13.191
							c0,0.828-0.445,1.59-1.164,1.988C594.199,1079.543,593.816,1079.637,593.434,1079.637z"/>
						<path style="fill:#31343C;" d="M593.434,1025.07v13.195h-42.27l42.27,25.902v13.191l-63.801-39.094v-13.195H593.434
							 M593.434,1020.508h-63.801c-2.52,0-4.559,2.039-4.559,4.563v13.195c0,1.586,0.824,3.059,2.176,3.883l63.801,39.102
							c0.731,0.441,1.555,0.672,2.383,0.672c0.766,0,1.531-0.195,2.227-0.59c1.438-0.801,2.328-2.328,2.328-3.973v-13.191
							c0-1.586-0.824-3.063-2.176-3.887l-28.492-17.461h26.113c2.516,0,4.555-2.039,4.555-4.555v-13.195
							C597.988,1022.547,595.949,1020.508,593.434,1020.508L593.434,1020.508z"/>
					</g>
					<g>
						<path style="fill:#F4AA2A;" d="M593.434,1027.34c-0.414,0-0.828-0.109-1.191-0.336l-63.801-39.094
							c-0.676-0.414-1.086-1.148-1.086-1.941v-13.195c0-1.258,1.016-2.277,2.277-2.277h63.801c1.258,0,2.277,1.02,2.277,2.277
							v13.195c0,1.266-1.019,2.277-2.277,2.277h-34.191l35.383,21.688c0.672,0.41,1.086,1.148,1.086,1.938v13.199
							c0,0.82-0.445,1.582-1.164,1.984C594.199,1027.246,593.816,1027.34,593.434,1027.34z"/>
						<path style="fill:#31343C;" d="M593.434,972.773v13.195h-42.27l42.27,25.902v13.199l-63.801-39.102v-13.195H593.434
							 M593.434,968.215h-63.801c-2.52,0-4.559,2.039-4.559,4.559v13.195c0,1.59,0.824,3.059,2.176,3.887l63.801,39.098
							c0.731,0.449,1.555,0.672,2.383,0.672c0.766,0,1.531-0.195,2.227-0.582c1.438-0.805,2.328-2.324,2.328-3.973v-13.199
							c0-1.586-0.824-3.055-2.176-3.883l-28.492-17.461h26.113c2.516,0,4.555-2.035,4.555-4.559v-13.195
							C597.988,970.254,595.949,968.215,593.434,968.215L593.434,968.215z"/>
					</g>
					<g>
						<path style="fill:#F4AA2A;" d="M593.434,975.051c-0.414,0-0.828-0.113-1.191-0.336l-63.801-39.098
							c-0.676-0.414-1.086-1.145-1.086-1.941v-13.195c0-1.258,1.016-2.277,2.277-2.277h63.801c1.258,0,2.277,1.02,2.277,2.277
							v13.195c0,1.262-1.019,2.277-2.277,2.277h-34.191l35.383,21.684c0.672,0.414,1.086,1.152,1.086,1.941v13.195
							c0,0.828-0.445,1.59-1.164,1.992C594.199,974.957,593.816,975.051,593.434,975.051z"/>
						<path style="fill:#31343C;" d="M593.434,920.481v13.195h-42.27l42.27,25.902v13.195l-63.801-39.098v-13.195H593.434
							 M593.434,915.922h-63.801c-2.52,0-4.559,2.039-4.559,4.559v13.195c0,1.586,0.824,3.063,2.176,3.883l63.801,39.098
							c0.731,0.453,1.555,0.672,2.383,0.672c0.766,0,1.531-0.191,2.227-0.578c1.438-0.809,2.328-2.332,2.328-3.977v-13.195
							c0-1.59-0.824-3.059-2.176-3.883l-28.492-17.457h26.113c2.516,0,4.555-2.043,4.555-4.563v-13.195
							C597.988,917.961,595.949,915.922,593.434,915.922L593.434,915.922z"/>
					</g>
					<g>
						<path style="fill:#F4AA2A;" d="M593.434,922.758c-0.414,0-0.828-0.113-1.191-0.336l-63.801-39.098
							c-0.676-0.414-1.086-1.148-1.086-1.941v-13.195c0-1.258,1.016-2.277,2.277-2.277h63.801c1.258,0,2.277,1.02,2.277,2.277
							v13.195c0,1.262-1.019,2.277-2.277,2.277h-34.195l35.383,21.684c0.676,0.414,1.09,1.148,1.09,1.941v13.195
							c0,0.824-0.445,1.586-1.164,1.988C594.199,922.664,593.816,922.758,593.434,922.758z"/>
						<path style="fill:#31343C;" d="M593.434,868.188v13.195h-42.277l42.277,25.902v13.195l-63.801-39.098v-13.195H593.434
							 M593.434,863.633h-63.801c-2.52,0-4.559,2.039-4.559,4.555v13.195c0,1.586,0.824,3.059,2.176,3.887l63.801,39.098
							c0.731,0.445,1.555,0.672,2.383,0.672c0.766,0,1.531-0.195,2.227-0.582c1.438-0.809,2.328-2.328,2.328-3.976v-13.195
							c0-1.586-0.824-3.059-2.176-3.887l-28.496-17.457h26.117c2.516,0,4.555-2.039,4.555-4.559v-13.195
							C597.988,865.672,595.949,863.633,593.434,863.633L593.434,863.633z"/>
					</g>
					<g>
						<path style="fill:#F4AA2A;" d="M593.434,870.465c-0.414,0-0.828-0.109-1.191-0.332l-63.801-39.102
							c-0.676-0.414-1.086-1.148-1.086-1.941v-13.195c0-1.258,1.016-2.277,2.277-2.277h63.801c1.258,0,2.277,1.02,2.277,2.277
							v13.195c0,1.258-1.019,2.277-2.277,2.277h-34.191l35.383,21.684c0.672,0.414,1.086,1.148,1.086,1.941v13.195
							c0,0.828-0.445,1.59-1.164,1.992C594.199,870.371,593.816,870.465,593.434,870.465z"/>
						<path style="fill:#31343C;" d="M593.434,815.894v13.195h-42.27l42.27,25.902v13.195l-63.801-39.098v-13.195H593.434
							 M593.434,811.34h-63.801c-2.52,0-4.559,2.039-4.559,4.555v13.195c0,1.586,0.824,3.059,2.176,3.887l63.801,39.098
							c0.731,0.445,1.555,0.672,2.383,0.672c0.766,0,1.531-0.191,2.227-0.582c1.438-0.805,2.328-2.324,2.328-3.977v-13.195
							c0-1.586-0.824-3.059-2.176-3.887l-28.492-17.457h26.113c2.516,0,4.555-2.039,4.555-4.559v-13.195
							C597.988,813.379,595.949,811.34,593.434,811.34L593.434,811.34z"/>
					</g>
					<g>
						<path style="fill:#F4AA2A;" d="M593.434,818.172c-0.414,0-0.828-0.109-1.191-0.336l-63.801-39.102
							c-0.676-0.414-1.086-1.148-1.086-1.941v-13.191c0-1.258,1.016-2.277,2.277-2.277h63.801c1.258,0,2.277,1.019,2.277,2.277
							v13.191c0,1.262-1.019,2.277-2.277,2.277h-34.195l35.383,21.688c0.676,0.414,1.09,1.148,1.09,1.941v13.195
							c0,0.828-0.445,1.586-1.164,1.992C594.199,818.078,593.816,818.172,593.434,818.172z"/>
						<path style="fill:#31343C;" d="M593.434,763.602v13.191h-42.277l42.277,25.906v13.195l-63.801-39.101v-13.191H593.434
							 M593.434,759.043h-63.801c-2.52,0-4.559,2.043-4.559,4.559v13.191c0,1.586,0.824,3.059,2.176,3.887l63.801,39.102
							c0.731,0.449,1.555,0.672,2.383,0.672c0.766,0,1.531-0.191,2.227-0.582c1.438-0.805,2.328-2.324,2.328-3.977v-13.195
							c0-1.586-0.824-3.059-2.176-3.887l-28.496-17.461h26.117c2.516,0,4.555-2.039,4.555-4.559v-13.191
							C597.988,761.086,595.949,759.043,593.434,759.043L593.434,759.043z"/>
					</g>
					<g>
						<path style="fill:#F4AA2A;" d="M593.434,765.879c-0.414,0-0.828-0.109-1.191-0.336l-63.801-39.098
							c-0.676-0.414-1.086-1.148-1.086-1.941v-13.195c0-1.258,1.016-2.277,2.277-2.277h63.801c1.258,0,2.277,1.02,2.277,2.277
							v13.195c0,1.258-1.019,2.277-2.277,2.277h-34.195l35.383,21.684c0.676,0.414,1.09,1.152,1.09,1.941v13.195
							c0,0.828-0.445,1.586-1.164,1.988C594.199,765.785,593.816,765.879,593.434,765.879z"/>
						<path style="fill:#31343C;" d="M593.434,711.309v13.195h-42.277l42.277,25.902v13.195l-63.801-39.098v-13.195H593.434
							 M593.434,706.75h-63.801c-2.52,0-4.559,2.039-4.559,4.559v13.195c0,1.586,0.824,3.059,2.176,3.887l63.801,39.098
							c0.731,0.445,1.555,0.672,2.383,0.672c0.766,0,1.531-0.192,2.227-0.582c1.438-0.805,2.328-2.324,2.328-3.977v-13.195
							c0-1.586-0.824-3.055-2.176-3.883l-28.496-17.461h26.117c2.516,0,4.555-2.043,4.555-4.559v-13.195
							C597.988,708.789,595.949,706.75,593.434,706.75L593.434,706.75z"/>
					</g>
					<g>
						<path style="fill:#F4AA2A;" d="M593.434,713.586c-0.414,0-0.828-0.113-1.191-0.336l-63.801-39.102
							c-0.676-0.414-1.086-1.148-1.086-1.941v-13.195c0-1.258,1.016-2.277,2.277-2.277h63.801c1.258,0,2.277,1.02,2.277,2.277
							v13.195c0,1.258-1.019,2.277-2.277,2.277h-34.191l35.383,21.688c0.672,0.414,1.086,1.152,1.086,1.941v13.195
							c0,0.824-0.445,1.586-1.164,1.988C594.199,713.492,593.816,713.586,593.434,713.586z"/>
						<path style="fill:#31343C;" d="M593.434,659.012v13.195h-42.27l42.27,25.906v13.195l-63.801-39.102v-13.195H593.434
							 M593.434,654.457h-63.801c-2.52,0-4.559,2.039-4.559,4.555v13.195c0,1.586,0.824,3.059,2.176,3.887l63.801,39.102
							c0.731,0.449,1.555,0.672,2.383,0.672c0.766,0,1.531-0.195,2.227-0.582c1.438-0.805,2.328-2.324,2.328-3.977v-13.195
							c0-1.586-0.824-3.059-2.176-3.887l-28.496-17.461h26.117c2.516,0,4.555-2.039,4.555-4.559v-13.195
							C597.988,656.496,595.949,654.457,593.434,654.457L593.434,654.457z"/>
					</g>
					<g>
						<path style="fill:#F4AA2A;" d="M593.434,661.289c-0.414,0-0.828-0.109-1.191-0.336l-63.801-39.098
							c-0.676-0.414-1.086-1.149-1.086-1.941v-13.191c0-1.258,1.016-2.277,2.277-2.277h63.801c1.258,0,2.277,1.019,2.277,2.277
							v13.191c0,1.258-1.019,2.277-2.277,2.277h-34.199l35.391,21.688c0.672,0.414,1.086,1.152,1.086,1.941v13.191
							c0,0.828-0.445,1.586-1.164,1.988C594.199,661.195,593.816,661.289,593.434,661.289z"/>
						<path style="fill:#31343C;" d="M593.434,606.723v13.191h-42.277l42.277,25.906v13.191l-63.801-39.098v-13.191H593.434
							 M593.434,602.164h-63.801c-2.52,0-4.559,2.039-4.559,4.559v13.191c0,1.586,0.824,3.059,2.176,3.887l63.801,39.098
							c0.731,0.449,1.555,0.672,2.383,0.672c0.766,0,1.531-0.191,2.227-0.582c1.438-0.805,2.328-2.324,2.328-3.977V645.82
							c0-1.586-0.824-3.059-2.176-3.887l-28.496-17.461h26.117c2.516,0,4.555-2.043,4.555-4.559v-13.191
							C597.988,604.203,595.949,602.164,593.434,602.164L593.434,602.164z"/>
					</g>
				</g>
				<g>
					<g>
						<path style="fill:#F4AA2A;" d="M523.035,1478.836c-1.258,0-2.277-1.016-2.277-2.277V304c0-1.258,1.019-2.277,2.277-2.277
							h13.195c1.258,0,2.277,1.02,2.277,2.277v1172.559c0,1.262-1.02,2.277-2.277,2.277H523.035z"/>
						<path style="fill:#31343C;" d="M536.23,304v1172.559h-13.195V304H536.23 M536.23,299.445h-13.195
							c-2.52,0-4.559,2.039-4.559,4.555v1172.559c0,2.52,2.039,4.555,4.559,4.555h13.195c2.516,0,4.555-2.035,4.555-4.555V304
							C540.785,301.484,538.746,299.445,536.23,299.445L536.23,299.445z"/>
					</g>
					<g>
						<path style="fill:#F4AA2A;" d="M586.836,1478.836c-1.258,0-2.277-1.016-2.277-2.277V388.699c0-1.258,1.019-2.277,2.277-2.277
							h13.188c1.258,0,2.277,1.02,2.277,2.277v1087.859c0,1.262-1.019,2.277-2.277,2.277H586.836z"/>
						<path style="fill:#31343C;" d="M600.023,388.699v1087.859h-13.188V388.699H600.023 M600.023,384.141h-13.188
							c-2.519,0-4.559,2.039-4.559,4.559v1087.859c0,2.516,2.039,4.555,4.559,4.555h13.188c2.52,0,4.559-2.039,4.559-4.555V388.699
							C604.582,386.18,602.543,384.141,600.023,384.141L600.023,384.141z"/>
					</g>
					<g>
						<path style="fill:#C46D1F;" d="M518.66,1478.836c-1.262,0-2.277-1.016-2.277-2.277V284.289c0-1.258,1.016-2.277,2.277-2.277
							h4.375c1.258,0,2.277,1.02,2.277,2.277v1192.27c0,1.262-1.019,2.277-2.277,2.277H518.66z"/>
						<path style="fill:#31343C;" d="M523.035,284.289v1192.27h-4.375V284.289H523.035 M523.035,279.734h-4.375
							c-2.52,0-4.559,2.039-4.559,4.555v1192.27c0,2.52,2.039,4.555,4.559,4.555h4.375c2.516,0,4.559-2.035,4.559-4.555V284.289
							C527.594,281.773,525.551,279.734,523.035,279.734L523.035,279.734z"/>
					</g>
				</g>
				<g>
					<g>
						<g>
							<path style="fill:#F4AA2A;" d="M600.023,420.07c-0.699,0-1.375-0.32-1.816-0.898l-76.988-101.371
								c-0.301-0.398-0.461-0.883-0.461-1.379v-32.133c0-0.984,0.629-1.855,1.566-2.164c0.231-0.074,0.473-0.113,0.711-0.113
								c0.711,0,1.394,0.332,1.832,0.93l76.988,104.406c0.293,0.391,0.445,0.863,0.445,1.352v29.094c0,0.98-0.625,1.848-1.551,2.16
								C600.512,420.035,600.266,420.07,600.023,420.07z"/>
							<path style="fill:#31343C;" d="M523.035,284.289l76.988,104.41v29.094l-76.988-101.371V284.289 M523.035,279.734
								c-0.477,0-0.953,0.074-1.426,0.227c-1.867,0.613-3.133,2.359-3.133,4.328v32.133c0,0.996,0.328,1.961,0.93,2.754
								l76.988,101.371c0.879,1.156,2.234,1.805,3.629,1.805c0.488,0,0.977-0.078,1.457-0.238c1.852-0.625,3.102-2.363,3.102-4.32
								v-29.094c0-0.973-0.313-1.922-0.891-2.707l-76.988-104.406C525.828,280.398,524.453,279.734,523.035,279.734L523.035,279.734
								z"/>
						</g>
					</g>
				</g>
			</g>
			<g>
				<g>
					<path style="fill:#F4AA2A;" d="M486.973,613.926c-1.262,0-2.277-1.02-2.277-2.277V466.902c0-1.258,1.016-2.277,2.277-2.277
						h78.723c0.578,0,1.137,0.219,1.559,0.617l66.023,61.887c0.457,0.434,0.719,1.035,0.719,1.664v82.855
						c0,1.258-1.02,2.277-2.277,2.277H486.973z"/>
					<path style="fill:#31343C;" d="M565.695,466.902l66.023,61.891v82.855H486.973V466.902H565.695 M565.695,462.344h-78.723
						c-2.52,0-4.559,2.039-4.559,4.559v144.746c0,2.52,2.039,4.559,4.559,4.559h144.746c2.516,0,4.555-2.039,4.555-4.559v-82.855
						c0-1.258-0.523-2.461-1.438-3.324l-66.023-61.891C567.969,462.785,566.852,462.344,565.695,462.344L565.695,462.344z"/>
				</g>
				<g>
					<g>
						<path style="fill:#0E739A;" d="M514.121,576.289c-1.258,0-2.277-1.02-2.277-2.277V483.57c0-1.262,1.02-2.277,2.277-2.277
							h47.41c0.574,0,1.129,0.215,1.551,0.605l43.031,39.887c0.465,0.433,0.727,1.035,0.727,1.672v50.555
							c0,1.258-1.019,2.277-2.277,2.277H514.121z"/>
						<path style="fill:#31343C;" d="M561.531,483.57l43.031,39.887v50.555h-90.441V483.57H561.531 M561.531,479.012h-47.41
							c-2.52,0-4.559,2.039-4.559,4.559v90.441c0,2.516,2.039,4.555,4.559,4.555h90.441c2.516,0,4.559-2.039,4.559-4.555v-50.555
							c0-1.266-0.531-2.48-1.461-3.34l-43.031-39.891C563.785,479.445,562.684,479.012,561.531,479.012L561.531,479.012z"/>
					</g>
					<g>
						<path style="fill:#91CBEE;" d="M521.926,560.691c-1.258,0-2.277-1.02-2.277-2.277v-69.91c0-1.258,1.02-2.277,2.277-2.277
							h31.438c0.574,0,1.125,0.215,1.551,0.609l43.398,40.285c0.465,0.434,0.727,1.039,0.727,1.672v29.621
							c0,1.258-1.02,2.277-2.277,2.277H521.926z"/>
						<path style="fill:#31343C;" d="M553.363,488.504l43.398,40.289v29.621h-74.836v-69.91H553.363 M553.363,483.945h-31.438
							c-2.516,0-4.559,2.039-4.559,4.559v69.91c0,2.516,2.043,4.555,4.559,4.555h74.836c2.52,0,4.559-2.039,4.559-4.555v-29.621
							c0-1.27-0.531-2.477-1.457-3.34l-43.402-40.289C555.621,484.383,554.512,483.945,553.363,483.945L553.363,483.945z"/>
					</g>
				</g>
			</g>
			<g>
				<g>
					<g>
						<rect x="1217.395" y="591.883" style="fill:#31343C;" width="3.961" height="258.941"/>
					</g>
					<g>
						<rect x="1264.305" y="591.883" style="fill:#31343C;" width="3.961" height="258.941"/>
					</g>
				</g>
				<g>
					<g>
						<rect x="1241.527" y="855.461" style="fill:#31343C;" width="3.965" height="77.449"/>
					</g>
				</g>
				<g>
					<path style="fill:#C46D1F;" d="M1242.832,899.375c-0.48,0-0.961-0.148-1.371-0.453l-29.309-22.059
						c-0.57-0.434-0.906-1.106-0.906-1.82V846.34c0-1.262,1.02-2.277,2.277-2.277h58.613c1.258,0,2.277,1.016,2.277,2.277v28.703
						c0,0.715-0.336,1.387-0.906,1.82l-29.305,22.059C1243.797,899.227,1243.313,899.375,1242.832,899.375z"/>
					<path style="fill:#31343C;" d="M1272.137,846.34v28.703l-29.305,22.055l-29.309-22.055V846.34H1272.137 M1272.137,841.781
						h-58.613c-2.52,0-4.559,2.039-4.559,4.559v28.703c0,1.43,0.676,2.777,1.82,3.637l29.305,22.059
						c0.816,0.613,1.781,0.918,2.742,0.918c0.965,0,1.93-0.305,2.742-0.918l29.305-22.059c1.141-0.859,1.816-2.207,1.816-3.637
						V846.34C1276.695,843.82,1274.656,841.781,1272.137,841.781L1272.137,841.781z"/>
				</g>
				<g>
					<path style="fill:#F4AA2A;" d="M1242.832,629.824c-20.918,0-37.938-17.02-37.938-37.941c0-20.918,17.02-37.938,37.938-37.938
						s37.938,17.019,37.938,37.938C1280.77,612.805,1263.75,629.824,1242.832,629.824z"/>
					<path style="fill:#31343C;" d="M1242.832,556.223c19.695,0,35.66,15.965,35.66,35.66s-15.965,35.664-35.66,35.664
						s-35.66-15.969-35.66-35.664S1223.137,556.223,1242.832,556.223 M1242.832,551.664c-22.176,0-40.219,18.043-40.219,40.219
						c0,22.18,18.043,40.223,40.219,40.223s40.223-18.043,40.223-40.223C1283.055,569.707,1265.008,551.664,1242.832,551.664
						L1242.832,551.664z"/>
				</g>
				<g>
					<path style="fill:#475054;" d="M1242.832,621.652c-16.418,0-29.773-13.355-29.773-29.769c0-16.414,13.355-29.77,29.773-29.77
						s29.77,13.355,29.77,29.77C1272.602,608.297,1259.25,621.652,1242.832,621.652z"/>
					<path style="fill:#31343C;" d="M1242.832,564.391c15.188,0,27.492,12.309,27.492,27.492c0,15.188-12.305,27.492-27.492,27.492
						s-27.496-12.305-27.496-27.492C1215.336,576.699,1227.645,564.391,1242.832,564.391 M1242.832,559.832
						c-17.672,0-32.055,14.379-32.055,32.051c0,17.672,14.383,32.047,32.055,32.047s32.051-14.375,32.051-32.047
						C1274.883,574.211,1260.504,559.832,1242.832,559.832L1242.832,559.832z"/>
				</g>
				<g>
					<path style="fill:#C0D1DA;" d="M1242.832,616.934c-13.82,0-25.055-11.238-25.055-25.051s11.234-25.051,25.055-25.051
						c13.809,0,25.047,11.238,25.047,25.051S1256.641,616.934,1242.832,616.934z"/>
					<path style="fill:#31343C;" d="M1242.832,569.109c12.574,0,22.77,10.195,22.77,22.773c0,12.578-10.195,22.773-22.77,22.773
						c-12.578,0-22.777-10.195-22.777-22.773C1220.055,579.305,1230.254,569.109,1242.832,569.109 M1242.832,564.551
						c-15.074,0-27.336,12.262-27.336,27.332s12.262,27.332,27.336,27.332c15.063,0,27.328-12.262,27.328-27.332
						S1257.895,564.551,1242.832,564.551L1242.832,564.551z"/>
				</g>
				<g>
					<path style="fill:#F4AA2A;" d="M1242.832,888.672c-0.391,0-0.789-0.102-1.141-0.305l-29.309-16.922
						c-0.703-0.406-1.137-1.156-1.137-1.973v-33.84c0-1.262,1.02-2.277,2.277-2.277h58.613c1.258,0,2.277,1.016,2.277,2.277v33.84
						c0,0.816-0.438,1.566-1.141,1.973l-29.301,16.922C1243.617,888.57,1243.223,888.672,1242.832,888.672z"/>
					<path style="fill:#31343C;" d="M1272.137,835.633v33.84l-29.305,16.922l-29.309-16.922v-33.84H1272.137 M1272.137,831.074
						h-58.613c-2.52,0-4.559,2.039-4.559,4.559v33.84c0,1.629,0.871,3.133,2.281,3.949l29.309,16.922
						c0.707,0.402,1.488,0.609,2.277,0.609c0.785,0,1.574-0.207,2.277-0.609l29.305-16.922c1.41-0.816,2.281-2.32,2.281-3.949
						v-33.84C1276.695,833.113,1274.656,831.074,1272.137,831.074L1272.137,831.074z"/>
				</g>
				<g>
					<ellipse style="fill:#C46D1F;" cx="1242.832" cy="855.461" rx="11.008" ry="11.004"/>
					<path style="fill:#31343C;" d="M1242.832,846.734c4.82,0,8.73,3.906,8.73,8.727s-3.91,8.727-8.73,8.727
						c-4.824,0-8.727-3.906-8.727-8.727S1238.008,846.734,1242.832,846.734 M1242.832,842.176c-7.324,0-13.285,5.961-13.285,13.285
						c0,7.324,5.961,13.285,13.285,13.285s13.285-5.961,13.285-13.285C1256.117,848.137,1250.156,842.176,1242.832,842.176
						L1242.832,842.176z"/>
				</g>
				<g>
					<path style="fill:#C46D1F;" d="M1242.832,873.07c-9.715,0-17.613-7.898-17.613-17.609c0-9.711,7.898-17.609,17.613-17.609
						s17.609,7.898,17.609,17.609C1260.441,865.172,1252.547,873.07,1242.832,873.07z M1242.832,845.234
						c-5.641,0-10.227,4.59-10.227,10.227c0,5.641,4.586,10.227,10.227,10.227c5.637,0,10.223-4.586,10.223-10.227
						C1253.055,849.824,1248.469,845.234,1242.832,845.234z"/>
					<path style="fill:#31343C;" d="M1242.832,840.129c8.465,0,15.332,6.863,15.332,15.332c0,8.469-6.867,15.332-15.332,15.332
						c-8.473,0-15.336-6.863-15.336-15.332C1227.496,846.992,1234.359,840.129,1242.832,840.129 M1242.832,867.965
						c6.906,0,12.5-5.602,12.5-12.504c0-6.902-5.594-12.504-12.5-12.504s-12.504,5.602-12.504,12.504
						C1230.328,862.363,1235.926,867.965,1242.832,867.965 M1242.832,835.57c-10.965,0-19.895,8.926-19.895,19.891
						c0,10.969,8.93,19.891,19.895,19.891c10.969,0,19.887-8.922,19.887-19.891C1262.719,844.496,1253.801,835.57,1242.832,835.57
						L1242.832,835.57z M1242.832,863.406c-4.387,0-7.949-3.563-7.949-7.945c0-4.379,3.563-7.945,7.949-7.945
						c4.383,0,7.945,3.566,7.945,7.945C1250.777,859.844,1247.215,863.406,1242.832,863.406L1242.832,863.406z"/>
				</g>
				<g>
					<path style="fill:#F4AA2A;" d="M1243.773,1007.602c-20.34,0-36.887-16.543-36.887-36.883c0-17.484,12.574-32.664,29.563-36.105
						v-18.883c0-1.262,1.016-2.277,2.277-2.277h10.094c1.258,0,2.277,1.016,2.277,2.277v29.363c0,0.234-0.039,0.461-0.105,0.676
						c-0.125,0.52-0.383,1.035-0.738,1.332c-0.465,0.379-1.055,0.742-1.637,0.742c-0.09,0-0.18-0.004-0.258-0.02
						c-1.516-0.305-3.055-0.461-4.586-0.461c-12.883,0-23.355,10.48-23.355,23.355c0,12.883,10.473,23.355,23.355,23.355
						c8.996,0,17.039-5.051,20.977-13.172c0.383-0.781,1.18-1.285,2.055-1.285h9.691c0.734,0,1.426,0.359,1.852,0.957
						c0.43,0.594,0.543,1.363,0.309,2.059C1273.547,997.574,1259.531,1007.602,1243.773,1007.602z"/>
					<path style="fill:#31343C;" d="M1248.82,915.731v29.363h-0.016v0.496c-1.629-0.328-3.309-0.496-5.031-0.496
						c-14.156,0-25.633,11.469-25.633,25.625c0,14.152,11.477,25.633,25.633,25.633c10.137,0,18.883-5.906,23.031-14.453h9.691
						c-4.656,13.621-17.531,23.43-32.723,23.43c-19.109,0-34.609-15.492-34.609-34.609c0-17.391,12.848-31.75,29.563-34.195v-20.793
						H1248.82 M1276.496,981.898h0.027 M1248.82,911.172h-10.094c-2.52,0-4.563,2.039-4.563,4.559v17.063
						c-17.098,4.336-29.559,19.992-29.559,37.926c0,21.602,17.57,39.164,39.168,39.164c16.613,0,31.402-10.504,36.918-26.18
						c0.242-0.551,0.375-1.164,0.375-1.805c0-2.523-2.023-4.559-4.543-4.559h-0.027h-9.691c-1.746,0-3.336,0.996-4.102,2.566
						c-3.555,7.332-10.805,11.887-18.93,11.887c-11.621,0-21.078-9.449-21.078-21.074c0-11.617,9.457-21.07,21.078-21.07
						c1.383,0,2.773,0.133,4.141,0.406c0.289,0.059,0.594,0.09,0.891,0.09c1.043,0,2.063-0.363,2.887-1.035
						c1.055-0.859,1.668-2.152,1.668-3.52v-0.113c0.016-0.121,0.016-0.254,0.016-0.383v-29.363
						C1253.375,913.211,1251.34,911.172,1248.82,911.172L1248.82,911.172z"/>
				</g>
			</g>
		</g>
		<g>
			<path style="fill:#C0D1DA;" d="M472.094,1565.492c-1.262,0-2.277-1.02-2.277-2.277v-99.609c0-1.258,1.016-2.277,2.277-2.277
				h178.871c1.262,0,2.277,1.02,2.277,2.277v99.609c0,1.258-1.016,2.277-2.277,2.277H472.094z"/>
			<path style="fill:#31343C;" d="M650.965,1463.605v99.609H472.094v-99.609H650.965 M650.965,1459.047H472.094
				c-2.52,0-4.559,2.043-4.559,4.559v99.609c0,2.516,2.039,4.555,4.559,4.555h178.871c2.52,0,4.559-2.039,4.559-4.555v-99.609
				C655.523,1461.09,653.484,1459.047,650.965,1459.047L650.965,1459.047z"/>
		</g>
		<g>
			<path style="fill:#9CA7B0;" d="M600.023,1565.492c-1.258,0-2.277-1.02-2.277-2.277v-99.609c0-1.258,1.019-2.277,2.277-2.277
				h50.941c1.262,0,2.277,1.02,2.277,2.277v99.609c0,1.258-1.016,2.277-2.277,2.277H600.023z"/>
			<path style="fill:#31343C;" d="M650.965,1463.605v99.609h-50.941v-99.609H650.965 M650.965,1459.047h-50.941
				c-2.516,0-4.559,2.043-4.559,4.559v99.609c0,2.516,2.043,4.555,4.559,4.555h50.941c2.52,0,4.559-2.039,4.559-4.555v-99.609
				C655.523,1461.09,653.484,1459.047,650.965,1459.047L650.965,1459.047z"/>
		</g>
		<g>
			<path style="fill:#9CA7B0;" d="M450.582,1587.863c-1.258,0-2.277-1.02-2.277-2.277v-44.75c0-1.258,1.02-2.27,2.277-2.27H672.48
				c1.258,0,2.277,1.012,2.277,2.27v44.75c0,1.258-1.02,2.277-2.277,2.277H450.582z"/>
			<path style="fill:#31343C;" d="M672.48,1540.836v44.75H450.582v-44.75H672.48 M672.48,1536.281H450.582
				c-2.516,0-4.559,2.043-4.559,4.555v44.75c0,2.516,2.043,4.555,4.559,4.555H672.48c2.52,0,4.559-2.039,4.559-4.555v-44.75
				C677.039,1538.324,675,1536.281,672.48,1536.281L672.48,1536.281z"/>
		</g>
		<g>
			<path style="fill:#879199;" d="M613.453,1587.863c-1.258,0-2.277-1.02-2.277-2.277v-44.75c0-1.258,1.02-2.27,2.277-2.27h59.027
				c1.258,0,2.277,1.012,2.277,2.27v44.75c0,1.258-1.02,2.277-2.277,2.277H613.453z"/>
			<path style="fill:#31343C;" d="M672.48,1540.836v44.75h-59.027v-44.75H672.48 M672.48,1536.281h-59.027
				c-2.519,0-4.559,2.043-4.559,4.555v44.75c0,2.516,2.039,4.555,4.559,4.555h59.027c2.52,0,4.559-2.039,4.559-4.555v-44.75
				C677.039,1538.324,675,1536.281,672.48,1536.281L672.48,1536.281z"/>
		</g>
		<g>
			<polygon style="fill:#FFFFFF;" points="537.242,558.414 529.633,558.414 567.313,501.457 572.164,505.715 			"/>
		</g>
		<g>
			<polygon style="fill:#FFFFFF;" points="552.902,558.414 545.293,558.414 576.93,510.852 581.781,515.109 			"/>
		</g>
		<g>
			<path style="fill:#F4AA2A;" d="M270.059,635.144c-1.258,0-2.277-1.019-2.277-2.277v-38.148c0-1.258,1.02-2.277,2.277-2.277
				h82.898c1.258,0,2.277,1.019,2.277,2.277v38.148c0,1.258-1.02,2.277-2.277,2.277H270.059z"/>
			<path style="fill:#31343C;" d="M352.957,594.719v38.148h-82.898v-38.148H352.957 M352.957,590.16h-82.898
				c-2.52,0-4.559,2.043-4.559,4.558v38.148c0,2.52,2.039,4.559,4.559,4.559h82.898c2.52,0,4.559-2.039,4.559-4.559v-38.148
				C357.516,592.203,355.477,590.16,352.957,590.16L352.957,590.16z"/>
		</g>
		<g>
			<path style="fill:#C46D1F;" d="M329.355,635.144c-1.258,0-2.277-1.019-2.277-2.277v-38.148c0-1.258,1.02-2.277,2.277-2.277
				h23.602c1.258,0,2.277,1.019,2.277,2.277v38.148c0,1.258-1.02,2.277-2.277,2.277H329.355z"/>
			<path style="fill:#31343C;" d="M352.957,594.719v38.148h-23.602v-38.148H352.957 M352.957,590.16h-23.602
				c-2.52,0-4.559,2.043-4.559,4.558v38.148c0,2.52,2.039,4.559,4.559,4.559h23.602c2.52,0,4.559-2.039,4.559-4.559v-38.148
				C357.516,592.203,355.477,590.16,352.957,590.16L352.957,590.16z"/>
		</g>
	</g>
	<g>
		<g>
			<path style="fill:#475054;" d="M2195.957,1600.059c-0.91,0-1.688-0.648-1.848-1.539l-14.02-76.566h-121.289l13.895,75.891
				c0.102,0.547-0.051,1.113-0.406,1.539c-0.355,0.43-0.887,0.676-1.441,0.676h-22.48c-0.906,0-1.684-0.648-1.848-1.539
				l-106.719-583.102c-0.102-0.551,0.051-1.113,0.41-1.539c0.352-0.43,0.883-0.676,1.438-0.676h22.477
				c0.906,0,1.684,0.648,1.848,1.539L1976,1069.5h121.289l-9.906-54.082c-0.098-0.551,0.047-1.113,0.406-1.539
				c0.355-0.43,0.883-0.676,1.441-0.676h22.484c0.906,0,1.684,0.648,1.844,1.539l106.719,583.102
				c0.102,0.547-0.043,1.113-0.402,1.539c-0.355,0.43-0.883,0.676-1.441,0.676H2195.957z M2177.262,1506.441l-13.16-71.875h-121.293
				l13.164,71.875H2177.262z M2161.258,1419.047l-13.148-71.867h-121.293l13.152,71.867H2161.258z M2145.266,1331.664
				l-13.148-71.875H2010.82l13.156,71.875H2145.266z M2129.273,1244.277l-13.148-71.875h-121.293l13.152,71.875H2129.273z
				 M2113.281,1156.883l-13.148-71.867H1978.84l13.152,71.867H2113.281z"/>
			<path style="fill:#31343C;" d="M2111.715,1015.074l106.719,583.105h-22.477l-14.297-78.102h-125.109l14.297,78.102h-22.48
				l-106.719-583.105h22.477l10.309,56.301h125.105l-10.309-56.301H2111.715 M1990.426,1158.766h125.105l-13.84-75.629h-125.105
				L1990.426,1158.766 M2006.422,1246.152h125.102l-13.84-75.633h-125.105L2006.422,1246.152 M2022.414,1333.539h125.105
				l-13.844-75.625H2008.57L2022.414,1333.539 M2038.406,1420.93h125.105l-13.836-75.625h-125.109L2038.406,1420.93
				 M2054.402,1508.316h125.109l-13.844-75.633h-125.109L2054.402,1508.316 M2111.715,1011.32h-22.484
				c-1.113,0-2.172,0.5-2.887,1.356c-0.711,0.855-1.008,1.984-0.805,3.082l9.496,51.859h-117.477l-9.742-53.211
				c-0.328-1.785-1.879-3.086-3.691-3.086h-22.477c-1.113,0-2.172,0.5-2.883,1.356c-0.715,0.855-1.012,1.984-0.813,3.082
				l106.719,583.098c0.332,1.785,1.883,3.078,3.695,3.078h22.48c1.113,0,2.172-0.492,2.883-1.348
				c0.719-0.855,1.012-1.988,0.813-3.082l-13.484-73.672h117.473l13.73,75.023c0.332,1.785,1.879,3.078,3.695,3.078h22.477
				c1.113,0,2.172-0.492,2.887-1.348c0.711-0.855,1.008-1.988,0.805-3.082l-106.719-583.098
				C2115.082,1012.621,2113.527,1011.32,2111.715,1011.32L2111.715,1011.32z M1981.09,1086.891h117.469l12.469,68.121h-117.469
				L1981.09,1086.891L1981.09,1086.891z M1997.082,1174.281h117.473l12.465,68.121h-117.469L1997.082,1174.281L1997.082,1174.281z
				 M2013.074,1261.668h117.473l12.469,68.113h-117.473L2013.074,1261.668L2013.074,1261.668z M2029.074,1349.055h117.465
				l12.469,68.113h-117.473L2029.074,1349.055L2029.074,1349.055z M2045.066,1436.441h117.473l12.465,68.125h-117.473
				L2045.066,1436.441L2045.066,1436.441z"/>
		</g>
		<g>
			<g>
				<path style="fill:#C0D1DA;" d="M1812.445,1600.059c-0.555,0-1.086-0.246-1.438-0.676c-0.359-0.426-0.508-0.992-0.41-1.539
					l106.719-583.102c0.164-0.891,0.941-1.539,1.848-1.539h22.484c0.555,0,1.086,0.246,1.438,0.676
					c0.359,0.426,0.508,0.988,0.406,1.539L1836.77,1598.52c-0.164,0.891-0.941,1.539-1.848,1.539H1812.445z"/>
				<path style="fill:#31343C;" d="M1941.648,1015.074h0.027 M1941.648,1015.074l-106.727,583.105h-22.477l106.719-583.105H1941.648
					 M1941.676,1011.32h-0.027h-22.484c-1.813,0-3.363,1.301-3.691,3.086l-106.719,583.098c-0.203,1.094,0.094,2.227,0.805,3.082
					c0.715,0.855,1.773,1.348,2.887,1.348h22.477c1.813,0,3.371-1.293,3.695-3.078l106.66-582.785
					c0.09-0.313,0.137-0.648,0.137-0.996C1945.414,1013.004,1943.746,1011.32,1941.676,1011.32L1941.676,1011.32z"/>
			</g>
			<g>
				<path style="fill:#707B81;" d="M1911.094,1085.016c-0.539,0-1.055-0.234-1.414-0.645c-0.359-0.406-0.516-0.949-0.449-1.492
					l1.637-11.762c0.133-0.926,0.922-1.617,1.863-1.617h156.125c1.035,0,1.875,0.84,1.875,1.875v11.762
					c0,1.039-0.84,1.879-1.875,1.879H1911.094z"/>
				<path style="fill:#31343C;" d="M2068.855,1071.375v11.762h-157.762l1.637-11.762H2068.855 M2068.855,1067.617H1912.73
					c-1.875,0-3.465,1.383-3.723,3.242l-1.633,11.762c-0.145,1.074,0.18,2.164,0.891,2.98c0.711,0.824,1.746,1.289,2.828,1.289
					h157.762c2.078,0,3.758-1.68,3.758-3.754v-11.762C2072.613,1069.305,2070.934,1067.617,2068.855,1067.617L2068.855,1067.617z"/>
			</g>
			<g>
				<path style="fill:#707B81;" d="M1894.473,1172.402c-0.543,0-1.066-0.234-1.418-0.645s-0.52-0.953-0.441-1.488l1.621-11.762
					c0.137-0.93,0.93-1.625,1.863-1.625h156.137c1.035,0,1.879,0.84,1.879,1.883v11.754c0,1.043-0.844,1.883-1.879,1.883H1894.473z"
					/>
				<path style="fill:#31343C;" d="M2052.234,1158.766v11.754h-157.762l1.625-11.754H2052.234 M2052.234,1155.012h-156.137
					c-1.871,0-3.461,1.379-3.719,3.238l-1.625,11.762c-0.148,1.074,0.168,2.16,0.887,2.977c0.715,0.824,1.746,1.293,2.832,1.293
					h157.762c2.07,0,3.754-1.684,3.754-3.762v-11.754C2055.988,1156.695,2054.305,1155.012,2052.234,1155.012L2052.234,1155.012z"/>
			</g>
			<g>
				<path style="fill:#707B81;" d="M1877.84,1259.789c-0.543,0-1.063-0.238-1.414-0.645c-0.352-0.41-0.52-0.953-0.449-1.488
					l1.641-11.762c0.129-0.93,0.918-1.617,1.859-1.617h156.125c1.043,0,1.883,0.84,1.883,1.875v11.762
					c0,1.035-0.84,1.875-1.883,1.875H1877.84z"/>
				<path style="fill:#31343C;" d="M2035.602,1246.152v11.762H1877.84l1.637-11.762H2035.602 M2035.602,1242.402h-156.125
					c-1.875,0-3.461,1.383-3.719,3.234l-1.633,11.762c-0.152,1.074,0.168,2.16,0.883,2.98c0.719,0.82,1.746,1.289,2.832,1.289
					h157.762c2.07,0,3.758-1.68,3.758-3.754v-11.762C2039.359,1244.082,2037.672,1242.402,2035.602,1242.402L2035.602,1242.402z"/>
			</g>
			<g>
				<path style="fill:#707B81;" d="M1862.766,1347.18c-0.543,0-1.055-0.234-1.414-0.645c-0.352-0.406-0.52-0.957-0.441-1.492
					l1.621-11.758c0.133-0.934,0.93-1.621,1.863-1.621h156.133c1.035,0,1.883,0.836,1.883,1.875v11.766
					c0,1.035-0.848,1.875-1.883,1.875H1862.766z"/>
				<path style="fill:#31343C;" d="M2020.527,1333.539v11.766h-157.762l1.629-11.766H2020.527 M2020.527,1329.781h-156.133
					c-1.875,0-3.457,1.391-3.719,3.246l-1.625,11.758c-0.152,1.074,0.168,2.164,0.883,2.98c0.719,0.824,1.746,1.289,2.832,1.289
					h157.762c2.07,0,3.754-1.68,3.754-3.75v-11.766C2024.281,1331.465,2022.598,1329.781,2020.527,1329.781L2020.527,1329.781z"/>
			</g>
			<g>
				<path style="fill:#707B81;" d="M1847.293,1434.566c-0.539,0-1.063-0.234-1.414-0.645c-0.359-0.414-0.516-0.953-0.449-1.488
					l1.637-11.762c0.133-0.93,0.93-1.625,1.863-1.625h156.125c1.035,0,1.875,0.84,1.875,1.883v11.754
					c0,1.043-0.84,1.883-1.875,1.883H1847.293z"/>
				<path style="fill:#31343C;" d="M2005.055,1420.93v11.754h-157.762l1.637-11.754H2005.055 M2005.055,1417.168H1848.93
					c-1.875,0-3.465,1.383-3.723,3.242l-1.633,11.762c-0.145,1.078,0.172,2.16,0.891,2.98c0.715,0.824,1.746,1.289,2.828,1.289
					h157.762c2.078,0,3.758-1.68,3.758-3.758v-11.754C2008.813,1418.852,2007.133,1417.168,2005.055,1417.168L2005.055,1417.168z"/>
			</g>
			<g>
				<path style="fill:#707B81;" d="M1830.672,1521.953c-0.543,0-1.066-0.238-1.418-0.645c-0.355-0.41-0.52-0.953-0.441-1.488
					l1.633-11.762c0.129-0.93,0.918-1.617,1.859-1.617h156.129c1.039,0,1.879,0.84,1.879,1.875v11.762
					c0,1.035-0.84,1.875-1.879,1.875H1830.672z"/>
				<path style="fill:#31343C;" d="M1988.434,1508.316v11.762h-157.762l1.633-11.762H1988.434 M1988.434,1504.566h-156.129
					c-1.875,0-3.457,1.383-3.715,3.234l-1.637,11.762c-0.148,1.074,0.168,2.16,0.887,2.98c0.715,0.82,1.746,1.289,2.832,1.289
					h157.762c2.07,0,3.754-1.684,3.754-3.754v-11.762C1992.188,1506.246,1990.504,1504.566,1988.434,1504.566L1988.434,1504.566z"/>
			</g>
			<g>
				<path style="fill:#C0D1DA;" d="M1960.027,1600.059c-0.559,0-1.082-0.246-1.441-0.676c-0.359-0.426-0.504-0.992-0.402-1.539
					l106.723-583.102c0.164-0.891,0.941-1.539,1.848-1.539h22.477c0.559,0,1.086,0.246,1.445,0.676
					c0.355,0.426,0.504,0.988,0.402,1.539l-106.719,583.102c-0.164,0.891-0.941,1.539-1.848,1.539H1960.027z"/>
				<path style="fill:#31343C;" d="M2089.23,1015.074h0.027 M2089.23,1015.074l-106.719,583.105h-22.484l106.727-583.105H2089.23
					 M2089.258,1011.32h-0.027h-22.477c-1.813,0-3.363,1.301-3.695,3.086l-106.723,583.098c-0.203,1.094,0.094,2.227,0.805,3.082
					c0.719,0.855,1.773,1.348,2.887,1.348h22.484c1.813,0,3.367-1.293,3.691-3.078l106.664-582.785
					c0.086-0.313,0.129-0.648,0.129-0.996C2092.996,1013.004,2091.336,1011.32,2089.258,1011.32L2089.258,1011.32z"/>
			</g>
		</g>
		<g>
			<path style="fill:#F4AA2A;" d="M1887.129,1023.918c-1.039,0-1.879-0.84-1.879-1.875v-32.488c0-1.035,0.84-1.875,1.879-1.875
				h237.41c1.039,0,1.879,0.84,1.879,1.875v32.488c0,1.035-0.84,1.875-1.879,1.875H1887.129z"/>
			<path style="fill:#31343C;" d="M2124.539,989.555v32.488h-237.41v-32.488H2124.539 M2124.539,985.801h-237.41
				c-2.07,0-3.754,1.684-3.754,3.754v32.488c0,2.07,1.684,3.75,3.754,3.75h237.41c2.07,0,3.754-1.68,3.754-3.75v-32.488
				C2128.293,987.484,2126.609,985.801,2124.539,985.801L2124.539,985.801z"/>
		</g>
		<g>
			<rect x="1887.129" y="989.555" style="fill:#C46D1F;" width="237.41" height="16.242"/>
		</g>
	</g>
</g>
</svg>
