<?xml version="1.0" encoding="utf-8"?>
<!-- Generator: Adobe Illustrator 27.5.0, SVG Export Plug-In . SVG Version: 6.00 Build 0)  -->
<svg version="1.1" xmlns="http://www.w3.org/2000/svg" xmlns:xlink="http://www.w3.org/1999/xlink" x="0px" y="0px"
	 viewBox="0 0 750 500" style="enable-background:new 0 0 750 500;" xml:space="preserve">
<g id="Background_Complete">
	<g>
		<g>
			<g>
				<g>
					<path style="fill:#EBEBEB;" d="M351.294,355.607c2.414-1.714,5.019-3.071,7.735-4.065l1.061-8.033l13.349-1.223l2.504,7.705
						c2.852,0.483,5.66,1.344,8.346,2.591l6.428-4.928l10.304,8.574l-3.676,7.215c1.715,2.415,3.072,5.021,4.064,7.737l8.032,1.061
						l1.224,13.349l-7.705,2.505c-0.483,2.852-1.344,5.659-2.59,8.345l4.927,6.428l-8.573,10.304l-7.216-3.676
						c-2.415,1.714-5.02,3.071-7.737,4.064l-1.061,8.033l-13.348,1.223l-2.504-7.706c-2.852-0.483-5.66-1.344-8.346-2.59
						l-6.428,4.928l-10.304-8.574l3.676-7.215c-1.714-2.415-3.072-5.019-4.065-7.737l-8.032-1.061l-1.223-13.348l7.706-2.505
						c0.483-2.852,1.345-5.66,2.59-8.345l-4.927-6.428l8.573-10.304L351.294,355.607L351.294,355.607z M359.737,372.886
						c-5.08,6.105-4.249,15.172,1.857,20.251c6.105,5.08,15.172,4.248,20.251-1.857c5.079-6.105,4.249-15.172-1.857-20.251
						C373.883,365.95,364.816,366.781,359.737,372.886z"/>
				</g>
			</g>
		</g>
	</g>
	<g>
		<g>
			<g>
				<g>
					<path style="fill:#EBEBEB;" d="M430.514,399.442c1.514-1.075,3.147-1.925,4.85-2.548l0.665-5.036l8.369-0.767l1.57,4.831
						c1.788,0.303,3.549,0.842,5.233,1.624l4.03-3.09l6.46,5.376l-2.305,4.523c1.075,1.514,1.926,3.148,2.548,4.851l5.036,0.665
						l0.767,8.369l-4.831,1.57c-0.303,1.788-0.843,3.548-1.624,5.232l3.089,4.03l-5.375,6.46l-4.524-2.305
						c-1.514,1.075-3.147,1.925-4.851,2.548l-0.665,5.036l-8.369,0.767l-1.57-4.831c-1.788-0.303-3.548-0.843-5.232-1.624
						l-4.03,3.09l-6.46-5.376l2.305-4.524c-1.075-1.514-1.926-3.147-2.549-4.851l-5.036-0.665l-0.767-8.369l4.831-1.571
						c0.303-1.788,0.843-3.548,1.624-5.232l-3.089-4.03l5.375-6.46L430.514,399.442L430.514,399.442z M435.807,410.275
						c-3.185,3.828-2.664,9.512,1.164,12.697c3.828,3.185,9.512,2.663,12.697-1.164c3.184-3.827,2.664-9.512-1.164-12.697
						C444.676,405.927,438.992,406.448,435.807,410.275z"/>
				</g>
			</g>
		</g>
	</g>
	<g>
		<g>
			<g>
				<g>
					<path style="fill:#E0E0E0;" d="M201.184,97.836c1.757-1.248,3.653-2.235,5.63-2.958l0.772-5.846l9.715-0.89l1.823,5.608
						c2.076,0.352,4.12,0.978,6.074,1.885l4.678-3.587l7.499,6.241l-2.676,5.251c1.248,1.758,2.236,3.654,2.958,5.631l5.846,0.772
						l0.891,9.715l-5.608,1.823c-0.352,2.075-0.978,4.119-1.885,6.074l3.586,4.679l-6.24,7.5l-5.252-2.676
						c-1.757,1.248-3.654,2.235-5.631,2.958l-0.772,5.847l-9.715,0.89l-1.823-5.608c-2.076-0.352-4.119-0.978-6.074-1.885
						l-4.678,3.587l-7.5-6.24l2.676-5.251c-1.248-1.758-2.236-3.653-2.959-5.631l-5.846-0.772l-0.89-9.715l5.608-1.823
						c0.352-2.075,0.979-4.119,1.885-6.074l-3.586-4.678l6.24-7.5L201.184,97.836L201.184,97.836z M207.328,110.412
						c-3.697,4.444-3.092,11.042,1.351,14.739c4.443,3.697,11.042,3.092,14.739-1.351c3.697-4.443,3.092-11.042-1.351-14.739
						C217.624,105.364,211.025,105.969,207.328,110.412z"/>
				</g>
			</g>
		</g>
	</g>
	<g>
		<g>
			<g>
				<g>
					<path style="fill:#F5F5F5;" d="M385.097,38.268c1.749-1.242,3.635-2.225,5.603-2.944l0.769-5.819l9.669-0.886l1.814,5.581
						c2.066,0.35,4.1,0.973,6.046,1.876l4.656-3.569l7.464,6.211l-2.663,5.226c1.242,1.749,2.225,3.637,2.944,5.605l5.818,0.768
						l0.886,9.669l-5.581,1.814c-0.35,2.065-0.973,4.099-1.876,6.045l3.569,4.656l-6.21,7.464l-5.227-2.663
						c-1.749,1.242-3.636,2.225-5.604,2.944l-0.769,5.819l-9.669,0.886l-1.814-5.582c-2.066-0.35-4.1-0.974-6.045-1.877
						l-4.656,3.569l-7.464-6.211l2.663-5.226c-1.242-1.749-2.225-3.636-2.945-5.604l-5.818-0.769l-0.886-9.669l5.581-1.814
						c0.35-2.065,0.974-4.099,1.876-6.045l-3.569-4.656l6.21-7.464L385.097,38.268L385.097,38.268z M391.212,50.783
						c-3.679,4.422-3.077,10.99,1.345,14.669c4.422,3.679,10.99,3.077,14.669-1.345c3.679-4.422,3.078-10.99-1.345-14.669
						C401.459,45.759,394.892,46.361,391.212,50.783z"/>
				</g>
			</g>
		</g>
	</g>
	<g>
		<g>
			<g>
				<g>
					<path style="fill:#F5F5F5;" d="M474.423,51.815c0.995-0.706,2.068-1.265,3.187-1.675l0.437-3.31l5.5-0.504l1.032,3.175
						c1.175,0.199,2.332,0.554,3.439,1.067l2.648-2.03l4.246,3.533l-1.515,2.973c0.706,0.995,1.266,2.069,1.675,3.188l3.31,0.437
						l0.504,5.5l-3.175,1.032c-0.199,1.175-0.554,2.332-1.067,3.438l2.03,2.649l-3.532,4.246l-2.973-1.515
						c-0.995,0.706-2.068,1.265-3.188,1.675l-0.437,3.31l-5.5,0.504l-1.032-3.175c-1.175-0.199-2.332-0.554-3.439-1.067l-2.648,2.03
						l-4.246-3.533l1.515-2.973c-0.706-0.995-1.266-2.068-1.675-3.188l-3.31-0.437l-0.504-5.5l3.175-1.032
						c0.199-1.175,0.554-2.332,1.067-3.438l-2.03-2.648l3.532-4.246L474.423,51.815L474.423,51.815z M477.902,58.935
						c-2.093,2.515-1.751,6.251,0.765,8.344c2.515,2.093,6.251,1.75,8.344-0.765c2.093-2.515,1.751-6.251-0.765-8.344
						C483.73,56.077,479.995,56.419,477.902,58.935z"/>
				</g>
			</g>
		</g>
	</g>
	<g>
		<g>
			<g>
				<g>
					<path style="fill:#E0E0E0;" d="M148.954,210.147c1.62-1.151,3.369-2.061,5.192-2.728l0.712-5.392l8.96-0.821l1.681,5.172
						c1.914,0.324,3.799,0.902,5.602,1.739l4.315-3.308l6.916,5.755l-2.467,4.843c1.151,1.621,2.062,3.37,2.728,5.194l5.391,0.712
						l0.821,8.96l-5.172,1.681c-0.324,1.914-0.902,3.799-1.739,5.602l3.307,4.315l-5.755,6.917l-4.844-2.468
						c-1.621,1.151-3.369,2.061-5.193,2.728l-0.712,5.392l-8.96,0.821l-1.681-5.172c-1.914-0.324-3.799-0.902-5.602-1.739
						l-4.315,3.308l-6.916-5.755l2.468-4.843c-1.151-1.621-2.062-3.369-2.729-5.193l-5.392-0.712l-0.821-8.96l5.172-1.682
						c0.324-1.914,0.902-3.799,1.739-5.602l-3.307-4.315l5.755-6.917L148.954,210.147L148.954,210.147z M154.621,221.745
						c-3.41,4.098-2.852,10.184,1.246,13.593c4.098,3.41,10.184,2.852,13.593-1.246c3.409-4.098,2.852-10.184-1.246-13.593
						C164.116,217.089,158.03,217.647,154.621,221.745z"/>
				</g>
			</g>
		</g>
	</g>
	<g>
		<g>
			<g>
				<path style="fill:#EBEBEB;" d="M73.756,138.144H38.443c-2.44,0-4.418-1.978-4.418-4.419V84.847c0-2.44,1.978-4.419,4.418-4.419
					h22.396l17.336,17.868v35.429C78.175,136.166,76.197,138.144,73.756,138.144z"/>
			</g>
		</g>
		<g>
			<g>
				<path style="fill:#E0E0E0;" d="M72.453,138.144H39.745c-3.16,0-5.721-2.561-5.721-5.721v-11.791h44.151v11.791
					C78.175,135.583,75.613,138.144,72.453,138.144z"/>
			</g>
		</g>
		<g>
			<g>
				<path style="fill:#FAFAFA;" d="M49.671,131.928l1.111-1.333c0.469,0.63,0.987,0.95,1.605,0.95c0.802,0,1.222-0.481,1.222-1.432
					v-4.111h-3.037v-1.605h5.024v5.604c0,2.135-1.074,3.185-3.111,3.185C51.325,133.187,50.301,132.743,49.671,131.928z"/>
			</g>
			<g>
				<path style="fill:#FAFAFA;" d="M56.791,132.422l0.642-1.382c0.592,0.383,1.493,0.642,2.308,0.642
					c0.889,0,1.222-0.235,1.222-0.605c0-1.086-4.012,0.025-4.012-2.629c0-1.259,1.136-2.148,3.074-2.148
					c0.913,0,1.926,0.21,2.555,0.58l-0.642,1.37c-0.654-0.371-1.309-0.494-1.913-0.494c-0.864,0-1.234,0.272-1.234,0.617
					c0,1.136,4.011,0.037,4.011,2.654c0,1.234-1.148,2.111-3.135,2.111C58.544,133.138,57.408,132.829,56.791,132.422z"/>
			</g>
		</g>
		<g>
			<g>
				<path style="fill:#FAFAFA;" d="M43.378,111.44l1.385-1.623c0.907,1.289,2.076,1.981,3.485,1.981
					c1.886,0,2.864-1.146,2.864-3.389v-9.38h-6.039v-2.077h8.402v11.338c0,3.724-1.814,5.561-5.227,5.561
					C46.267,113.851,44.452,112.992,43.378,111.44z"/>
			</g>
			<g>
				<path style="fill:#FAFAFA;" d="M56.413,112.323l0.954-1.814c1.074,0.764,2.793,1.313,4.44,1.313
					c2.124,0,3.008-0.644,3.008-1.718c0-2.84-7.996-0.382-7.996-5.418c0-2.267,2.028-3.795,5.275-3.795
					c1.647,0,3.509,0.43,4.607,1.145l-0.979,1.814c-1.146-0.74-2.411-1.002-3.652-1.002c-2.005,0-2.984,0.74-2.984,1.742
					c0,2.984,8.02,0.549,8.02,5.466c0,2.291-2.101,3.747-5.466,3.747C59.54,113.803,57.463,113.159,56.413,112.323z"/>
			</g>
		</g>
		<g style="opacity:0.3;">
			<g>
				<path style="fill:#FFFFFF;" d="M60.839,80.429v13.756c0,2.27,1.84,4.109,4.109,4.11l13.227,0.002L60.839,80.429z"/>
			</g>
		</g>
		<g>
			<g>
				<path style="fill:#E0E0E0;" d="M61.019,95.392c0,0-0.174,3.336,3.624,4.433c0.143,0.041,0.289,0.072,0.435,0.098
					c1.727,0.309,13.097,2.331,13.097,2.07c0-0.283,0-3.697,0-3.697H64.948C64.948,98.297,61.645,98.184,61.019,95.392z"/>
			</g>
		</g>
	</g>
	<g>
		<g>
			<g>
				<g>
					<path style="fill:#EBEBEB;" d="M134.886,109.658H91.258c-3.015,0-5.459-2.444-5.459-5.459V43.812
						c0-3.015,2.444-5.459,5.459-5.459h27.669l21.418,22.075v43.77C140.344,107.214,137.9,109.658,134.886,109.658z"/>
				</g>
			</g>
			<g>
				<g>
					<path style="fill:#E0E0E0;" d="M133.866,109.658H92.277c-3.578,0-6.479-2.9-6.479-6.479V89.262
						c0-0.684,0.555-1.239,1.239-1.239h52.068c0.684,0,1.239,0.555,1.239,1.239v13.917
						C140.344,106.757,137.444,109.658,133.866,109.658z"/>
				</g>
			</g>
			<g style="opacity:0.2;">
				<g>
					<path style="fill:#FFFFFF;" d="M118.927,38.354v16.995c0,2.804,2.273,5.077,5.076,5.077l16.341,0.003L118.927,38.354z"/>
				</g>
			</g>
			<g>
				<g>
					<path style="fill:#E0E0E0;" d="M119.15,56.84c0,0-0.215,4.122,4.478,5.477c0.176,0.051,0.357,0.089,0.537,0.121
						c2.134,0.381,16.18,2.88,16.18,2.557c0-0.349,0-4.567,0-4.567h-16.341C124.003,60.429,119.923,60.289,119.15,56.84z"/>
				</g>
			</g>
		</g>
		<g>
			<g>
				<path style="fill:#FAFAFA;" d="M101.413,97.449c0-2.558,1.964-4.387,4.605-4.387c1.467,0,2.691,0.533,3.49,1.503l-1.26,1.163
					c-0.569-0.655-1.284-0.994-2.133-0.994c-1.588,0-2.715,1.115-2.715,2.715c0,1.6,1.127,2.715,2.715,2.715
					c0.848,0,1.563-0.34,2.133-1.006l1.26,1.163c-0.8,0.982-2.024,1.515-3.502,1.515
					C103.377,101.836,101.413,100.007,101.413,97.449z"/>
			</g>
			<g>
				<path style="fill:#FAFAFA;" d="M110.086,100.855l0.667-1.479c0.715,0.521,1.781,0.884,2.799,0.884
					c1.163,0,1.636-0.388,1.636-0.909c0-1.588-4.932-0.497-4.932-3.648c0-1.442,1.163-2.642,3.575-2.642
					c1.067,0,2.157,0.254,2.944,0.751l-0.605,1.491c-0.788-0.449-1.6-0.667-2.351-0.667c-1.163,0-1.612,0.436-1.612,0.969
					c0,1.563,4.932,0.485,4.932,3.6c0,1.417-1.176,2.629-3.599,2.629C112.195,101.836,110.837,101.436,110.086,100.855z"/>
			</g>
			<g>
				<path style="fill:#FAFAFA;" d="M117.814,100.855l0.666-1.479c0.715,0.521,1.782,0.884,2.8,0.884
					c1.163,0,1.636-0.388,1.636-0.909c0-1.588-4.933-0.497-4.933-3.648c0-1.442,1.163-2.642,3.575-2.642
					c1.067,0,2.158,0.254,2.945,0.751l-0.606,1.491c-0.788-0.449-1.6-0.667-2.351-0.667c-1.163,0-1.612,0.436-1.612,0.969
					c0,1.563,4.933,0.485,4.933,3.6c0,1.417-1.176,2.629-3.599,2.629C119.923,101.836,118.566,101.436,117.814,100.855z"/>
			</g>
		</g>
		<g>
			<g>
				<path style="fill:#FAFAFA;" d="M104.184,69.995c0.896,0.273,1.306,0.838,1.306,2.183v3.118c0,0.916,0.468,1.442,1.423,1.442
					h0.351v2.377h-1.13c-2.437,0-3.684-1.247-3.684-3.489V72.1c0-0.624-0.331-0.917-0.857-0.917h-0.644v-2.377h0.644
					c0.526,0,0.857-0.293,0.857-0.916v-3.528c0-2.241,1.247-3.488,3.684-3.488h1.13v2.377h-0.351c-0.954,0-1.423,0.526-1.423,1.442
					v3.118C105.49,69.157,105.08,69.722,104.184,69.995z"/>
			</g>
			<g>
				<path style="fill:#FAFAFA;" d="M125.194,68.806v2.377h-0.644c-0.526,0-0.857,0.293-0.857,0.917v3.527
					c0,2.241-1.247,3.489-3.684,3.489h-1.13v-2.377h0.351c0.954,0,1.423-0.527,1.423-1.442v-3.118c0-1.345,0.409-1.91,1.306-2.183
					c-0.897-0.273-1.306-0.838-1.306-2.183v-3.118c0-0.916-0.468-1.442-1.423-1.442h-0.351v-2.377h1.13
					c2.437,0,3.684,1.247,3.684,3.488v3.528c0,0.624,0.331,0.916,0.857,0.916H125.194z"/>
			</g>
		</g>
	</g>
</g>
<g id="Background_Simple" style="display:none;">
	<g style="display:inline;">
		<path style="fill:#F5F5F5;" d="M185.438,70.247l0.36,1.574c3.036,13.269-1.242,27.195-11.495,35.958
			c-1.318,1.126-2.718,2.158-4.191,3.081c-10.608,6.643-24.696,7.417-36.119,1.984c-6.718-3.195-12.828-8.45-20.217-8.991
			c-9.616-0.703-17.586,6.715-24.246,13.594c-6.66,6.879-14.655,14.282-24.269,13.536c-6.021-0.467-11.416-4.203-15.408-8.78
			c-10.568-12.116-12.536-30.208-7.295-45.236C47.8,61.94,59.376,49.816,72.737,41.226c18.716-12.034,42.012-17.814,63.948-13.112
			C158.62,32.816,178.579,48.854,185.438,70.247z"/>
	</g>
	<g style="display:inline;">
		
			<ellipse transform="matrix(0.7071 -0.7071 0.7071 0.7071 26.4132 175.1601)" style="fill:#F5F5F5;" cx="224.644" cy="55.697" rx="16.328" ry="16.328"/>
	</g>
	<g style="display:inline;">
		
			<ellipse transform="matrix(0.7071 -0.7071 0.7071 0.7071 -173.9874 113.0617)" style="fill:#F5F5F5;" cx="49.484" cy="266.552" rx="16.328" ry="16.328"/>
	</g>
</g>
<g id="Floor">
	<g>
		<g>
			<path style="fill:#263238;" d="M723.681,462.453c0,0.144-156.122,0.26-348.664,0.26c-192.609,0-348.698-0.116-348.698-0.26
				c0-0.144,156.089-0.26,348.698-0.26C567.559,462.193,723.681,462.309,723.681,462.453z"/>
		</g>
	</g>
</g>
<g id="Screen">
	<g>
		<g>
			<g>
				<g>
					<path style="fill:#263238;" d="M511.933,374.172H171.231c-5.056,0-9.154-4.099-9.154-9.155V135.526
						c0-5.356,4.342-9.697,9.697-9.697h342.832c5.356,0,9.697,4.342,9.697,9.697v226.275
						C524.304,368.633,518.765,374.172,511.933,374.172z"/>
				</g>
			</g>
			<g>
				<g>
					<g>
						<rect x="208.315" y="161.446" style="fill:#455A64;" width="25.548" height="5.571"/>
					</g>
				</g>
				<g>
					<g>
						<rect x="208.315" y="186.399" style="fill:#FF725E;" width="12.774" height="5.571"/>
					</g>
				</g>
				<g>
					<g>
						<rect x="217.928" y="198.949" style="fill:#455A64;" width="17.987" height="5.571"/>
					</g>
				</g>
				<g>
					<g>
						<rect x="238.777" y="198.949" style="fill:#455A64;" width="10.48" height="5.571"/>
					</g>
				</g>
				<g>
					<g>
						<rect x="321.672" y="198.949" style="fill:#455A64;" width="21.554" height="5.571"/>
					</g>
				</g>
				<g>
					<g>
						<rect x="369.807" y="211.183" style="fill:#455A64;" width="36.415" height="5.571"/>
					</g>
				</g>
				<g>
					<g>
						<rect x="444.908" y="198.949" style="fill:#455A64;" width="17.486" height="5.571"/>
					</g>
				</g>
				<g>
					<g>
						<rect x="467.758" y="198.949" style="fill:#455A64;" width="35.159" height="5.571"/>
					</g>
				</g>
				<g>
					<g>
						<rect x="217.928" y="211.183" style="fill:#455A64;" width="17.987" height="5.571"/>
					</g>
				</g>
				<g>
					<g>
						<rect x="206.876" y="223.385" style="fill:#FF725E;" width="17.987" height="5.571"/>
					</g>
				</g>
				<g>
					<g>
						<rect x="216.46" y="235.587" style="fill:#455A64;" width="8.404" height="5.571"/>
					</g>
				</g>
				<g>
					<g>
						<rect x="247.31" y="261.293" style="fill:#455A64;" width="8.404" height="5.571"/>
					</g>
				</g>
				<g>
					<g>
						<rect x="362.913" y="307.736" style="fill:#455A64;" width="16.419" height="5.571"/>
					</g>
				</g>
				<g>
					<g>
						<rect x="430.839" y="307.736" style="fill:#455A64;" width="40.226" height="5.571"/>
					</g>
				</g>
				<g>
					<g>
						<rect x="301.092" y="295.545" style="fill:#E0E0E0;" width="16.418" height="5.571"/>
					</g>
				</g>
				<g>
					<g>
						<rect x="241.596" y="285.082" style="fill:#455A64;" width="16.419" height="5.571"/>
					</g>
				</g>
				<g>
					<g>
						<rect x="333.616" y="307.736" style="fill:#455A64;" width="25.889" height="5.571"/>
					</g>
				</g>
				<g>
					<g>
						<rect x="216.46" y="248.016" style="fill:#455A64;" width="13.637" height="5.571"/>
					</g>
				</g>
				<g>
					<g>
						<rect x="216.46" y="261.501" style="fill:#455A64;" width="25.297" height="5.571"/>
					</g>
				</g>
				<g>
					<g>
						<rect x="216.46" y="271.826" style="fill:#455A64;" width="37.013" height="5.571"/>
					</g>
				</g>
				<g>
					<g>
						<rect x="283.518" y="271.826" style="fill:#455A64;" width="37.013" height="5.571"/>
					</g>
				</g>
				<g>
					<g>
						<rect x="241.27" y="295.545" style="fill:#455A64;" width="51.969" height="5.571"/>
					</g>
				</g>
				<g>
					<g>
						<rect x="241.27" y="307.736" style="fill:#455A64;" width="87.9" height="5.571"/>
					</g>
				</g>
				<g>
					<g>
						<rect x="214.678" y="319.927" style="fill:#455A64;" width="87.9" height="5.571"/>
					</g>
				</g>
				<g>
					<g>
						<rect x="257.379" y="271.826" style="fill:#455A64;" width="22.205" height="5.571"/>
					</g>
				</g>
				<g>
					<g>
						<rect x="228.181" y="235.587" style="fill:#455A64;" width="22.911" height="5.571"/>
					</g>
				</g>
				<g>
					<g>
						<rect x="233.228" y="248.018" style="fill:#455A64;" width="22.911" height="5.571"/>
					</g>
				</g>
				<g>
					<g>
						<rect x="284.243" y="248.018" style="fill:#455A64;" width="60.667" height="5.571"/>
					</g>
				</g>
				<g>
					<g>
						<rect x="346.561" y="248.018" style="fill:#455A64;" width="70.069" height="5.571"/>
					</g>
				</g>
				<g>
					<g>
						<rect x="259.907" y="248.018" style="fill:#455A64;" width="18.963" height="5.571"/>
					</g>
				</g>
				<g>
					<g>
						<rect x="254.232" y="235.587" style="fill:#455A64;" width="30.035" height="5.571"/>
					</g>
				</g>
				<g>
					<g>
						<rect x="287.581" y="235.587" style="fill:#E0E0E0;" width="16.719" height="5.571"/>
					</g>
				</g>
				<g>
					<g>
						<rect x="238.777" y="211.183" style="fill:#455A64;" width="18.752" height="5.571"/>
					</g>
				</g>
				<g>
					<g>
						<rect x="270.268" y="211.183" style="fill:#455A64;" width="92.59" height="5.571"/>
					</g>
				</g>
				<g>
					<g>
						<rect x="423.018" y="248.018" style="fill:#455A64;" width="43.78" height="5.571"/>
					</g>
				</g>
				<g>
					<g>
						<rect x="383.595" y="307.736" style="fill:#455A64;" width="43.78" height="5.571"/>
					</g>
				</g>
				<g>
					<g>
						<rect x="346.89" y="198.949" style="fill:#455A64;" width="91.208" height="5.571"/>
					</g>
				</g>
				<g>
					<g>
						<rect x="252.532" y="198.949" style="fill:#455A64;" width="63.471" height="5.571"/>
					</g>
				</g>
				<g>
					<g>
						<rect x="208.315" y="173.258" style="fill:#455A64;" width="42.734" height="5.571"/>
					</g>
				</g>
				<g>
					<g>
						<rect x="255.313" y="173.258" style="fill:#455A64;" width="58.515" height="5.571"/>
					</g>
				</g>
				<g>
					<g>
						<rect x="237.854" y="161.446" style="fill:#E0E0E0;" width="18.812" height="5.571"/>
					</g>
				</g>
				<g>
					<g>
						<rect x="183.418" y="161.446" style="fill:#455A64;" width="5.395" height="5.571"/>
					</g>
				</g>
				<g>
					<g>
						<rect x="183.418" y="173.637" style="fill:#455A64;" width="5.395" height="5.571"/>
					</g>
				</g>
				<g>
					<g>
						<rect x="183.418" y="185.828" style="fill:#455A64;" width="5.395" height="5.571"/>
					</g>
				</g>
				<g>
					<g>
						<rect x="183.418" y="198.018" style="fill:#455A64;" width="5.395" height="5.571"/>
					</g>
				</g>
				<g>
					<g>
						<rect x="183.418" y="210.209" style="fill:#455A64;" width="5.395" height="5.571"/>
					</g>
				</g>
				<g>
					<g>
						<rect x="183.418" y="222.4" style="fill:#455A64;" width="5.395" height="5.571"/>
					</g>
				</g>
				<g>
					<g>
						<rect x="183.418" y="234.591" style="fill:#455A64;" width="5.395" height="5.571"/>
					</g>
				</g>
				<g>
					<g>
						<rect x="183.418" y="246.782" style="fill:#455A64;" width="5.395" height="5.571"/>
					</g>
				</g>
				<g>
					<g>
						<rect x="183.418" y="258.973" style="fill:#455A64;" width="5.395" height="5.571"/>
					</g>
				</g>
				<g>
					<g>
						<rect x="245.248" y="346.262" style="fill:#E0E0E0;" width="8.404" height="5.571"/>
					</g>
				</g>
				<g>
					<g>
						<rect x="214.842" y="346.262" style="fill:#FF725E;" width="25.298" height="5.571"/>
					</g>
				</g>
				<g>
					<g>
						<rect x="183.418" y="345.644" style="fill:#455A64;" width="5.395" height="5.571"/>
					</g>
				</g>
				<g>
					<g>
						<rect x="183.418" y="271.164" style="fill:#455A64;" width="5.395" height="5.571"/>
					</g>
				</g>
				<g>
					<g>
						<rect x="183.418" y="283.354" style="fill:#455A64;" width="5.395" height="5.571"/>
					</g>
				</g>
				<g>
					<g>
						<rect x="183.418" y="295.545" style="fill:#455A64;" width="5.395" height="5.571"/>
					</g>
				</g>
				<g>
					<g>
						<rect x="183.418" y="307.736" style="fill:#455A64;" width="5.395" height="5.571"/>
					</g>
				</g>
				<g>
					<g>
						<rect x="183.418" y="319.927" style="fill:#455A64;" width="5.395" height="5.571"/>
					</g>
				</g>
				<g>
					<g>
						<rect x="214.678" y="332.756" style="fill:#455A64;" width="25.626" height="5.571"/>
					</g>
				</g>
				<g>
					<g>
						<rect x="245.248" y="332.756" style="fill:#455A64;" width="57.967" height="5.571"/>
					</g>
				</g>
				<g>
					<g>
						<rect x="183.418" y="332.756" style="fill:#455A64;" width="5.395" height="5.571"/>
					</g>
				</g>
				<g>
					<g>
						<rect x="320.967" y="173.221" style="fill:#E0E0E0;" width="18.812" height="5.571"/>
					</g>
				</g>
			</g>
			<g>
				<circle style="fill:#455A64;" cx="182.289" cy="141.889" r="3.827"/>
			</g>
			<g>
				<circle style="fill:#455A64;" cx="192.91" cy="141.889" r="3.827"/>
			</g>
			<g>
				<circle style="fill:#455A64;" cx="203.532" cy="141.889" r="3.827"/>
			</g>
			<g style="opacity:0.3;">
				<path d="M492.48,361.074H356.092c-3.997,0-7.237-3.24-7.237-7.237v-71.989c0-3.997,3.24-7.237,7.237-7.237H492.48
					c3.997,0,7.237,3.24,7.237,7.237v71.989C499.716,357.834,496.476,361.074,492.48,361.074z"/>
			</g>
			<g>
				<path style="fill:#FF725E;" d="M505.922,351.833H363.95c-2.454,0-4.444-1.99-4.444-4.444v-77.574
					c0-2.454,1.99-4.444,4.444-4.444h141.973c2.454,0,4.444,1.99,4.444,4.444v77.574
					C510.367,349.843,508.377,351.833,505.922,351.833z"/>
			</g>
			<g>
				<path style="fill:#FFFFFF;" d="M418.618,319.169h-13.774l-2.56,6.329h-9.4l14.38-32.575h9.074l14.426,32.575h-9.586
					L418.618,319.169z M415.919,312.375l-4.188-10.425l-4.188,10.425H415.919z"/>
				<path style="fill:#FFFFFF;" d="M455.939,294.389c2.172,0.977,3.847,2.373,5.026,4.188c1.179,1.815,1.769,3.949,1.769,6.399
					c0,2.451-0.59,4.576-1.769,6.375c-1.18,1.8-2.854,3.188-5.026,4.165c-2.172,0.978-4.731,1.466-7.678,1.466h-5.678v8.517h-9.214
					v-32.575h14.892C451.208,292.923,453.767,293.411,455.939,294.389z M451.984,308.49c0.961-0.822,1.442-1.993,1.442-3.514
					c0-1.52-0.481-2.699-1.442-3.537c-0.962-0.838-2.39-1.256-4.281-1.256h-5.119v9.539h5.119
					C449.594,309.722,451.022,309.312,451.984,308.49z"/>
				<path style="fill:#FFFFFF;" d="M467.202,292.923h9.214v32.575h-9.214V292.923z"/>
			</g>
		</g>
		<g>
			<g>
				<path style="fill:#455A64;" d="M198.347,159.856c0.144,0,0.26,47.957,0.26,107.101c0,59.165-0.117,107.111-0.26,107.111
					c-0.144,0-0.26-47.947-0.26-107.111C198.087,207.813,198.203,159.856,198.347,159.856z"/>
			</g>
		</g>
	</g>
	<g>
		<g>
			<g>
				<g>
					<path style="fill:#FF725E;" d="M313.397,391.005c0.009,0,0.018,0.144,0.027,0.425c0.006,0.305,0.015,0.719,0.026,1.247
						c0.011,1.124,0.028,2.734,0.049,4.796c0.02,4.192,0.048,10.211,0.083,17.638c0.01,3.726,0.02,7.804,0.032,12.18
						c0.002,1.095,0.004,2.208,0.007,3.339c-0.017,1.135,0.055,2.267-0.07,3.471c-0.274,2.378-1.593,4.697-3.646,6.182
						c-1.02,0.745-2.213,1.286-3.483,1.546c-1.288,0.27-2.585,0.16-3.861,0.185c-2.577,0.002-5.208,0.004-7.887,0.006
						c-5.357,0.002-10.904,0.003-16.584,0.005c-22.72-0.03-43.285-0.057-58.201-0.076c-7.427-0.035-13.446-0.063-17.637-0.083
						c-2.061-0.021-3.672-0.037-4.795-0.049c-0.529-0.011-0.942-0.02-1.247-0.026c-0.281-0.009-0.425-0.018-0.425-0.027
						s0.144-0.018,0.425-0.027c0.305-0.006,0.718-0.015,1.247-0.026c1.123-0.011,2.734-0.028,4.795-0.049
						c4.191-0.02,10.21-0.048,17.637-0.083c14.916-0.02,35.481-0.047,58.201-0.076c5.681,0.002,11.227,0.004,16.584,0.005
						c2.678,0.002,5.31,0.004,7.887,0.006c1.293-0.021,2.57,0.085,3.764-0.167c1.202-0.243,2.331-0.753,3.298-1.455
						c1.948-1.402,3.205-3.594,3.473-5.85c0.122-1.116,0.059-2.29,0.079-3.415c0.002-1.131,0.004-2.245,0.007-3.339
						c0.011-4.376,0.022-8.454,0.032-12.18c0.035-7.427,0.063-13.446,0.083-17.638c0.021-2.062,0.037-3.672,0.049-4.796
						c0.011-0.529,0.02-0.942,0.026-1.247C313.38,391.149,313.388,391.005,313.397,391.005z"/>
				</g>
			</g>
			<g>
				<path style="fill:#FF725E;" d="M316.884,387.519c0,1.926-1.561,3.487-3.487,3.487c-1.926,0-3.487-1.561-3.487-3.487
					c0-1.926,1.561-3.487,3.487-3.487C315.323,384.032,316.884,385.593,316.884,387.519z"/>
			</g>
			<g>
				<path style="fill:#FF725E;" d="M199.383,441.218c0,1.926-1.561,3.487-3.487,3.487s-3.487-1.561-3.487-3.487
					c0-1.926,1.561-3.487,3.487-3.487S199.383,439.292,199.383,441.218z"/>
			</g>
		</g>
		<g>
			<g>
				<path style="fill:#FF725E;" d="M594.216,360.114c0,2.686-2.178,4.864-4.864,4.864c-2.686,0-4.864-2.178-4.864-4.864
					c0-2.686,2.178-4.864,4.864-4.864C592.039,355.251,594.216,357.428,594.216,360.114z"/>
			</g>
			<g>
				<path style="fill:#FF725E;" d="M617.805,338.547c0,2.686-2.178,4.864-4.864,4.864c-2.686,0-4.864-2.178-4.864-4.864
					c0-2.686,2.178-4.864,4.864-4.864C615.628,333.684,617.805,335.861,617.805,338.547z"/>
			</g>
			<g>
				<path style="fill:#FF725E;" d="M594.687,316.98c0,2.686-2.178,4.864-4.864,4.864c-2.686,0-4.864-2.178-4.864-4.864
					c0-2.686,2.178-4.864,4.864-4.864C592.51,312.117,594.687,314.294,594.687,316.98z"/>
			</g>
			<g>
				<g>
					<path style="fill:#FF725E;" d="M612.269,338.547c0,0.144-18.95,0.26-42.32,0.26c-23.378,0-42.324-0.116-42.324-0.26
						c0-0.144,18.945-0.26,42.324-0.26C593.319,338.287,612.269,338.404,612.269,338.547z"/>
				</g>
			</g>
			<g>
				<g>
					<path style="fill:#FF725E;" d="M589.353,362.334c-0.144,0-0.26-9.949-0.26-22.22c0-12.275,0.117-22.222,0.26-22.222
						s0.26,9.947,0.26,22.222C589.613,352.384,589.496,362.334,589.353,362.334z"/>
				</g>
			</g>
		</g>
	</g>
</g>
<g id="Code_Icon">
	<g>
		<g>
			<path style="fill:#FF725E;" d="M342.885,139.059H269.59c-4.629,0-8.382-3.753-8.382-8.382V87.896
				c0-4.629,3.753-8.382,8.382-8.382h73.295c4.629,0,8.382,3.753,8.382,8.382v42.782
				C351.267,135.307,347.514,139.059,342.885,139.059z"/>
		</g>
		<g style="opacity:0.3;">
			<path d="M342.885,139.059H269.59c-4.629,0-8.382-3.753-8.382-8.382V87.896c0-4.629,3.753-8.382,8.382-8.382h73.295
				c4.629,0,8.382,3.753,8.382,8.382v42.782C351.267,135.307,347.514,139.059,342.885,139.059z"/>
		</g>
		<g>
			<path style="fill:#FF725E;" d="M336.84,139.059h-73.295c-4.629,0-8.382-3.753-8.382-8.382V87.896
				c0-4.629,3.753-8.382,8.382-8.382h73.295c4.629,0,8.382,3.753,8.382,8.382v42.782
				C345.222,135.307,341.469,139.059,336.84,139.059z"/>
		</g>
		<g>
			<path style="fill:#FFFFFF;" d="M290.462,105.941l-12.275,4.348l12.275,4.348v5.618l-18.97-7.003v-5.926l18.97-7.003V105.941z"/>
			<path style="fill:#FFFFFF;" d="M303.967,91.358h6.502l-12.697,36.246h-6.503L303.967,91.358z"/>
			<path style="fill:#FFFFFF;" d="M329.863,107.326v5.926l-18.97,7.003v-5.618l12.274-4.348l-12.274-4.348v-5.618L329.863,107.326z"
				/>
		</g>
	</g>
</g>
<g id="Configuration_Icon">
	<g>
		<g>
			<g>
				<g>
					<path style="fill:#E0E0E0;" d="M432.095,100.77c3.023-1.827,6.241-3.212,9.56-4.155l1.969-9.463l15.988-0.28l2.301,9.387
						c3.35,0.826,6.616,2.097,9.701,3.816l4.436-5.297h3.644l11.503,11.107l-5.008,8.259c1.827,3.024,3.212,6.243,4.154,9.562
						l9.462,1.969l0.281,15.987l-9.387,2.301c-0.826,3.35-2.097,6.614-3.816,9.7l5.296,8.081l-11.106,11.503h-3.644l-4.616-5.009
						c-3.023,1.827-6.242,3.212-9.561,4.154l-1.97,9.463l-15.987,0.281l-2.301-9.387c-3.35-0.826-6.615-2.097-9.7-3.816l-8.08,5.296
						h-3.644l-7.859-11.107l5.008-8.26c-1.827-3.024-3.213-6.242-4.155-9.561l-9.462-1.969l-0.281-15.987l9.387-2.302
						c0.826-3.35,2.098-6.614,3.816-9.7l-5.296-8.08l7.462-11.504h3.644L432.095,100.77L432.095,100.77z M440.617,122.068
						c-6.58,6.816-6.389,17.675,0.426,24.255c6.816,6.58,17.675,6.389,24.254-0.427c6.58-6.815,6.39-17.675-0.426-24.255
						C458.056,115.062,447.197,115.253,440.617,122.068z"/>
				</g>
			</g>
		</g>
		<g style="opacity:0.3;">
			<g>
				<g>
					<path d="M432.095,100.77c3.023-1.827,6.241-3.212,9.56-4.155l1.969-9.463l15.988-0.28l2.301,9.387
						c3.35,0.826,6.616,2.097,9.701,3.816l4.436-5.297h3.644l11.503,11.107l-5.008,8.259c1.827,3.024,3.212,6.243,4.154,9.562
						l9.462,1.969l0.281,15.987l-9.387,2.301c-0.826,3.35-2.097,6.614-3.816,9.7l5.296,8.081l-11.106,11.503h-3.644l-4.616-5.009
						c-3.023,1.827-6.242,3.212-9.561,4.154l-1.97,9.463l-15.987,0.281l-2.301-9.387c-3.35-0.826-6.615-2.097-9.7-3.816l-8.08,5.296
						h-3.644l-7.859-11.107l5.008-8.26c-1.827-3.024-3.213-6.242-4.155-9.561l-9.462-1.969l-0.281-15.987l9.387-2.302
						c0.826-3.35,2.098-6.614,3.816-9.7l-5.296-8.08l7.462-11.504h3.644L432.095,100.77L432.095,100.77z M440.617,122.068
						c-6.58,6.816-6.389,17.675,0.426,24.255c6.816,6.58,17.675,6.389,24.254-0.427c6.58-6.815,6.39-17.675-0.426-24.255
						C458.056,115.062,447.197,115.253,440.617,122.068z"/>
				</g>
			</g>
		</g>
		<g>
			<g>
				<g>
					<path style="fill:#E0E0E0;" d="M428.451,100.77c3.023-1.827,6.241-3.212,9.56-4.155l1.969-9.463l15.988-0.28l2.301,9.387
						c3.35,0.826,6.616,2.097,9.701,3.816l8.08-5.297l11.503,11.107l-5.008,8.259c1.827,3.024,3.212,6.243,4.154,9.562l9.462,1.969
						l0.281,15.987l-9.387,2.301c-0.826,3.35-2.097,6.614-3.816,9.7l5.296,8.081l-11.106,11.503l-8.261-5.009
						c-3.023,1.827-6.242,3.212-9.561,4.154l-1.97,9.463l-15.987,0.281l-2.301-9.387c-3.35-0.826-6.615-2.097-9.7-3.816l-8.08,5.296
						l-11.503-11.107l5.008-8.26c-1.827-3.024-3.213-6.242-4.155-9.561l-9.462-1.969l-0.28-15.987l9.387-2.302
						c0.826-3.35,2.098-6.614,3.816-9.7l-5.296-8.08l11.106-11.504L428.451,100.77L428.451,100.77z M436.973,122.068
						c-6.58,6.816-6.389,17.675,0.426,24.255c6.815,6.58,17.675,6.389,24.254-0.427c6.58-6.815,6.39-17.675-0.426-24.255
						C454.412,115.062,443.553,115.253,436.973,122.068z"/>
				</g>
			</g>
		</g>
	</g>
</g>
<g id="Web">
	<g>
		<g>
			<path style="fill:#FFFFFF;" d="M711.004,291.822H559.305c-5.573,0-10.091-4.518-10.091-10.091V65.597
				c0-5.573,4.518-10.091,10.091-10.091h151.699c5.573,0,10.091,4.518,10.091,10.091v216.134
				C721.095,287.304,716.577,291.822,711.004,291.822z"/>
		</g>
		<g>
			<rect x="614.265" y="185.85" style="fill:#E0E0E0;" width="41.779" height="34.871"/>
		</g>
		<g>
			<rect x="667.124" y="186.295" style="fill:#E0E0E0;" width="41.779" height="34.871"/>
		</g>
		<g>
			<rect x="561.405" y="186.295" style="fill:#E0E0E0;" width="41.779" height="34.871"/>
		</g>
		<g>
			<rect x="549.214" y="105.696" style="fill:#E0E0E0;" width="171.881" height="63.727"/>
		</g>
		<g>
			<path style="fill:#E0E0E0;" d="M721.095,79.105H549.214V64.783c0-5.124,4.154-9.277,9.277-9.277h152.2
				c5.745,0,10.403,4.658,10.403,10.403V79.105z"/>
		</g>
		<g>
			<path style="fill:#FF725E;" d="M573.102,92.401c0,4.133-3.351,7.484-7.484,7.484c-4.133,0-7.484-3.351-7.484-7.484
				s3.351-7.484,7.484-7.484C569.751,84.916,573.102,88.267,573.102,92.401z"/>
		</g>
		<g>
			<rect x="612.853" y="89.078" style="fill:#E0E0E0;" width="27.494" height="6.407"/>
		</g>
		<g>
			<rect x="647.117" y="89.078" style="fill:#E0E0E0;" width="27.494" height="6.407"/>
		</g>
		<g>
			<rect x="681.381" y="89.078" style="fill:#E0E0E0;" width="27.494" height="6.407"/>
		</g>
		<g>
			<rect x="561.405" y="232.949" style="fill:#E0E0E0;" width="41.779" height="5.585"/>
		</g>
		<g>
			<rect x="561.405" y="245.139" style="fill:#E0E0E0;" width="41.779" height="5.585"/>
		</g>
		<g>
			<rect x="561.405" y="257.329" style="fill:#E0E0E0;" width="22.62" height="5.585"/>
		</g>
		<g>
			<rect x="615.112" y="232.949" style="fill:#E0E0E0;" width="41.779" height="5.585"/>
		</g>
		<g>
			<rect x="615.112" y="245.139" style="fill:#E0E0E0;" width="41.779" height="5.585"/>
		</g>
		<g>
			<rect x="615.112" y="257.329" style="fill:#E0E0E0;" width="22.62" height="5.585"/>
		</g>
		<g>
			<rect x="668.818" y="232.949" style="fill:#E0E0E0;" width="41.779" height="5.585"/>
		</g>
		<g>
			<rect x="668.818" y="245.139" style="fill:#E0E0E0;" width="41.779" height="5.585"/>
		</g>
		<g>
			<rect x="668.818" y="257.329" style="fill:#E0E0E0;" width="22.62" height="5.585"/>
		</g>
		<g>
			<g>
				<path style="fill:#263238;" d="M711.004,291.822c0,0,0.174-0.018,0.518-0.039c0.346-0.004,0.855-0.079,1.525-0.196
					c1.304-0.293,3.326-0.982,5.184-2.901c0.913-0.954,1.747-2.219,2.271-3.766c0.587-1.546,0.525-3.364,0.514-5.305
					c-0.007-3.892-0.015-8.382-0.024-13.435c-0.02-20.224-0.048-49.477-0.083-85.623c-0.01-18.075-0.02-37.874-0.032-59.127
					c-0.004-10.627-0.009-21.618-0.013-32.939c-0.002-5.661-0.004-11.404-0.006-17.226c0-1.455-0.001-2.916-0.001-4.381
					c0.022-1.476,0.003-2.91-0.471-4.288c-0.883-2.738-3.018-5.09-5.747-6.146c-1.363-0.55-2.817-0.73-4.315-0.701
					c-1.503,0-3.01,0.001-4.522,0.001c-3.024,0.001-6.066,0.001-9.125,0.002c-6.119,0.001-12.307,0.003-18.562,0.004
					c-12.509,0.002-25.282,0.004-38.285,0.006c-26.005,0.002-52.931,0.004-80.508,0.005c-1.68,0.015-3.356,0.433-4.817,1.254
					c-1.45,0.831-2.715,2.005-3.573,3.441c-0.887,1.417-1.378,3.064-1.439,4.728c-0.042,1.686-0.012,3.408-0.021,5.105
					c0,6.811-0.001,13.577-0.001,20.293c-0.001,13.433-0.003,26.669-0.004,39.675c-0.005,26.011-0.01,51.102-0.015,75.003
					c-0.008,23.901-0.016,46.613-0.024,67.869c-0.001,2.657-0.002,5.291-0.004,7.902c-0.123,2.583,0.682,5.142,2.328,7.062
					c1.615,1.924,3.963,3.19,6.418,3.448c1.216,0.116,2.489,0.054,3.729,0.072c1.246,0.001,2.485,0.001,3.718,0.002
					c9.866,0.006,19.334,0.012,28.372,0.017c36.146,0.035,65.397,0.063,85.618,0.083c10.104,0.021,17.95,0.038,23.278,0.049
					c2.656,0.011,4.683,0.02,6.054,0.026C710.306,291.804,711.004,291.822,711.004,291.822s-0.699,0.018-2.063,0.027
					c-1.37,0.006-3.397,0.014-6.054,0.026c-5.328,0.011-13.174,0.028-23.278,0.049c-20.221,0.02-49.472,0.048-85.618,0.083
					c-9.038,0.005-18.506,0.011-28.372,0.017c-1.233,0.001-2.473,0.001-3.718,0.002c-1.249-0.017-2.486,0.049-3.776-0.07
					c-2.558-0.267-5.007-1.583-6.691-3.586c-1.717-1.986-2.56-4.698-2.434-7.331c-0.001-2.611-0.002-5.245-0.004-7.902
					c-0.008-21.256-0.016-43.968-0.024-67.869c-0.005-23.901-0.01-48.992-0.015-75.003c-0.001-13.006-0.003-26.242-0.004-39.675
					c0-6.716-0.001-13.482-0.001-20.293c0.009-1.707-0.021-3.398,0.021-5.127c0.064-1.751,0.582-3.488,1.515-4.979
					c0.904-1.511,2.234-2.747,3.762-3.622c1.538-0.865,3.306-1.306,5.071-1.321c27.577,0.002,54.502,0.004,80.508,0.005
					c13.003,0.002,25.775,0.004,38.285,0.007c6.255,0.001,12.443,0.003,18.562,0.004c3.059,0.001,6.101,0.001,9.125,0.002
					c1.512,0,3.019,0.001,4.522,0.001c1.504-0.031,3.077,0.159,4.492,0.737c2.862,1.11,5.098,3.575,6.022,6.447
					c0.496,1.431,0.516,2.99,0.491,4.433c0,1.465-0.001,2.925-0.001,4.381c-0.002,5.822-0.004,11.565-0.006,17.226
					c-0.005,11.321-0.009,22.312-0.013,32.939c-0.011,21.254-0.022,41.052-0.032,59.127c-0.035,36.146-0.063,65.399-0.083,85.623
					c-0.009,5.054-0.017,9.543-0.024,13.435c-0.017,0.974,0.03,1.904-0.041,2.81c-0.053,0.903-0.241,1.755-0.505,2.537
					c-0.538,1.565-1.39,2.839-2.319,3.798c-1.89,1.926-3.934,2.602-5.249,2.88c-0.676,0.109-1.188,0.175-1.535,0.17
					C711.179,291.822,711.004,291.822,711.004,291.822z"/>
			</g>
		</g>
		<g>
			<g>
				<path style="fill:#FFFFFF;" d="M566.003,68.541c0,1.581-1.282,2.863-2.863,2.863c-1.581,0-2.863-1.282-2.863-2.863
					c0-1.581,1.282-2.863,2.863-2.863C564.721,65.677,566.003,66.959,566.003,68.541z"/>
			</g>
			<g>
				<path style="fill:#FFFFFF;" d="M575.055,68.541c0,1.581-1.282,2.863-2.863,2.863c-1.581,0-2.863-1.282-2.863-2.863
					c0-1.581,1.282-2.863,2.863-2.863C573.773,65.677,575.055,66.959,575.055,68.541z"/>
			</g>
			<g>
				<path style="fill:#FFFFFF;" d="M584.107,68.541c0,1.581-1.282,2.863-2.863,2.863s-2.863-1.282-2.863-2.863
					c0-1.581,1.282-2.863,2.863-2.863S584.107,66.959,584.107,68.541z"/>
			</g>
		</g>
		<g>
			<path style="fill:#FFFFFF;" d="M623.246,138.867v-13.962c0-2.623,2.925-4.262,5.265-2.95l12.457,6.981l12.457,6.981
				c2.34,1.311,2.34,4.589,0,5.901l-12.457,6.981l-12.457,6.981c-2.34,1.311-5.265-0.328-5.265-2.95V138.867z"/>
		</g>
	</g>
</g>
<g id="Device">
	<g>
		<g>
			<g>
				<g>
					<g>
						<g>
							<g>
								<g>
									<g>
										<g>
											<path style="fill:#263238;" d="M705.515,462.453l-65.994-0.288c-7.937-0.034-14.343-6.127-14.309-13.609l0.699-155.975
												c0.034-7.487,6.5-13.53,14.442-13.495l65.994,0.287c7.937,0.035,14.343,6.127,14.309,13.61l-0.7,155.975
												C719.923,456.445,713.456,462.488,705.515,462.453z"/>
										</g>
									</g>
								</g>
							</g>
							<g>
								<g>
									<path style="fill:#FFFFFF;" d="M706.253,284.756l-12.795-0.056l-37.369-0.163l-4.5-0.02l-11.199-0.049
										c-5.562-0.024-10.091,4.208-10.114,9.451l-0.683,152.243c-0.024,5.241,4.462,9.508,10.021,9.532l65.862,0.286
										c5.561,0.024,10.09-4.208,10.114-9.451l0.683-152.243C716.298,289.047,711.812,284.781,706.253,284.756z"/>
								</g>
							</g>
						</g>
					</g>
				</g>
			</g>
		</g>
		<g>
			<g>
				<g>
					<g>
						<g>
							<g>
								<path style="fill:#263238;" d="M706.818,298.924c-0.002,0.438-0.368,0.791-0.819,0.789
									c-0.451-0.002-0.815-0.358-0.813-0.795c0.002-0.438,0.369-0.791,0.819-0.789
									C706.455,298.13,706.819,298.486,706.818,298.924z"/>
							</g>
						</g>
					</g>
				</g>
				<g>
					<g>
						<g>
							<g>
								<path style="fill:#263238;" d="M706.807,301.774c-0.002,0.438-0.368,0.791-0.819,0.79c-0.451-0.002-0.815-0.358-0.813-0.796
									c0.002-0.438,0.369-0.791,0.82-0.789C706.444,300.98,706.809,301.336,706.807,301.774z"/>
							</g>
						</g>
					</g>
				</g>
				<g>
					<g>
						<g>
							<g>
								<path style="fill:#263238;" d="M706.796,304.624c-0.002,0.438-0.369,0.791-0.819,0.79c-0.451-0.002-0.815-0.358-0.813-0.795
									c0.002-0.438,0.368-0.791,0.819-0.789C706.433,303.831,706.798,304.187,706.796,304.624z"/>
							</g>
						</g>
					</g>
				</g>
			</g>
		</g>
		<g>
			<g>
				<path style="fill:#FF725E;" d="M650.847,302.564c0,2.889-2.413,5.231-5.389,5.231s-5.389-2.342-5.389-5.231
					c0-2.889,2.413-5.231,5.389-5.231S650.847,299.675,650.847,302.564z"/>
			</g>
		</g>
		<g>
			<path style="fill:#E0E0E0;" d="M690.889,303.568h-27.632c-0.992,0-1.797-0.805-1.797-1.797l0,0c0-0.992,0.805-1.797,1.797-1.797
				h27.631c0.992,0,1.797,0.805,1.797,1.797l0,0C692.685,302.764,691.881,303.568,690.889,303.568z"/>
		</g>
		<path style="fill:#FF725E;" d="M656.714,370.226v-15.458c0-2.904,3.238-4.718,5.829-3.266l13.792,7.729l13.792,7.729
			c2.591,1.452,2.591,5.081,0,6.533l-13.792,7.729l-13.792,7.729c-2.591,1.452-5.829-0.363-5.829-3.266V370.226z"/>
	</g>
</g>
<g id="Cloud">
	<g>
		<g>
			<path style="fill:#FF725E;" d="M510.946,437.48c5.855-9.309,15.764-11.475,24.764-9.426
				c-1.382-13.252,4.579-27.036,15.181-35.106c10.602-8.07,25.476-10.145,37.881-5.284c12.406,4.861,21.911,16.487,24.209,29.612
				c9.33-6.613,23.329-2.138,30.171,7.025c6.843,9.163,7.262,28.736-0.756,37.951l-129.201-0.739
				C513.195,461.513,503.354,449.551,510.946,437.48z"/>
		</g>
		<g style="opacity:0.3;">
			<g>
				<path d="M510.946,437.48c5.855-9.309,15.764-11.475,24.764-9.426c-1.382-13.252,4.579-27.036,15.181-35.106
					c10.602-8.07,25.476-10.145,37.881-5.284c12.406,4.861,21.911,16.487,24.209,29.612c9.33-6.613,23.329-2.138,30.171,7.025
					c6.843,9.163,7.262,28.736-0.756,37.951l-129.201-0.739C513.195,461.513,503.354,449.551,510.946,437.48z"/>
			</g>
		</g>
		<g>
			<path style="fill:#FF725E;" d="M499.845,437.48c5.855-9.309,15.764-11.475,24.764-9.426
				c-1.382-13.252,4.579-27.036,15.181-35.106c10.602-8.07,25.475-10.145,37.881-5.284c12.406,4.861,21.911,16.487,24.209,29.612
				c9.33-6.613,23.329-2.138,30.171,7.025c6.843,9.163,7.262,28.736-0.755,37.951l-129.201-0.739
				C502.094,461.513,492.253,449.551,499.845,437.48z"/>
		</g>
	</g>
</g>
<g id="Character">
	<g>
		<g>
			<path style="fill:#E0E0E0;" d="M176.981,462.456H49.542c-2.138,0-3.871-1.733-3.871-3.871V337.097
				c0-2.138,1.733-3.871,3.871-3.871h127.439c2.138,0,3.871,1.733,3.871,3.871v121.487
				C180.852,460.723,179.119,462.456,176.981,462.456z"/>
		</g>
		<g>
			<g>
				<path style="fill:#263238;" d="M181.086,374.478c0,0.144-30.194,0.26-67.431,0.26c-37.25,0-67.438-0.117-67.438-0.26
					s30.187-0.26,67.438-0.26C150.893,374.217,181.086,374.334,181.086,374.478z"/>
			</g>
		</g>
		<g>
			<g>
				<path style="fill:#263238;" d="M181.086,415.968c0,0.144-30.194,0.26-67.431,0.26c-37.25,0-67.438-0.117-67.438-0.26
					s30.187-0.26,67.438-0.26C150.893,415.707,181.086,415.824,181.086,415.968z"/>
			</g>
		</g>
		<g>
			<circle style="fill:#FFFFFF;" cx="70.246" cy="355.035" r="2.939"/>
		</g>
		<g>
			<circle style="fill:#FFFFFF;" cx="80.791" cy="355.035" r="2.939"/>
		</g>
		<g>
			<path style="fill:#263238;" d="M147.359,360.522h-0.507c-0.602,0-1.09-0.488-1.09-1.09v-7.83c0-0.602,0.488-1.09,1.09-1.09h0.507
				c0.602,0,1.09,0.488,1.09,1.09v7.83C148.45,360.034,147.962,360.522,147.359,360.522z"/>
		</g>
		<g>
			<path style="fill:#263238;" d="M154.135,360.522h-0.507c-0.602,0-1.09-0.488-1.09-1.09v-7.83c0-0.602,0.488-1.09,1.09-1.09h0.507
				c0.602,0,1.09,0.488,1.09,1.09v7.83C155.225,360.034,154.737,360.522,154.135,360.522z"/>
		</g>
		<g>
			<path style="fill:#FFFFFF;" d="M160.382,360.522h-0.507c-0.602,0-1.09-0.488-1.09-1.09v-7.83c0-0.602,0.488-1.09,1.09-1.09h0.507
				c0.602,0,1.09,0.488,1.09,1.09v7.83C161.472,360.034,160.984,360.522,160.382,360.522z"/>
		</g>
		<g>
			<path style="fill:#FF725E;" d="M140.496,360.522h-0.507c-0.602,0-1.09-0.488-1.09-1.09v-7.83c0-0.602,0.488-1.09,1.09-1.09h0.507
				c0.602,0,1.09,0.488,1.09,1.09v7.83C141.586,360.034,141.098,360.522,140.496,360.522z"/>
		</g>
		<g>
			<circle style="fill:#FFFFFF;" cx="70.246" cy="395.344" r="2.939"/>
		</g>
		<g>
			<circle style="fill:#FFFFFF;" cx="80.22" cy="395.344" r="2.939"/>
		</g>
		<g>
			<path style="fill:#263238;" d="M147.359,400.831h-0.507c-0.602,0-1.09-0.488-1.09-1.09v-7.83c0-0.602,0.488-1.09,1.09-1.09h0.507
				c0.602,0,1.09,0.488,1.09,1.09v7.83C148.45,400.343,147.962,400.831,147.359,400.831z"/>
		</g>
		<g>
			<path style="fill:#263238;" d="M154.135,400.831h-0.507c-0.602,0-1.09-0.488-1.09-1.09v-7.83c0-0.602,0.488-1.09,1.09-1.09h0.507
				c0.602,0,1.09,0.488,1.09,1.09v7.83C155.225,400.343,154.737,400.831,154.135,400.831z"/>
		</g>
		<g>
			<path style="fill:#FFFFFF;" d="M160.382,400.831h-0.507c-0.602,0-1.09-0.488-1.09-1.09v-7.83c0-0.602,0.488-1.09,1.09-1.09h0.507
				c0.602,0,1.09,0.488,1.09,1.09v7.83C161.472,400.343,160.984,400.831,160.382,400.831z"/>
		</g>
		<g>
			<path style="fill:#FF725E;" d="M140.496,400.831h-0.507c-0.602,0-1.09-0.488-1.09-1.09v-7.83c0-0.602,0.488-1.09,1.09-1.09h0.507
				c0.602,0,1.09,0.488,1.09,1.09v7.83C141.586,400.343,141.098,400.831,140.496,400.831z"/>
		</g>
		<g>
			<circle style="fill:#FFFFFF;" cx="70.246" cy="438.729" r="2.939"/>
		</g>
		<g>
			<circle style="fill:#FFFFFF;" cx="81.069" cy="438.729" r="2.939"/>
		</g>
		<g>
			<path style="fill:#263238;" d="M147.359,444.216h-0.507c-0.602,0-1.09-0.488-1.09-1.09v-7.83c0-0.602,0.488-1.09,1.09-1.09h0.507
				c0.602,0,1.09,0.488,1.09,1.09v7.83C148.45,443.728,147.962,444.216,147.359,444.216z"/>
		</g>
		<g>
			<path style="fill:#263238;" d="M154.135,444.216h-0.507c-0.602,0-1.09-0.488-1.09-1.09v-7.83c0-0.602,0.488-1.09,1.09-1.09h0.507
				c0.602,0,1.09,0.488,1.09,1.09v7.83C155.225,443.728,154.737,444.216,154.135,444.216z"/>
		</g>
		<g>
			<path style="fill:#FFFFFF;" d="M160.382,444.216h-0.507c-0.602,0-1.09-0.488-1.09-1.09v-7.83c0-0.602,0.488-1.09,1.09-1.09h0.507
				c0.602,0,1.09,0.488,1.09,1.09v7.83C161.472,443.728,160.984,444.216,160.382,444.216z"/>
		</g>
		<g>
			<path style="fill:#FF725E;" d="M140.496,444.216h-0.507c-0.602,0-1.09-0.488-1.09-1.09v-7.83c0-0.602,0.488-1.09,1.09-1.09h0.507
				c0.602,0,1.09,0.488,1.09,1.09v7.83C141.586,443.728,141.098,444.216,140.496,444.216z"/>
		</g>
	</g>
	<g>
		<g>
			<path style="fill:#263238;" d="M113.059,148.536c-0.201-2.342-2.688-4.215-4.995-3.76c-1.31-2.568-4.89-3.66-7.41-2.261
				c-1.199,0.665-2.105,1.764-3.275,2.478c-1.125,0.686-2.441,0.985-3.628,1.554c-1.188,0.57-2.325,1.553-2.474,2.862
				c-0.166,1.454,0.991,2.798,2.351,3.341c1.36,0.543,2.876,0.471,4.338,0.391c-0.639,0.368-0.777,1.295-0.449,1.955
				c0.328,0.66,0.998,1.084,1.682,1.357c2.272,0.908,5.045,0.395,6.843-1.264l2.735-2.098
				C111.126,153.147,113.259,150.879,113.059,148.536z"/>
			<path style="fill:#FF725E;" d="M106.224,157.682c-0.504,0.5-1.408,0.447-1.93-0.035c-0.521-0.482-0.668-1.288-0.464-1.969
				c0.203-0.681,0.712-1.24,1.307-1.628c0.595-0.388,1.276-0.623,1.957-0.825c1.051-0.313,2.129-0.558,3.224-0.612
				c0.389-0.019,0.79-0.011,1.149,0.14c0.359,0.151,0.668,0.474,0.699,0.862c0.045,0.545-0.433,0.976-0.872,1.301
				c-1.641,1.211-3.391,2.274-5.223,3.17"/>
			<path style="fill:#263238;" d="M104.622,157.403c-2.594-2.894-9.049-2.508-10.592-0.626c-2.232-1.18-5.346-0.169-6.459,2.097
				c-2.291,0.484-4.583,0.969-6.874,1.453c-1.172,0.248-2.4,0.522-3.305,1.307c-0.905,0.785-1.337,2.256-0.601,3.201
				c-2.422,0.612-3.396,4.205-1.614,5.956c-0.995,1.031-0.812,2.943,0.36,3.767c-1.91,2.258-3.432,4.845-4.476,7.613
				c-0.437,1.158-0.79,2.451-0.368,3.615c0.422,1.164,1.943,1.974,2.952,1.257c-0.692,0.934-0.761,2.288-0.167,3.287
				c-1.161,0.02-1.52,1.813-0.728,2.662c0.792,0.85,2.088,0.947,3.249,0.929c1.162-0.019,2.42-0.07,3.369,0.599
				c-0.045,0.347-0.184,0.573-0.384,0.734c-2.006,1.607-2.592,4.396-1.111,6.497c0.137,0.195,0.265,0.375,0.377,0.536
				c0.667,0.959,2.325,1.846,3.357,2.393c2.616,1.387,4.182,1.14,7.11,1.584c-0.813,1.885,3.918,6.106,9.396,2.029
				c10.85,2.997,18.679,4.161,29.934,4.271c1.606,0.016,3.538-0.188,4.26-1.623c1.3,0.354,2.71-0.24,3.678-1.176
				c0.969-0.936,1.582-2.171,2.178-3.379c2.786-0.726,4.947-3.393,5.081-6.269c1.895-1.458,3.128-3.743,3.305-6.127
				c2.71-0.805,4.225-4.303,2.958-6.83c-0.558-3.318-1.669-6.542-3.273-9.5c1.844-0.385,2.555-2.863,1.81-4.593
				c-0.745-1.73-2.413-2.852-3.995-3.874c1.374,0.376,2.586-1.344,2.268-2.733c-0.318-1.389-1.558-2.353-2.774-3.095
				c-1.782-1.087-3.697-1.957-5.688-2.585c-0.638-2.428-3.715-5.21-5.977-6.299C122.754,150.082,116.348,148.94,104.622,157.403"/>
			<path style="fill:#AE7461;" d="M97.574,172.085c-0.125-1.923-0.445-3.829,1.461-4.118l19.454-5.865
				c6.272-0.952,10.814,6.618,11.499,12.926c0.761,7.007,1.414,15.592,0.818,20.873c-1.197,10.619-10.554,13.471-10.554,13.471
				c-0.002-0.014,0.243,6.441,0.243,6.441c-0.809,4.956-2.061,10.531-4.073,12.514c-6.882-1.285-18.147-16.417-18.147-16.417
				L97.574,172.085z"/>
			<g>
				<g>
					<g>
						<g>
							<g>
								<g>
									<g>
										<path style="fill:#263238;" d="M119.805,191.054c-0.01-0.082,0.887-0.279,2.344-0.533c0.37-0.055,0.718-0.145,0.769-0.401
											c0.076-0.273-0.098-0.666-0.298-1.09c-0.39-0.883-0.798-1.809-1.227-2.779c-1.708-3.959-2.963-7.221-2.803-7.288
											c0.16-0.067,1.675,3.087,3.383,7.046c0.412,0.977,0.806,1.908,1.182,2.798c0.16,0.416,0.423,0.884,0.259,1.45
											c-0.088,0.282-0.351,0.496-0.586,0.571c-0.235,0.083-0.444,0.097-0.627,0.116
											C120.729,191.089,119.814,191.137,119.805,191.054z"/>
									</g>
								</g>
							</g>
						</g>
					</g>
				</g>
			</g>
			<g>
				<g>
					<g>
						<g>
							<g>
								<g>
									<path style="fill:#6F4439;" d="M120.253,209.37c0,0-5.735-0.366-12.953-4.271c0,0,2.446,6.655,13.045,7.465L120.253,209.37
										z"/>
								</g>
							</g>
						</g>
					</g>
				</g>
			</g>
			<g>
				<g>
					<g>
						<path style="fill:#263238;" d="M113.592,174.84c-0.125,0.402-1.587,0.28-3.284,0.563c-1.703,0.249-3.057,0.811-3.3,0.466
							c-0.109-0.165,0.114-0.548,0.654-0.956c0.534-0.407,1.398-0.811,2.418-0.971c1.02-0.159,1.965-0.038,2.598,0.186
							C113.316,174.353,113.645,174.649,113.592,174.84z"/>
					</g>
				</g>
			</g>
			<g>
				<g>
					<g>
						<path style="fill:#263238;" d="M127.587,174.6c-0.241,0.342-1.259,0.044-2.465,0.083c-1.207-0.004-2.216,0.323-2.466-0.012
							c-0.11-0.163,0.035-0.502,0.467-0.835c0.425-0.332,1.149-0.62,1.978-0.632c0.829-0.011,1.561,0.256,1.995,0.575
							C127.537,174.099,127.692,174.433,127.587,174.6z"/>
					</g>
				</g>
			</g>
			<path style="fill:#263238;" d="M134.73,180.091c-0.101-1.652-0.62-3.332-1.753-4.54c-0.62-0.662-1.406-1.165-1.956-1.886
				c-1.188-1.558-1.021-3.723-1.526-5.616c-0.651-2.44-2.558-4.508-4.937-5.356c-1.979-0.705-4.221-0.609-6.078-1.593
				c-1.373-0.727-2.418-1.99-3.831-2.635c-2.752-1.256-5.943,0.158-8.541,1.707c-0.514,2.064,0.793,3.85,2.053,5.564
				c1.259,1.714,3.303,2.827,5.427,2.953c1.647,0.098,3.571-0.275,4.73,0.899c1.219,1.235,0.748,3.414,1.75,4.831
				c1.433,2.025,4.689,1.253,6.831,2.504c1.654,0.966,2.35,2.944,3.184,4.669c0.833,1.725,2.274,3.523,4.188,3.431
				C134.551,183.392,134.831,181.743,134.73,180.091z"/>
			<path style="fill:#263238;" d="M110.223,163.927c-4.813-0.07-9.639,0.803-14.122,2.557c-1.336,0.523-2.718,1.187-3.479,2.403
				c-0.669,1.069-0.749,2.397-0.733,3.658c0.049,3.95,1.643,8.785,3.152,12.436l4.935,2.949c3.798-0.902,2.049-7.459,1.864-10.746
				c2.65-1.165,4.498-3.963,4.53-6.858C108.538,168.932,110.005,166.497,110.223,163.927z"/>
			<g>
				<g>
					<g>
						<g>
							<g>
								<g>
									<g>
										<path style="fill:#AE7461;" d="M99.906,186.512c-0.151-2.259-2.925-2.696-4.866-1.53c-1.065,0.64-1.867,1.904-1.728,4.303
											c0.372,6.396,6.716,4.703,6.717,4.52C100.029,193.689,100.082,189.156,99.906,186.512z"/>
									</g>
								</g>
							</g>
						</g>
					</g>
				</g>
			</g>
			<g>
				<g>
					<g>
						<g>
							<g>
								<g>
									<g>
										<g>
											<path style="fill:#6F4439;" d="M97.934,191.494c-0.029-0.019-0.107,0.085-0.29,0.182
												c-0.179,0.095-0.491,0.171-0.832,0.066c-0.69-0.209-1.321-1.249-1.419-2.4c-0.05-0.581,0.04-1.142,0.219-1.613
												c0.168-0.479,0.451-0.824,0.788-0.904c0.334-0.098,0.587,0.092,0.675,0.267c0.096,0.174,0.063,0.304,0.097,0.313
												c0.019,0.015,0.131-0.115,0.064-0.376c-0.034-0.125-0.118-0.272-0.275-0.386c-0.161-0.116-0.39-0.167-0.626-0.127
												c-0.491,0.063-0.909,0.542-1.106,1.059c-0.224,0.521-0.339,1.153-0.283,1.805c0.116,1.286,0.846,2.454,1.786,2.668
												c0.457,0.091,0.824-0.066,1.009-0.228C97.931,191.649,97.957,191.504,97.934,191.494z"/>
										</g>
									</g>
								</g>
							</g>
						</g>
					</g>
				</g>
			</g>
			<path style="fill:#455A64;" d="M97.225,194.184c0.003,0-0.004,0.029-0.019,0.085c-0.022,0.053-0.022,0.147-0.086,0.243
				c-0.088,0.214-0.342,0.473-0.741,0.665c-0.399,0.195-0.943,0.314-1.582,0.331c-0.32,0.012-0.664-0.009-1.027-0.066
				c-0.362-0.058-0.746-0.149-1.12-0.338l0.077-0.038c-0.137,0.871-0.711,1.812-1.692,2.323c-0.966,0.512-2.338,0.476-3.373-0.298
				l0.108-0.019c-0.187,0.286-0.497,0.492-0.838,0.56c-0.34,0.078-0.703,0.038-1.036-0.086c-0.333-0.124-0.639-0.361-0.834-0.676
				c-0.197-0.312-0.303-0.679-0.326-1.053c-0.046-0.749,0.227-1.516,0.695-2.134c0.462-0.628,1.072-1.138,1.685-1.644l0.011,0.148
				c-0.539-0.315-0.894-0.898-1.016-1.515c-0.127-0.619-0.065-1.283,0.181-1.887c0.25-0.601,0.655-1.131,1.118-1.596
				c0.464-0.467,0.987-0.876,1.513-1.283l-0.01,0.144c-0.475-0.472-0.677-1.181-0.632-1.855c0.042-0.679,0.294-1.352,0.721-1.9
				c0.821-1.049,2.016-1.632,3.117-2.18l-0.051,0.11c-0.346-1.401,0.071-2.912,1.005-3.914c0.937-1.005,2.325-1.481,3.604-1.333
				l-0.099,0.11c-0.253-1.147,0.171-2.306,0.863-3.113c0.691-0.818,1.697-1.334,2.701-1.33l-0.08,0.081
				c0-1.172,0.652-2.178,1.449-2.79c0.803-0.625,1.798-0.885,2.673-0.741l-0.073,0.063c0.02-0.623,0.249-1.172,0.518-1.641
				c0.275-0.469,0.605-0.868,0.97-1.175c0.711-0.641,1.534-0.902,2.187-0.945c0.082-0.006,0.162-0.012,0.24-0.017
				c0.078,0.001,0.153,0.012,0.225,0.017c0.145,0.017,0.283,0.015,0.405,0.046c0.243,0.068,0.456,0.097,0.611,0.172
				c0.151,0.064,0.269,0.115,0.357,0.152c0.08,0.035,0.119,0.054,0.118,0.057c-0.001,0.003-0.044-0.011-0.125-0.041
				c-0.089-0.033-0.208-0.078-0.361-0.136c-0.156-0.069-0.368-0.091-0.609-0.153c-0.121-0.029-0.257-0.023-0.4-0.038
				c-0.072-0.004-0.146-0.013-0.222-0.013c-0.076,0.007-0.155,0.013-0.235,0.02c-0.639,0.053-1.437,0.317-2.126,0.952
				c-0.353,0.303-0.673,0.697-0.937,1.157c-0.259,0.458-0.476,0.999-0.49,1.584l-0.002,0.074l-0.071-0.011
				c-0.839-0.131-1.794,0.123-2.564,0.73c-0.766,0.594-1.384,1.566-1.378,2.675l0,0.081l-0.08,0c-0.95,0-1.91,0.493-2.57,1.281
				c-0.661,0.777-1.058,1.885-0.817,2.963l0.028,0.124l-0.126-0.015c-1.221-0.14-2.555,0.321-3.445,1.281
				c-0.889,0.955-1.287,2.407-0.955,3.739l0.019,0.075l-0.07,0.035c-1.101,0.548-2.267,1.124-3.049,2.126
				c-0.403,0.517-0.642,1.155-0.681,1.792c-0.042,0.634,0.146,1.281,0.576,1.709l0.077,0.077l-0.087,0.067
				c-1.042,0.8-2.09,1.643-2.574,2.798c-0.233,0.566-0.292,1.197-0.174,1.777c0.115,0.579,0.44,1.11,0.927,1.397l0.112,0.066
				l-0.1,0.082c-0.614,0.503-1.213,1.004-1.659,1.607c-0.453,0.594-0.708,1.315-0.669,2.02c0.029,0.697,0.416,1.373,1.049,1.59
				c0.601,0.24,1.361,0.114,1.691-0.407l0.043-0.069l0.065,0.049c0.979,0.742,2.297,0.787,3.223,0.302
				c0.943-0.483,1.506-1.387,1.646-2.225l0.012-0.072l0.065,0.033c0.356,0.184,0.733,0.279,1.087,0.339
				c0.355,0.06,0.695,0.085,1.01,0.077c0.63-0.009,1.166-0.118,1.56-0.3c0.393-0.18,0.645-0.423,0.739-0.627
				C97.197,194.301,97.213,194.179,97.225,194.184z"/>
			<path style="fill:#455A64;" d="M72.854,187.345c0,0-0.103-0.119-0.241-0.386c-0.133-0.266-0.302-0.689-0.34-1.266
				c-0.038-0.568,0.059-1.312,0.523-2.007c0.451-0.685,1.263-1.32,2.317-1.475l-0.054,0.077c-0.206-0.979-0.046-2.145,0.577-3.157
				c0.304-0.508,0.726-0.973,1.251-1.331c0.525-0.37,1.156-0.559,1.749-0.825c0.297-0.133,0.588-0.288,0.838-0.498
				c0.251-0.209,0.445-0.48,0.584-0.788c0.284-0.613,0.375-1.338,0.734-1.998c0.715-1.299,2.298-2.175,3.895-1.934l-0.11,0.108
				c-0.21-1.46,0.259-3.078,1.338-4.23c1.124-1.199,2.798-1.766,4.337-1.581l-0.106,0.106c-0.191-1.875,0.862-3.689,2.387-4.47
				c1.535-0.788,3.362-0.586,4.609,0.261l-0.103,0.01c0.658-0.656,1.456-1.076,2.234-1.365c0.783-0.282,1.558-0.463,2.295-0.528
				c1.473-0.169,2.77,0.004,3.793,0.255c1.024,0.264,1.783,0.624,2.253,0.935c0.247,0.138,0.401,0.295,0.52,0.378
				c0.114,0.09,0.169,0.141,0.169,0.141c-0.011,0.014-0.239-0.183-0.715-0.477c-0.475-0.296-1.233-0.638-2.25-0.886
				c-1.016-0.235-2.302-0.393-3.756-0.215c-0.728,0.07-1.49,0.255-2.257,0.536c-0.762,0.288-1.539,0.704-2.171,1.341l-0.047,0.048
				l-0.056-0.038c-1.201-0.809-2.968-0.995-4.435-0.235c-1.456,0.748-2.466,2.501-2.28,4.289l0.013,0.12l-0.119-0.014
				c-1.478-0.177-3.095,0.373-4.172,1.524c-1.036,1.105-1.49,2.667-1.29,4.07l0.018,0.128l-0.128-0.02
				c-1.505-0.233-3.026,0.602-3.704,1.833c-0.341,0.617-0.435,1.337-0.734,1.984c-0.146,0.324-0.361,0.622-0.633,0.846
				c-0.27,0.225-0.576,0.385-0.88,0.52c-0.609,0.269-1.227,0.453-1.728,0.803c-0.506,0.341-0.916,0.787-1.213,1.276
				c-0.608,0.975-0.772,2.104-0.58,3.052l0.014,0.067l-0.068,0.01c-1.012,0.141-1.806,0.745-2.251,1.404
				c-0.457,0.668-0.564,1.39-0.537,1.947c0.026,0.566,0.181,0.986,0.302,1.254C72.771,187.212,72.862,187.34,72.854,187.345z"/>
			<path style="fill:#455A64;" d="M134.032,189.073c0.01,0.008-0.134-0.174-0.025-0.525c0.055-0.169,0.178-0.36,0.374-0.53
				c0.194-0.176,0.476-0.296,0.79-0.398c0.312-0.106,0.675-0.193,0.998-0.417c0.322-0.223,0.578-0.589,0.72-1.027
				c0.149-0.438,0.19-0.937,0.161-1.464c-0.023-0.528-0.106-1.087-0.106-1.685c-0.012-1.213,0.501-2.445,0.813-3.782
				c0.151-0.668,0.214-1.389,0.086-2.104c-0.127-0.707-0.498-1.414-1.16-1.799c-0.651-0.4-1.455-0.52-2.242-0.759
				c-0.394-0.122-0.794-0.278-1.146-0.533c-0.358-0.249-0.621-0.621-0.809-1.011c-0.378-0.794-0.472-1.674-0.673-2.518
				c-0.098-0.423-0.226-0.843-0.444-1.213c-0.212-0.374-0.548-0.66-0.943-0.827c-0.551-0.207-1.166-0.178-1.77-0.242
				c-0.303-0.031-0.612-0.091-0.896-0.225c-0.285-0.132-0.534-0.343-0.708-0.597c-0.356-0.51-0.485-1.099-0.67-1.634
				c-0.169-0.544-0.44-1.032-0.803-1.444c-0.719-0.826-1.762-1.313-2.786-1.332c-1.026-0.025-2.014,0.354-2.715,0.983l-0.085,0.076
				l-0.047-0.104c-0.791-1.74-2.331-2.855-3.799-3.279c-0.741-0.214-1.474-0.254-2.138-0.184c-0.664,0.066-1.262,0.243-1.757,0.489
				c-1.001,0.496-1.564,1.215-1.868,1.718c-0.16,0.252-0.254,0.461-0.317,0.602c-0.031,0.064-0.056,0.115-0.076,0.158
				c-0.018,0.035-0.028,0.053-0.03,0.052c-0.002-0.001,0.004-0.02,0.017-0.057c0.017-0.044,0.038-0.097,0.064-0.163
				c0.055-0.145,0.143-0.358,0.297-0.618c0.293-0.516,0.853-1.259,1.868-1.779c0.504-0.257,1.111-0.444,1.788-0.519
				c0.676-0.077,1.426-0.043,2.188,0.171c1.507,0.424,3.091,1.554,3.914,3.341l-0.132-0.028c0.731-0.662,1.758-1.06,2.832-1.038
				c1.075,0.016,2.169,0.524,2.922,1.387c0.38,0.426,0.67,0.951,0.843,1.506c0.188,0.545,0.32,1.12,0.646,1.583
				c0.315,0.479,0.882,0.693,1.467,0.74c0.584,0.064,1.213,0.028,1.819,0.253c0.437,0.182,0.811,0.505,1.04,0.909
				c0.234,0.399,0.366,0.837,0.465,1.268c0.203,0.858,0.299,1.729,0.657,2.48c0.178,0.37,0.419,0.711,0.749,0.942
				c0.325,0.236,0.705,0.389,1.09,0.508c0.768,0.238,1.588,0.358,2.282,0.785c0.342,0.212,0.64,0.499,0.838,0.84
				c0.203,0.338,0.327,0.709,0.396,1.081c0.131,0.747,0.061,1.488-0.097,2.17c-0.325,1.357-0.838,2.568-0.833,3.747
				c-0.005,0.584,0.073,1.144,0.092,1.679c0.025,0.535-0.022,1.053-0.182,1.505c-0.152,0.452-0.426,0.837-0.77,1.068
				c-0.346,0.232-0.717,0.312-1.028,0.413c-0.315,0.096-0.586,0.205-0.776,0.37c-0.192,0.159-0.316,0.339-0.374,0.499
				C133.928,188.891,134.053,189.074,134.032,189.073z"/>
			<path style="fill:#455A64;" d="M146.448,179.164c-0.003,0.002-0.025-0.039-0.066-0.119c-0.044-0.09-0.102-0.208-0.176-0.359
				c-0.156-0.328-0.377-0.793-0.66-1.387c-0.29-0.6-0.614-1.351-1.078-2.172c-0.464-0.808-1.102-1.73-2.143-2.296
				c-0.518-0.281-1.116-0.466-1.716-0.733c-0.299-0.135-0.601-0.293-0.874-0.511c-0.274-0.214-0.505-0.503-0.653-0.835
				c-0.303-0.664-0.313-1.416-0.555-2.103c-0.123-0.339-0.317-0.659-0.616-0.874c-0.292-0.224-0.657-0.354-1.028-0.476
				c-0.371-0.123-0.764-0.232-1.132-0.433c-0.374-0.191-0.682-0.524-0.874-0.905c-0.384-0.777-0.389-1.654-0.548-2.481
				c-0.078-0.414-0.191-0.83-0.425-1.174c-0.228-0.349-0.603-0.58-1.015-0.668c-0.841-0.175-1.745,0.118-2.682-0.029
				c-0.468-0.078-0.908-0.318-1.231-0.652c-0.326-0.333-0.568-0.721-0.797-1.101c-0.229-0.381-0.444-0.762-0.702-1.103
				c-0.255-0.341-0.565-0.637-0.941-0.805c-0.761-0.351-1.627-0.161-2.416,0.021c-0.795,0.184-1.625,0.383-2.43,0.211
				c-0.798-0.161-1.481-0.571-2.114-0.962c-0.636-0.391-1.236-0.808-1.882-1.045c-1.308-0.466-2.657-0.404-3.796-0.121
				c-1.149,0.287-2.093,0.848-2.811,1.449c-0.724,0.607-1.192,1.282-1.551,1.837c-0.325,0.578-0.552,1.043-0.664,1.376
				c-0.062,0.155-0.111,0.278-0.148,0.371c-0.034,0.083-0.054,0.125-0.057,0.124c-0.003-0.001,0.01-0.045,0.038-0.13
				c0.033-0.095,0.076-0.22,0.13-0.378c0.101-0.338,0.318-0.811,0.636-1.401c0.354-0.566,0.818-1.256,1.546-1.881
				c0.723-0.618,1.678-1.198,2.847-1.499c1.159-0.296,2.534-0.372,3.887,0.103c0.677,0.245,1.281,0.664,1.916,1.051
				c0.631,0.388,1.3,0.783,2.059,0.932c0.758,0.16,1.553-0.029,2.353-0.217c0.403-0.091,0.814-0.188,1.246-0.217
				c0.428-0.03,0.882,0.016,1.292,0.205c0.413,0.184,0.748,0.507,1.014,0.861c0.27,0.355,0.488,0.742,0.715,1.12
				c0.227,0.377,0.464,0.753,0.769,1.063c0.303,0.312,0.695,0.523,1.126,0.597c0.872,0.144,1.776-0.151,2.69,0.031
				c0.453,0.095,0.881,0.359,1.133,0.748c0.259,0.382,0.374,0.824,0.454,1.248c0.158,0.848,0.168,1.712,0.526,2.433
				c0.18,0.353,0.449,0.649,0.797,0.828c0.342,0.189,0.724,0.298,1.099,0.423c0.374,0.124,0.757,0.26,1.078,0.506
				c0.329,0.238,0.544,0.597,0.671,0.956c0.249,0.726,0.256,1.471,0.541,2.094c0.268,0.635,0.861,1.016,1.442,1.275
				c0.587,0.266,1.189,0.456,1.72,0.749c1.073,0.595,1.712,1.544,2.172,2.363c0.459,0.834,0.773,1.589,1.052,2.194
				c0.269,0.601,0.479,1.071,0.627,1.402c0.066,0.154,0.119,0.275,0.158,0.367C146.434,179.119,146.451,179.162,146.448,179.164z"/>
			<path style="fill:#455A64;" d="M139.638,172.471c0-0.003,0.039-0.01,0.117-0.02c0.077,0.002,0.201,0.003,0.34,0.075
				c0.278,0.136,0.591,0.542,0.637,1.133c0.018,0.298-0.055,0.616-0.137,0.957c-0.08,0.339-0.184,0.709-0.165,1.108
				c0.019,0.399,0.203,0.798,0.451,1.181c0.248,0.386,0.565,0.764,0.82,1.223c0.263,0.445,0.39,1.063,0.16,1.61
				c-0.204,0.545-0.6,1-0.794,1.554c-0.2,0.554-0.082,1.184,0.175,1.76c0.249,0.585,0.605,1.151,0.85,1.801
				c0.124,0.323,0.207,0.676,0.206,1.038c-0.001,0.363-0.092,0.726-0.242,1.059c-0.308,0.668-0.798,1.224-1.216,1.824
				c-0.419,0.591-0.77,1.285-0.675,2.026c0.082,0.739,0.498,1.415,0.774,2.158c0.138,0.373,0.241,0.77,0.238,1.176
				c-0.006,0.405-0.121,0.8-0.3,1.15c-0.362,0.703-0.904,1.25-1.379,1.81c-0.48,0.557-0.911,1.137-1.118,1.811
				c-0.229,0.663-0.347,1.364-0.663,1.992c-0.157,0.311-0.373,0.599-0.65,0.809c-0.276,0.214-0.598,0.334-0.904,0.436
				c-0.308,0.101-0.612,0.187-0.887,0.316c-0.272,0.135-0.521,0.303-0.739,0.503c-0.433,0.406-0.754,0.894-1.048,1.369
				c-0.294,0.476-0.567,0.945-0.873,1.365c-0.607,0.852-1.441,1.395-2.228,1.64c-0.788,0.256-1.517,0.28-2.09,0.201
				c-0.576-0.079-1.003-0.238-1.275-0.372c-0.272-0.137-0.402-0.231-0.402-0.231c0.012-0.04,0.543,0.387,1.686,0.528
				c0.564,0.067,1.279,0.031,2.046-0.228c0.767-0.251,1.566-0.782,2.152-1.618c0.297-0.415,0.564-0.881,0.856-1.363
				c0.292-0.48,0.616-0.981,1.066-1.409c0.227-0.211,0.49-0.392,0.778-0.536c0.291-0.138,0.601-0.227,0.904-0.328
				c0.302-0.102,0.603-0.217,0.852-0.413c0.251-0.193,0.448-0.456,0.596-0.751c0.299-0.594,0.416-1.289,0.647-1.971
				c0.212-0.7,0.667-1.316,1.149-1.875c0.48-0.564,1.011-1.108,1.351-1.773c0.168-0.331,0.272-0.694,0.278-1.066
				c0.003-0.372-0.092-0.744-0.226-1.105c-0.265-0.722-0.693-1.406-0.784-2.205c-0.048-0.395,0.018-0.799,0.157-1.161
				c0.139-0.364,0.342-0.69,0.555-0.996c0.428-0.61,0.911-1.16,1.203-1.792c0.143-0.315,0.226-0.649,0.229-0.983
				c0.002-0.334-0.073-0.664-0.191-0.976c-0.233-0.627-0.585-1.194-0.839-1.796c-0.262-0.59-0.392-1.279-0.17-1.881
				c0.215-0.592,0.613-1.043,0.805-1.554c0.214-0.508,0.107-1.055-0.141-1.492c-0.241-0.444-0.553-0.826-0.803-1.221
				c-0.249-0.393-0.44-0.817-0.455-1.243c-0.014-0.423,0.099-0.798,0.184-1.135c0.087-0.337,0.163-0.65,0.151-0.93
				c-0.032-0.566-0.323-0.964-0.58-1.103C139.809,172.421,139.635,172.49,139.638,172.471z"/>
			<path style="fill:#6F4439;" d="M115.21,193.198c0.177-0.428,0.668-0.633,1.102-0.474c1.336,0.49,2.672,0.98,4.008,1.47
				l0.446,0.163c-0.192,0.706-0.497,1.728-0.887,2.347c-0.39,0.619-1.008,1.137-1.734,1.225c-0.546,0.066-1.222-0.129-1.688-0.421
				c-0.815-0.511-1.594-1.076-1.774-2.021C114.556,194.817,114.948,193.828,115.21,193.198z"/>
			<path style="fill:#E0E0E0;" d="M93.443,193.138c0,0-0.387,0.115-0.957,0.554c-0.558,0.43-1.292,1.274-1.552,2.555
				c-0.137,0.631-0.14,1.358,0.051,2.099c0.203,0.734,0.59,1.475,1.171,2.106c0.573,0.635,1.336,1.165,2.224,1.462
				c0.886,0.303,1.899,0.332,2.853,0.061c0.954-0.267,1.81-0.794,2.439-1.487c0.636-0.69,1.023-1.548,1.163-2.394
				c0.275-1.71-0.355-3.29-1.259-4.208c-0.463-0.464-0.989-0.74-1.456-0.939c-0.471-0.197-0.906-0.291-1.263-0.329
				c-0.358-0.035-0.639-0.012-0.824,0.029c-0.184,0.042-0.275,0.082-0.273,0.087c0.004,0.029,0.387-0.124,1.086-0.022
				c0.346,0.051,0.766,0.156,1.22,0.36c0.45,0.204,0.956,0.488,1.385,0.933c0.851,0.894,1.437,2.419,1.161,4.05
				c-0.14,0.807-0.51,1.614-1.117,2.269c-0.6,0.657-1.418,1.159-2.328,1.414c-0.91,0.257-1.868,0.231-2.711-0.053
				c-0.846-0.279-1.58-0.782-2.133-1.386c-0.562-0.6-0.938-1.307-1.142-2.007c-0.19-0.704-0.198-1.401-0.077-2.011
				c0.229-1.238,0.915-2.072,1.443-2.516C93.085,193.313,93.457,193.164,93.443,193.138z"/>
			<g>
				<g>
					<g>
						<g>
							<path style="fill:#263238;" d="M114.655,184.893c0.058,0.732-0.514,1.384-1.277,1.458c-0.762,0.074-1.427-0.457-1.485-1.189
								c-0.057-0.732,0.515-1.385,1.276-1.459C113.931,183.629,114.597,184.161,114.655,184.893z"/>
						</g>
					</g>
				</g>
			</g>
			<g>
				<g>
					<g>
						<g>
							<path style="fill:#263238;" d="M128.004,184.549c0.058,0.732-0.514,1.384-1.278,1.458c-0.762,0.074-1.427-0.457-1.485-1.189
								c-0.057-0.732,0.515-1.385,1.276-1.459C127.281,183.285,127.947,183.817,128.004,184.549z"/>
						</g>
					</g>
				</g>
			</g>
			<g>
				<g>
					<g>
						<g>
							<g>
								<path style="fill:#263238;" d="M127.439,179.438c-0.133,0.209-1.195-0.512-2.558-0.36c-1.364,0.129-2.265,1.054-2.436,0.875
									c-0.083-0.078,0.035-0.442,0.425-0.858c0.384-0.414,1.072-0.85,1.921-0.938c0.85-0.087,1.609,0.199,2.065,0.526
									C127.321,179.011,127.506,179.344,127.439,179.438z"/>
							</g>
						</g>
					</g>
				</g>
			</g>
			<g>
				<g>
					<g>
						<g>
							<g>
								<path style="fill:#263238;" d="M114.412,180.559c-0.187,0.214-1.355-0.694-2.995-0.679c-1.639-0.01-2.832,0.902-3.013,0.688
									c-0.088-0.095,0.097-0.48,0.619-0.893c0.511-0.411,1.386-0.813,2.408-0.815c1.022,0,1.887,0.398,2.386,0.807
									C114.326,180.079,114.503,180.464,114.412,180.559z"/>
							</g>
						</g>
					</g>
				</g>
			</g>
			<path style="fill:#263238;" d="M119.056,197.43c0.012,0.013-0.114,0.174-0.439,0.325c-0.322,0.154-0.858,0.244-1.488,0.124
				c-0.623-0.127-1.343-0.438-1.959-1.04c-0.309-0.297-0.563-0.717-0.669-1.185c-0.108-0.47-0.075-0.97,0.041-1.444
				c0.115-0.477,0.301-0.91,0.505-1.314c0.108-0.204,0.27-0.459,0.582-0.545c0.31-0.069,0.542,0.052,0.724,0.118
				c0.709,0.286,1.374,0.555,1.989,0.803c1.128,0.469,1.815,0.788,1.794,0.844c-0.021,0.056-0.746-0.161-1.902-0.557
				c-0.625-0.222-1.301-0.461-2.022-0.717c-0.408-0.171-0.598-0.147-0.787,0.247c-0.186,0.381-0.359,0.792-0.462,1.222
				c-0.232,0.861-0.051,1.718,0.494,2.25c0.527,0.546,1.181,0.869,1.74,1.019c0.566,0.145,1.049,0.111,1.362,0.016
				C118.875,197.506,119.033,197.396,119.056,197.43z"/>
			<path style="fill:#263238;" d="M145.78,152.759c-0.034,0.047-0.535-0.528-1.747-1.011c-0.603-0.227-1.385-0.428-2.301-0.408
				c-0.909,0.01-1.96,0.239-2.928,0.844l-0.14,0.087l-0.084-0.144c-0.619-1.065-1.77-1.973-3.205-2.354
				c-1.413-0.387-3.148-0.26-4.499,0.712l-0.168,0.121l-0.121-0.166c-1.204-1.648-3.202-2.937-5.47-3.315
				c-1.743-0.299-3.507,0.025-4.982,0.751c-1.48,0.723-2.678,1.832-3.465,3.075l-0.056,0.088l-0.104,0.004
				c-1.95,0.075-3.722,0.573-5.161,1.28c-1.456,0.685-2.586,1.558-3.437,2.349c-1.696,1.614-2.286,2.884-2.352,2.837
				c-0.009-0.005,0.025-0.083,0.102-0.229c0.08-0.144,0.187-0.366,0.359-0.634c0.339-0.539,0.887-1.304,1.728-2.142
				c0.842-0.83,1.978-1.747,3.457-2.473c1.462-0.747,3.278-1.284,5.291-1.379l-0.159,0.092c0.815-1.312,2.062-2.482,3.61-3.247
				c1.541-0.768,3.403-1.114,5.239-0.8c2.385,0.398,4.474,1.755,5.734,3.497l-0.289-0.045c1.487-1.056,3.347-1.166,4.843-0.74
				c1.52,0.421,2.739,1.405,3.382,2.559l-0.223-0.057c1.04-0.625,2.149-0.84,3.096-0.827c0.954,0.004,1.757,0.238,2.368,0.498
				c0.613,0.266,1.035,0.575,1.305,0.796C145.667,152.614,145.79,152.75,145.78,152.759z"/>
			<path style="fill:#263238;" d="M102.428,150.528c0,0-0.521,0.316-1.598,0.384c-1.043,0.065-2.735-0.168-4.207-1.507
				c-0.716-0.665-1.316-1.624-1.561-2.764c-0.247-1.131-0.182-2.436,0.354-3.65c0.526-1.215,1.593-2.272,2.938-2.814
				c1.335-0.552,2.949-0.64,4.401-0.037l-0.249,0.061c0.582-0.703,1.461-1.198,2.408-1.373c0.783-0.152,1.598-0.079,2.331,0.199
				c0.732,0.289,1.354,0.808,1.772,1.437c0.844,1.255,0.98,2.889,0.365,4.157l-0.288-0.26c1.053-0.63,2.33-0.536,3.295-0.067
				c0.99,0.459,1.692,1.353,1.945,2.289c0.535,1.902-0.269,3.674-1.274,4.599c-1.016,0.965-2.108,1.308-2.823,1.463
				c-0.364,0.078-0.65,0.101-0.842,0.112c-0.193,0.005-0.292,0.002-0.293-0.009c-0.003-0.034,0.399-0.042,1.104-0.231
				c0.691-0.191,1.737-0.566,2.679-1.511c0.932-0.9,1.64-2.583,1.122-4.324c-0.247-0.857-0.879-1.637-1.78-2.048
				c-0.88-0.417-2.023-0.478-2.922,0.071l-0.584,0.357l0.296-0.617c0.54-1.126,0.413-2.616-0.353-3.742
				c-0.38-0.565-0.928-1.018-1.577-1.275c-0.652-0.245-1.387-0.313-2.094-0.175c-0.856,0.158-1.643,0.604-2.157,1.222l-0.102,0.122
				l-0.147-0.062c-1.328-0.556-2.831-0.484-4.077,0.024c-1.258,0.5-2.244,1.463-2.744,2.587c-0.511,1.124-0.588,2.353-0.37,3.421
				c0.216,1.078,0.761,1.982,1.425,2.625c1.367,1.297,2.987,1.576,4.002,1.559C101.872,150.738,102.416,150.48,102.428,150.528z"/>
			<path style="fill:#263238;" d="M72.014,167.157c-0.011,0.005-0.053-0.078-0.125-0.242c-0.073-0.163-0.161-0.413-0.246-0.747
				c-0.166-0.662-0.312-1.687-0.071-2.94c0.236-1.235,0.89-2.73,2.237-3.868c1.317-1.129,3.286-1.891,5.395-1.642l-0.212,0.115
				c0.812-1.699,2.344-3.236,4.305-4.063c1.456-0.617,3.043-0.755,4.488-0.519c1.448,0.239,2.763,0.835,3.798,1.645l-0.214-0.017
				c1.533-0.811,3.145-1.122,4.552-1.085c1.414,0.01,2.627,0.343,3.565,0.726c0.94,0.391,1.612,0.841,2.04,1.178
				c0.422,0.347,0.624,0.559,0.612,0.571c-0.045,0.068-0.873-0.817-2.738-1.531c-0.927-0.342-2.112-0.636-3.48-0.619
				c-1.362-0.01-2.907,0.315-4.362,1.103l-0.113,0.061l-0.102-0.078c-0.991-0.758-2.246-1.316-3.625-1.537
				c-1.377-0.217-2.876-0.082-4.254,0.502c-1.858,0.784-3.32,2.241-4.1,3.845l-0.065,0.133l-0.148-0.018
				c-1.973-0.248-3.85,0.45-5.116,1.502c-1.292,1.057-1.946,2.463-2.21,3.649c-0.268,1.201-0.167,2.2-0.047,2.857
				C71.907,166.8,72.045,167.145,72.014,167.157z"/>
		</g>
		<g>
			<g>
				<g>
					<path style="fill:#AE7461;" d="M185.906,285.737l-3.602-5.445l-5.782-2.901l-0.217-0.158c-1.891-1.375-4.3-1.82-6.559-1.219
						c-2.354,0.626-5.496,1.407-8.222,1.872l-6.224-1.702v12.145l31.389-1.983L185.906,285.737z"/>
				</g>
				<g>
					<g>
						<g>
							<g>
								<path style="fill:#6F4439;" d="M185.688,285.408c0.033-0.042-0.476-0.503-1.326-1.212c-0.85-0.71-2.04-1.669-3.37-2.709
									c-0.432-0.335-0.849-0.658-1.245-0.966l-0.037-0.029l-0.043-0.008c-1.287-0.242-2.405-0.437-3.203-0.56
									c-0.799-0.123-1.278-0.175-1.286-0.131c-0.009,0.044,0.454,0.178,1.24,0.366c0.786,0.188,1.895,0.431,3.177,0.695
									l-0.08-0.036c0.394,0.311,0.808,0.638,1.237,0.976c1.329,1.04,2.547,1.965,3.44,2.619
									C185.085,285.067,185.654,285.45,185.688,285.408z"/>
							</g>
						</g>
					</g>
					<g>
						<g>
							<g>
								<path style="fill:#6F4439;" d="M183.241,286.467c0.052-0.094-1.969-1.314-4.515-2.725c-0.38-0.208-0.748-0.41-1.101-0.604
									l-0.038-0.021l-0.041-0.002c-2.305-0.127-4.013-0.159-4.018-0.068c-0.006,0.091,1.692,0.277,3.994,0.446l-0.08-0.023
									c0.352,0.197,0.717,0.402,1.095,0.613C181.082,285.494,183.188,286.562,183.241,286.467z"/>
							</g>
						</g>
					</g>
				</g>
			</g>
			<g>
				<g>
					<path style="fill:#E0E0E0;" d="M222.442,251.378c-1.051-0.591-2.378-0.306-3.095,0.664l-25.28,34.239l-40.002,0.542
						c-1.598,0.095-3.536,3.324-2.104,4.887l45.172-0.617l26.078-36.235C224.044,253.701,223.685,252.077,222.442,251.378z"/>
				</g>
			</g>
		</g>
		<g>
			<g>
				<path style="fill:#FF725E;" d="M101.264,211.724c-2.157,0.24-5.165,1.629-6.723,3.139c-2.542,2.463-4.388,5.837-5.381,8.816
					c-1.335,4.006-0.737,19.812-0.737,24.391s1.164,21.779,1.74,24.64c0.576,2.862-0.372,7.116-1.699,9.884
					c-2.379,4.965,1.331,7.509,1.331,7.509l49.087-0.368l-0.197-1.831c-0.337-3.19,0.85-6.439-0.364-9.408
					c-1.272-3.109-2.698-8.021-2.258-13.755c0.627-8.177,3.07-13.759,1.57-18.503c-2.289-7.237-9.848-23.696-18.982-30.725
					c0,0-7.202-1.542-8.831-2.113C106.115,212.102,104.153,211.402,101.264,211.724z"/>
			</g>
			<g>
				<path style="fill:#FF725E;" d="M158.977,274.774l-41.937-8.755l-1.081-36.409c0,0-1.467-14.832-8.901-16.21l-17.897,22.28
					c1,11.23,0.089,32.476,5.249,40.671c5.16,8.195,10.179,14.761,22.886,14.178c12.707-0.583,40.715-0.85,40.715-0.85
					L158.977,274.774z"/>
			</g>
			<g>
				<g>
					<path style="fill:#263238;" d="M117.123,266.16c0.1,0.079-0.906,1.391-1.752,3.221c-0.86,1.824-1.219,3.437-1.344,3.412
						c-0.106-0.01,0.073-1.708,0.959-3.592C115.86,267.314,117.046,266.086,117.123,266.16z"/>
				</g>
			</g>
			<g style="opacity:0.3;">
				<g>
					<path d="M115.67,228.055c4.188,12.871,3.279,32.715,11.267,40.031l-9.897-2.066c0,0,0.333-3.819,0.083-6.991
						C116.32,248.852,116.223,238.504,115.67,228.055"/>
				</g>
			</g>
			<g>
				<g>
					<path style="fill:#263238;" d="M114.739,223.462c0,0,0.35,0.986,0.735,2.921c0.191,0.967,0.38,2.173,0.511,3.603
						c0.137,1.432,0.158,3.086,0.228,4.938c0.238,7.429,0.58,18.092,0.997,31.089l-0.135-0.161
						c12.02,2.498,26.351,5.477,41.945,8.718l0.177,0.037l-0.012,0.181c-0.308,4.77-0.633,9.789-0.963,14.904l-0.013,0.196
						l-0.197,0.002c-1.616,0.018-3.352,0.038-5.099,0.058c-7.288,0.091-14.404,0.201-21.275,0.35
						c-3.435,0.073-6.81,0.161-10.113,0.27c-3.29,0.084-6.556,0.395-9.718-0.101c-1.581-0.196-3.101-0.647-4.56-1.174
						c-1.432-0.602-2.807-1.302-4.025-2.2c-2.469-1.755-4.386-4.022-6.05-6.285c-0.817-1.148-1.591-2.295-2.317-3.442l-0.543-0.854
						c-0.17-0.292-0.321-0.596-0.482-0.891c-0.158-0.297-0.315-0.592-0.471-0.887c-0.121-0.309-0.241-0.616-0.361-0.922
						c-0.949-2.449-1.499-4.916-1.874-7.277c-0.784-4.725-1.021-9.053-1.227-12.841c-0.188-3.792-0.273-7.059-0.367-9.728
						c-0.084-2.669-0.181-4.74-0.253-6.144c-0.043-0.691-0.076-1.222-0.099-1.596c-0.02-0.36-0.019-0.545-0.019-0.545
						s0.028,0.183,0.063,0.542c0.033,0.374,0.08,0.904,0.141,1.594c0.1,1.403,0.223,3.475,0.333,6.143
						c0.119,2.669,0.228,5.935,0.439,9.722c0.229,3.782,0.488,8.104,1.286,12.803c0.381,2.349,0.939,4.797,1.882,7.206
						c0.118,0.301,0.238,0.603,0.358,0.907c0.154,0.287,0.308,0.575,0.463,0.864c0.158,0.288,0.305,0.583,0.473,0.87l0.545,0.851
						c0.727,1.141,1.501,2.28,2.315,3.418c1.658,2.243,3.556,4.473,5.982,6.188c1.197,0.878,2.545,1.56,3.948,2.147
						c1.431,0.513,2.921,0.953,4.478,1.143c3.103,0.484,6.339,0.173,9.647,0.083c3.305-0.113,6.681-0.205,10.117-0.281
						c6.873-0.154,13.989-0.268,21.279-0.359c1.747-0.02,3.484-0.039,5.1-0.057l-0.21,0.198c0.333-5.115,0.66-10.134,0.971-14.904
						l0.165,0.217c-15.588-3.269-29.913-6.273-41.929-8.793l-0.132-0.028l-0.004-0.134c-0.355-12.999-0.647-23.663-0.85-31.093
						c-0.055-1.855-0.061-3.506-0.183-4.932c-0.115-1.427-0.288-2.63-0.462-3.597c-0.173-0.968-0.343-1.701-0.462-2.193
						c-0.058-0.237-0.102-0.42-0.135-0.557C114.748,223.527,114.735,223.464,114.739,223.462z"/>
				</g>
			</g>
		</g>
		<g>
			<g>
				<polygon style="fill:#AE7461;" points="182.054,364.136 175.828,410.008 192.116,412.678 203.704,371.975 				"/>
			</g>
			<g>
				<path style="fill:#455A64;" d="M132.665,293.652c0,0,59.537-3.917,71.896-1.946c7.471,1.191,13.91,12.865,9.839,19.88
					c-1.927,3.32-4.961,13.661-4.961,13.661l-32-7.297L132.665,293.652z"/>
			</g>
			<g>
				<polygon style="fill:#AE7461;" points="177.439,325.248 164.548,344.916 179.719,354.745 196.176,329.521 				"/>
			</g>
			<g>
				<path style="fill:#455A64;" d="M90.972,290.051c0,0-6.293,27.728,3.863,38.631c7.232,7.764,24.984,6.945,39.963,6.945
					c15.176,0,50.215-0.823,50.215-0.823s-1.592,9.752-2.756,20.851c-1.167,11.128-1.404,18.114-1.404,18.114l22.327,1.862
					c0,0,12.439-37.863,14.354-45.36c1.912-7.487,1.266-17.57-5.35-21.307c-5.606-3.167-49.829-15.428-71-17.252l-2.299-1.975
					L90.972,290.051z"/>
			</g>
			<g>
				<g>
					<path style="fill:#263238;" d="M195.934,325.686c0.012,0.077-0.864,0.2-2.189,0.674c-0.664,0.231-1.425,0.583-2.233,1.037
						c-0.798,0.472-1.635,1.056-2.434,1.767c-0.79,0.722-1.458,1.495-2.009,2.24c-0.535,0.756-0.963,1.478-1.261,2.114
						c-0.609,1.268-0.82,2.128-0.896,2.108c-0.029-0.007,0.005-0.225,0.091-0.617c0.077-0.394,0.256-0.95,0.531-1.614
						c0.27-0.668,0.682-1.425,1.215-2.216c0.549-0.779,1.23-1.585,2.044-2.329c0.824-0.733,1.695-1.327,2.527-1.793
						c0.842-0.449,1.637-0.781,2.329-0.98c0.689-0.206,1.26-0.326,1.66-0.363C195.709,325.667,195.93,325.657,195.934,325.686z"/>
				</g>
			</g>
			<g>
				<g>
					<path style="fill:#263238;" d="M193.281,302.822c-0.101-0.053,0.367-1.125,1.176-2.311c0.807-1.188,1.633-2.016,1.719-1.941
						c0.092,0.077-0.576,1.013-1.368,2.18C194.012,301.915,193.386,302.879,193.281,302.822z"/>
				</g>
			</g>
			<g>
				<g>
					<path style="fill:#263238;" d="M218.471,319.731c-0.007,0.001-0.029-0.071-0.066-0.214c-0.04-0.167-0.089-0.376-0.151-0.635
						c-0.133-0.557-0.339-1.378-0.672-2.412c-0.336-1.031-0.813-2.281-1.587-3.609c-0.775-1.304-1.88-2.763-3.601-3.624
						c-3.531-1.604-7.926-3.133-12.868-4.573c-4.937-1.477-10.382-3.042-16.131-4.562c-11.498-3.053-22.051-5.239-29.739-6.514
						c-3.842-0.649-6.965-1.093-9.124-1.394c-1.055-0.143-1.887-0.256-2.487-0.338c-0.264-0.04-0.476-0.073-0.646-0.098
						c-0.145-0.025-0.219-0.041-0.218-0.048c0.001-0.007,0.076-0.005,0.223,0.005c0.171,0.015,0.385,0.033,0.651,0.057
						c0.603,0.062,1.438,0.149,2.498,0.259c2.167,0.25,5.299,0.649,9.152,1.261c7.709,1.2,18.288,3.342,29.799,6.399
						c5.754,1.522,11.201,3.099,16.135,4.598c4.947,1.465,9.336,3.022,12.89,4.679c1.793,0.922,2.902,2.437,3.671,3.773
						c0.767,1.362,1.225,2.632,1.539,3.678c0.311,1.049,0.492,1.879,0.598,2.444c0.045,0.263,0.081,0.475,0.11,0.645
						C218.47,319.654,218.478,319.729,218.471,319.731z"/>
				</g>
			</g>
			<g>
				<g>
					<g>
						<g>
							<g>
								<path style="fill:#263238;" d="M193.382,411.489l0.543-1.989c-6.914-0.724-13.082-3.288-17.977-7.748l-5.519,11.931
									l36.806,16.365C208.624,426.529,193.382,411.489,193.382,411.489z"/>
							</g>
						</g>
					</g>
					<g>
						<g>
							<g>
								<g>
									<g>
										<g>
											<g>
												<g>
													<g>
														<path style="fill:#E0E0E0;" d="M170.428,413.683l1.348-2.914l34.857,16.815c0,0,1.313,1.423,0.601,2.464
															L170.428,413.683z"/>
													</g>
												</g>
											</g>
										</g>
									</g>
								</g>
							</g>
						</g>
					</g>
					<g>
						<g>
							<g>
								<g>
									<g>
										<g>
											<g>
												<g>
													<g>
														<g>
															<path style="fill:#E0E0E0;" d="M192.89,411.258c-0.088,0.173-1.024-0.148-2.172,0.022
																c-1.153,0.14-1.964,0.696-2.097,0.553c-0.15-0.108,0.609-1.035,2.003-1.216
																C192.016,410.423,193.005,411.115,192.89,411.258z"/>
														</g>
													</g>
												</g>
											</g>
										</g>
									</g>
								</g>
							</g>
						</g>
					</g>
					<g>
						<g>
							<g>
								<path style="fill:#E0E0E0;" d="M178.568,409.979c-0.253,0.515-0.887,0.733-1.416,0.487c-0.529-0.246-0.753-0.864-0.5-1.379
									c0.253-0.515,0.887-0.733,1.416-0.487C178.597,408.847,178.821,409.464,178.568,409.979z"/>
							</g>
						</g>
					</g>
					<g>
						<g>
							<g>
								<g>
									<path style="fill:#E0E0E0;" d="M192.669,411.013c-0.01,0.032-0.307-0.012-0.834-0.152
										c-0.511-0.154-1.331-0.369-2.066-1.101c-0.18-0.181-0.344-0.395-0.482-0.634c-0.139-0.235-0.28-0.501-0.309-0.847
										c-0.048-0.349,0.206-0.779,0.577-0.909c0.36-0.159,0.789-0.099,1.116,0.05c1.269,0.607,2.245,1.99,2.276,3.591
										l-0.543-0.078c0.088-0.273,0.21-0.556,0.363-0.826c0.83-1.495,2.511-2.299,3.99-2.256c0.186,0.004,0.401,0.013,0.618,0.121
										c0.22,0.106,0.38,0.332,0.418,0.545c0.078,0.425-0.078,0.782-0.265,1.063c-0.377,0.557-0.91,0.908-1.41,1.132
										c-1.03,0.458-1.948,0.369-2.526,0.377C192.997,411.071,192.672,411.049,192.669,411.013
										c-0.003-0.038,0.326-0.088,0.916-0.135c0.581-0.07,1.463-0.054,2.361-0.511c0.445-0.224,0.896-0.555,1.192-1.028
										c0.146-0.221,0.228-0.502,0.178-0.718c-0.046-0.206-0.22-0.275-0.561-0.27c-1.312-0.009-2.771,0.707-3.501,2.02
										c-0.135,0.236-0.242,0.484-0.32,0.723c-0.045,0.143-0.201,0.222-0.347,0.178c-0.118-0.035-0.194-0.143-0.196-0.257
										c-0.008-1.376-0.882-2.627-1.929-3.153c-0.498-0.267-1.081-0.037-1.036,0.396c0.039,0.446,0.344,0.928,0.625,1.253
										c0.608,0.678,1.368,0.952,1.852,1.158C192.401,410.867,192.68,410.977,192.669,411.013z"/>
								</g>
							</g>
						</g>
					</g>
				</g>
				<g>
					<g>
						<path style="fill:#E0E0E0;" d="M195.714,413.812c-0.031,0.123-1.132-0.167-2.434,0.171c-1.31,0.312-2.146,1.083-2.231,0.989
							c-0.096-0.056,0.685-1.051,2.129-1.401C194.617,413.204,195.773,413.718,195.714,413.812z"/>
					</g>
				</g>
				<g>
					<g>
						<path style="fill:#E0E0E0;" d="M197.767,416.148c-0.01,0.125-1.008,0.095-2.156,0.443c-1.153,0.333-1.973,0.902-2.05,0.803
							c-0.079-0.077,0.682-0.846,1.929-1.21C196.734,415.81,197.791,416.041,197.767,416.148z"/>
					</g>
				</g>
			</g>
			<g>
				<g>
					<g>
						<g>
							<g>
								<path style="fill:#263238;" d="M182.605,352.53l0.87-1.869c-6.693-1.878-12.342-5.443-16.416-10.664l-7.449,10.831
									l33.525,22.328C195.098,369.921,182.605,352.53,182.605,352.53z"/>
							</g>
						</g>
					</g>
					<g>
						<g>
							<g>
								<g>
									<g>
										<g>
											<g>
												<g>
													<g>
														<path style="fill:#E0E0E0;" d="M159.61,350.828l1.82-2.646l31.528,22.443c0,0,1.055,1.624,0.177,2.53L159.61,350.828z
															"/>
													</g>
												</g>
											</g>
										</g>
									</g>
								</g>
							</g>
						</g>
					</g>
					<g>
						<g>
							<g>
								<g>
									<g>
										<g>
											<g>
												<g>
													<g>
														<g>
															<path style="fill:#FFFFFF;" d="M182.16,352.219c-0.116,0.155-0.984-0.318-2.145-0.344
																c-1.16-0.056-2.053,0.355-2.16,0.192c-0.13-0.131,0.774-0.917,2.179-0.862
																C181.439,351.249,182.297,352.097,182.16,352.219z"/>
														</g>
													</g>
												</g>
											</g>
										</g>
									</g>
								</g>
							</g>
						</g>
					</g>
					<g>
						<g>
							<g>
								<path style="fill:#E0E0E0;" d="M168.257,348.548c-0.336,0.465-0.998,0.573-1.478,0.241c-0.48-0.332-0.597-0.978-0.26-1.444
									c0.336-0.465,0.998-0.574,1.478-0.242C168.477,347.436,168.594,348.083,168.257,348.548z"/>
							</g>
						</g>
					</g>
					<g>
						<g>
							<g>
								<g>
									<path style="fill:#FFFFFF;" d="M181.983,351.941c-0.016,0.03-0.3-0.063-0.797-0.291c-0.477-0.237-1.25-0.588-1.851-1.433
										c-0.147-0.209-0.272-0.448-0.368-0.706c-0.098-0.255-0.191-0.541-0.162-0.887c0.011-0.352,0.334-0.733,0.722-0.799
										c0.381-0.096,0.794,0.035,1.091,0.237c1.149,0.812,1.878,2.34,1.639,3.923l-0.522-0.168
										c0.133-0.255,0.301-0.513,0.497-0.753c1.07-1.333,2.862-1.843,4.313-1.552c0.182,0.035,0.393,0.081,0.589,0.223
										c0.199,0.142,0.318,0.391,0.32,0.608c0.006,0.432-0.208,0.758-0.44,1.003c-0.466,0.486-1.05,0.741-1.581,0.879
										c-1.092,0.278-1.982,0.035-2.554-0.053C182.297,352.053,181.98,351.977,181.983,351.941
										c0.004-0.038,0.336-0.032,0.925,0.021c0.585,0.028,1.451,0.193,2.414-0.107c0.476-0.146,0.977-0.396,1.348-0.812
										c0.181-0.193,0.31-0.456,0.296-0.678c-0.01-0.211-0.171-0.308-0.507-0.361c-1.292-0.229-2.85,0.231-3.791,1.402
										c-0.173,0.21-0.32,0.437-0.437,0.659c-0.069,0.133-0.235,0.186-0.372,0.117c-0.11-0.055-0.167-0.173-0.15-0.286
										c0.223-1.358-0.427-2.738-1.371-3.433c-0.446-0.347-1.059-0.219-1.088,0.216c-0.037,0.446,0.183,0.972,0.405,1.34
										c0.485,0.771,1.188,1.169,1.631,1.454C181.744,351.752,182.001,351.907,181.983,351.941z"/>
								</g>
							</g>
						</g>
					</g>
				</g>
				<g>
					<g>
						<path style="fill:#FFFFFF;" d="M184.514,355.213c-0.051,0.116-1.087-0.355-2.428-0.242c-1.343,0.087-2.298,0.706-2.366,0.599
							c-0.085-0.072,0.852-0.921,2.334-1.023C183.534,354.429,184.588,355.129,184.514,355.213z"/>
					</g>
				</g>
				<g>
					<g>
						<path style="fill:#FFFFFF;" d="M186.144,357.861c-0.031,0.121-1.009-0.077-2.2,0.074c-1.193,0.134-2.097,0.557-2.156,0.446
							c-0.064-0.089,0.814-0.719,2.105-0.868C185.183,357.353,186.186,357.759,186.144,357.861z"/>
					</g>
				</g>
			</g>
		</g>
	</g>
</g>
</svg>
