<?xml version="1.0" ?>
<!-- Uploaded to: SVG Repo, www.svgrepo.com, Generator: SVG Repo Mixer Tools -->
<svg width="800px" height="800px" viewBox="0 0 512 512" id="Layer_1" version="1.1" xml:space="preserve" xmlns="http://www.w3.org/2000/svg" xmlns:xlink="http://www.w3.org/1999/xlink">
<g id="_x30_3_Quality_Site">
<g>
<g>
<g>
<g>
<path d="M413.271,122.437v336.361c0,13.832-11.217,25.087-25.048,25.087H29.049       C15.218,483.885,4,472.63,4,458.798V122.437c0-13.832,11.218-25.049,25.049-25.049h359.174       C402.054,97.388,413.271,108.605,413.271,122.437z" style="fill:#FFFFFF;"/>
</g>
<g>
<path d="M413.271,122.426v336.36c0,13.84-11.2,25.08-25.04,25.08h-23.28       c13.84,0,25.08-11.24,25.08-25.08v-336.36c0-13.84-11.24-25.04-25.08-25.04h23.28       C402.07,97.386,413.271,108.587,413.271,122.426z" style="fill:#EDEDED;"/>
</g>
<g>
<path d="M413.271,161.449v-39.012c0-13.832-11.217-25.049-25.048-25.049H29.049       C15.218,97.388,4,108.605,4,122.437v39.012H413.271z" style="fill:#D3D9D9;"/>
</g>
<g>
<path d="M52.324,97.386c-13.84,0-25.08,11.2-25.08,25.04v39.04H4.004v-39.04       c0-13.84,11.2-25.04,25.04-25.04C29.044,97.386,52.324,97.386,52.324,97.386z" style="fill:#EDEDED;"/>
</g>
<g>
<path d="M413.271,122.426v39.04h-23.24v-39.04c0-13.84-11.24-25.04-25.08-25.04h23.28       C402.07,97.386,413.271,108.587,413.271,122.426z" style="fill:#A8B2B4;"/>
</g>
<g>
<g>
<circle cx="41.844" cy="129.423" r="11.369" style="fill:#FC8A8A;"/>
<path d="M41.844,144.79c-8.473,0-15.367-6.895-15.367-15.367s6.895-15.367,15.367-15.367        c8.477,0,15.371,6.895,15.371,15.367S50.32,144.79,41.844,144.79z M41.844,122.056c-4.062,0-7.367,3.305-7.367,7.367        c0,4.062,3.305,7.367,7.367,7.367c4.063,0,7.371-3.305,7.371-7.367C49.215,125.361,45.906,122.056,41.844,122.056z" style="fill:#333333;"/>
</g>
<g>
<circle cx="82.322" cy="129.423" r="11.369" style="fill:#FEDD8E;"/>
<path d="M82.32,144.79c-8.473,0-15.367-6.895-15.367-15.367s6.895-15.367,15.367-15.367        c8.477,0,15.371,6.895,15.371,15.367S90.797,144.79,82.32,144.79z M82.32,122.056c-4.063,0-7.367,3.305-7.367,7.367        c0,4.062,3.305,7.367,7.367,7.367s7.371-3.305,7.371-7.367C89.691,125.361,86.383,122.056,82.32,122.056z" style="fill:#333333;"/>
</g>
<g>
<circle cx="122.799" cy="129.423" r="11.369" style="fill:#7BDE9E;"/>
<path d="M122.801,144.79c-8.477,0-15.371-6.895-15.371-15.367s6.895-15.367,15.371-15.367        c8.473,0,15.367,6.895,15.367,15.367S131.273,144.79,122.801,144.79z M122.801,122.056c-4.063,0-7.371,3.305-7.371,7.367        c0,4.062,3.309,7.367,7.371,7.367s7.367-3.305,7.367-7.367C130.168,125.361,126.863,122.056,122.801,122.056z" style="fill:#333333;"/>
</g>
<path d="M386.794,129.415c0,6.328-5.115,11.369-11.369,11.369H187.274       c-6.253,0-11.369-5.04-11.369-11.369c0-6.253,5.115-11.369,11.369-11.369h188.151       C381.679,118.046,386.794,123.161,386.794,129.415z" style="fill:#FFFFFF;"/>
</g>
<g>
<polygon points="460.649,142.961 471.815,208.152 413.27,177.373 354.726,208.152 365.892,142.961        318.542,96.764 383.998,87.252 413.27,27.94 442.543,87.252 507.999,96.764      " style="fill:#FEDD8E;"/>
</g>
<g>
<path d="M425.324,61.346c0,38.28-26.84,70.36-62.8,78.32l-44-42.92l65.479-9.48l29.28-59.32l11.36,23.04       C425.084,54.346,425.324,57.827,425.324,61.346z" style="fill:#FEE9B4;"/>
</g>
<g>
<path d="M460.644,142.946l11.159,65.2l-58.52-30.76l-58.56,30.76l6.279-36.8       c44.721-6.44,80.8-39.52,91.76-82.6l55.24,8L460.644,142.946z" style="fill:#FDD367;"/>
</g>
<path d="M511.805,95.524c-0.473-1.445-1.723-2.5-3.23-2.719L445.2,83.594l-28.344-57.426      c-1.344-2.734-5.828-2.734-7.172,0l-28.34,57.426l-63.375,9.211c-0.55,0.08-1.044,0.302-1.5,0.582H29.047      C13.031,93.387,0,106.418,0,122.438v336.359c0,16.039,13.031,29.086,29.047,29.086h359.176      c16.016,0,29.047-13.047,29.047-29.086V183.995l52.684,27.698c0.586,0.309,1.227,0.461,1.863,0.461      c0.828,0,1.652-0.258,2.352-0.766c1.23-0.895,1.848-2.41,1.59-3.91l-10.813-63.121l45.848-44.73      C511.883,98.564,512.273,96.974,511.805,95.524z M29.047,101.388h288.509l12.971,12.656H187.274      c-8.473,0-15.367,6.895-15.367,15.371c0,8.473,6.895,15.367,15.367,15.367h174.247l-2.169,12.668H8v-35.012      C8,110.829,17.442,101.388,29.047,101.388z M338.726,122.044l15.105,14.738H187.273c-4.063,0-7.367-3.305-7.367-7.367      c0-4.062,3.305-7.371,7.367-7.371H338.726z M409.27,458.798c0,11.625-9.441,21.086-21.047,21.086H29.047      C17.442,479.884,8,470.423,8,458.798V165.45h349.981l-7.196,42.027c-0.258,1.5,0.359,3.016,1.59,3.914      c1.238,0.895,2.867,1.012,4.215,0.301l52.68-27.698V458.798z M457.856,140.099c-0.941,0.918-1.371,2.242-1.148,3.539      l9.797,57.203l-51.371-27.008c-0.586-0.309-1.223-0.461-1.863-0.461s-1.277,0.152-1.863,0.461l-51.371,27.008l9.797-57.203      c0.223-1.297-0.207-2.621-1.148-3.539l-41.551-40.543l57.441-8.348c1.305-0.188,2.43-1.008,3.012-2.188l25.684-52.043      L438.96,89.02c0.582,1.18,1.707,2,3.012,2.188l57.441,8.348L457.856,140.099z" style="fill:#333333;"/>
</g>
<g>
<g>
<g>
<g>
<path d="M84.518,255.911l32.657,32.657l23.89-23.847v130.671h135.161V264.721l23.889,23.847         l32.657-32.657l-56.546-56.589h-28.168c-1.863,16.011-18.764,28.507-39.433,28.507c-20.628,0-37.529-12.496-39.392-28.507         h-28.167L84.518,255.911z" style="fill:#BE90BE;"/>
</g>
</g>
</g>
<g>
<g>
<g>
<path d="M141.081,362.009v33.401h135.124V264.727l23.921,23.841l32.642-32.641l-56.562-56.602h-14.36         c1,6.72,1.48,13.601,1.48,20.601C263.325,292.007,210.284,351.689,141.081,362.009z" style="fill:#A76BA7;"/>
</g>
</g>
</g>
<g>
<g>
<g>
<path d="M276.227,399.392h-135.16c-2.211,0-4-1.789-4-4V274.364L120,291.399         c-1.555,1.555-4.09,1.559-5.652-0.004l-32.656-32.656c-1.563-1.563-1.563-4.094,0-5.656l56.547-56.59         c0.75-0.75,1.766-1.172,2.828-1.172h28.164c2.031,0,3.738,1.52,3.973,3.539c1.629,14,17.188,24.969,35.422,24.969         c18.254,0,33.832-10.969,35.461-24.969c0.234-2.02,1.941-3.539,3.973-3.539h28.168c1.063,0,2.078,0.422,2.828,1.172         l56.543,56.59c1.563,1.563,1.563,4.094,0,5.656l-32.656,32.656c-1.563,1.563-4.098,1.559-5.652,0.004l-17.063-17.035v121.027         C280.227,397.603,278.438,399.392,276.227,399.392z M145.066,391.392h127.16V264.72c0-1.617,0.973-3.074,2.469-3.695         c1.496-0.609,3.215-0.273,4.355,0.863l21.059,21.023l27.004-27l-52.543-52.59h-23.168         c-3.965,16.48-21.645,28.508-42.777,28.508c-21.113,0-38.777-12.027-42.738-28.508h-23.164l-52.547,52.59l27.004,27         l21.063-21.023c1.137-1.141,2.859-1.473,4.355-0.863c1.496,0.621,2.469,2.078,2.469,3.695v126.672H145.066z" style="fill:#333333;"/>
</g>
</g>
</g>
</g>
<g>
<g>
<path d="M381.417,340.582l-35.07,29.426c-3.166,2.65-7.985,0.379-7.985-3.751v-58.782       c0-4.13,4.819-6.402,7.985-3.752l35.07,29.426C383.723,335.076,383.723,338.655,381.417,340.582z" style="fill:#7BDE9E;"/>
</g>
<g>
<path d="M35.872,333.148l35.07-29.426c3.166-2.65,7.985-0.379,7.985,3.751v58.782       c0,4.13-4.819,6.402-7.985,3.752l-35.07-29.426C33.566,338.654,33.566,335.075,35.872,333.148z" style="fill:#7BDE9E;"/>
</g>
</g>
<g>
<g>
<path d="M381.404,340.587l-35.04,29.44c-3.2,2.64-8,0.36-8-3.76v-10.72l31.56-26.48       c1.28-1.08,1.84-2.64,1.68-4.16l9.801,8.24C383.724,335.067,383.724,338.667,381.404,340.587z" style="fill:#51D27F;"/>
</g>
<g>
<path d="M78.924,307.466v58.8c0,4.12-4.8,6.4-8,3.76l-10.199-8.56c1.76-0.68,3.119-2.32,3.119-4.56       v-47.24l7.08-5.96C74.124,301.067,78.924,303.346,78.924,307.466z" style="fill:#51D27F;"/>
</g>
</g>
<g>
<g>
<path d="M343.258,375.149c-1.273,0-2.559-0.277-3.773-0.844c-3.16-1.477-5.121-4.563-5.121-8.051       v-58.781c0-3.488,1.965-6.574,5.125-8.047c3.152-1.48,6.762-1,9.426,1.23l35.074,29.43c2.004,1.672,3.156,4.145,3.16,6.773       c0,2.629-1.152,5.105-3.16,6.785l-35.07,29.426C347.277,374.446,345.281,375.149,343.258,375.149z M343.254,306.583       c-0.125,0-0.25,0.031-0.379,0.09c-0.34,0.16-0.512,0.43-0.512,0.801v58.781c0,0.375,0.172,0.645,0.508,0.801       c0.328,0.152,0.637,0.117,0.91-0.117l35.066-29.418c0-0.004,0-0.004,0.004-0.004c0.242-0.207,0.297-0.469,0.297-0.652       c-0.004-0.184-0.055-0.441-0.297-0.645l-35.074-29.434C343.613,306.649,343.438,306.583,343.254,306.583z" style="fill:#333333;"/>
</g>
<g>
<path d="M74.027,375.149c-2.023,0-4.016-0.703-5.652-2.07l-35.074-29.434       c-2.008-1.68-3.16-4.152-3.16-6.785c0.004-2.629,1.156-5.102,3.164-6.781l35.066-29.418c2.664-2.238,6.281-2.715,9.43-1.234       c3.16,1.473,5.125,4.559,5.125,8.047v58.781c0,3.488-1.965,6.57-5.125,8.047C76.586,374.872,75.301,375.149,74.027,375.149z        M74.035,306.583c-0.184,0-0.359,0.07-0.527,0.207l-35.066,29.422c0,0.004-0.004,0.004-0.004,0.008       c-0.242,0.203-0.293,0.461-0.297,0.645c0,0.184,0.055,0.445,0.297,0.652l35.074,29.43c0.277,0.223,0.582,0.266,0.902,0.109       c0.34-0.16,0.512-0.43,0.512-0.801v-58.781c0-0.371-0.172-0.641-0.512-0.801C74.285,306.614,74.16,306.583,74.035,306.583z        M35.871,333.149h0.039H35.871z" style="fill:#333333;"/>
</g>
</g>
</g>
<g>
<g>
<path d="M265.494,439.658c0,7.628-6.178,13.806-13.806,13.806h-86.085      c-7.628,0-13.806-6.178-13.806-13.806c0-3.814,1.558-7.279,4.029-9.75c2.525-2.525,5.964-4.056,9.777-4.056h86.085      C259.316,425.852,265.494,432.029,265.494,439.658z" style="fill:#FC8A8A;"/>
</g>
<g>
<path d="M185.364,453.466h-19.761c-7.64,0-13.8-6.2-13.8-13.8c0-3.84,1.561-7.28,4.04-9.76      c2.521-2.52,5.96-4.04,9.76-4.04h19.761c-3.8,0-7.24,1.52-9.761,4.04c-2.479,2.48-4.039,5.92-4.039,9.76      C171.564,447.266,177.763,453.466,185.364,453.466z" style="fill:#F96364;"/>
</g>
<g>
<path d="M265.494,439.667c0,7.6-6.2,13.8-13.8,13.8h-19.801c7.641,0,13.801-6.2,13.801-13.8      c0-7.64-6.16-13.8-13.801-13.8h19.801C259.293,425.866,265.494,432.027,265.494,439.667z" style="fill:#FCB0B0;"/>
</g>
<g>
<path d="M251.688,457.462h-86.086c-9.816,0-17.805-7.988-17.805-17.805c0-4.754,1.844-9.219,5.195-12.578      c3.375-3.371,7.852-5.227,12.609-5.227h86.086c9.816,0,17.805,7.988,17.805,17.805S261.504,457.462,251.688,457.462z       M165.602,429.853c-2.621,0-5.09,1.023-6.949,2.883c-1.84,1.844-2.855,4.305-2.855,6.922c0,5.406,4.398,9.805,9.805,9.805      h86.086c5.406,0,9.805-4.398,9.805-9.805s-4.398-9.805-9.805-9.805H165.602z" style="fill:#333333;"/>
</g>
</g>
</g>
</g>
</svg>